<svg width="140" height="85" viewBox="0 0 140 85" fill="none" xmlns="http://www.w3.org/2000/svg">
<rect width="140" height="85" rx="12" fill="#FFF5F2"/>
<path d="M32.4279 16.1418L29.5967 30.1439C30.8563 31.4547 32.1915 32.6921 34.3464 33.1588L44.7139 35.0257L47.1498 18.5669L32.4279 16.1418Z" fill="#FAFAFA"/>
<path d="M31.8369 15.2778L29.0057 29.2799L33.7553 32.2948L44.1229 34.1617L47.1847 18.3623L31.8369 15.2778Z" fill="#F5F5F5"/>
<path d="M30.9377 28.5332L28.9998 29.28C28.9998 29.28 29.6975 30.4458 30.7148 31.0675C31.6423 31.6661 32.672 32.0792 33.7495 32.285C33.7495 32.285 31.4919 31.141 30.9377 28.5332Z" fill="#E0E0E0"/>
<path d="M30.2595 18.2828L37.3462 16.0305L36.8947 14.5012L29.6917 16.6482L30.2595 18.2828Z" fill="#EBEBEB"/>
<path d="M48.4114 22.1399L43.8167 16.1677L42.5881 17.1489L47.1246 23.27L48.4114 22.1399Z" fill="#EBEBEB"/>
<path d="M44.5182 23.0137C44.5182 23.0415 41.8963 22.541 38.6736 21.8956C35.451 21.2501 32.8426 20.7039 32.8484 20.6741C32.8542 20.6443 35.4703 21.1468 38.693 21.7923C41.9156 22.4378 44.524 22.9859 44.5182 23.0137Z" fill="#E0E0E0"/>
<path d="M44.055 25.1607C44.055 25.1885 41.4331 24.688 38.2105 24.0405C34.9878 23.3931 32.3717 22.8588 32.3853 22.8211C32.3988 22.7833 35.0072 23.2938 38.2298 23.9392C41.4525 24.5847 44.0608 25.1329 44.055 25.1607Z" fill="#E0E0E0"/>
<path d="M43.7547 27.0853C43.7547 27.1131 41.1328 26.6126 37.912 25.9671C34.6913 25.3216 32.081 24.7754 32.0849 24.7456C32.0888 24.7159 34.7068 25.2183 37.9314 25.8658C41.156 26.5133 43.7605 27.0575 43.7547 27.0853Z" fill="#E0E0E0"/>
<path d="M43.3923 28.9242C43.3923 28.952 40.7704 28.4515 37.5477 27.8041C34.3251 27.1566 31.7167 26.6124 31.7225 26.5846C31.7283 26.5568 34.3444 27.0573 37.5671 27.7028C40.7897 28.3483 43.3962 28.8964 43.3923 28.9242Z" fill="#E0E0E0"/>
<path d="M98.7685 9.70302L95.104 18.857C93.8889 19.1092 92.6545 19.2899 91.2418 18.704L84.5892 15.6633L89.4086 5.25415L98.7685 9.70302Z" fill="#FAFAFA"/>
<path d="M99.4331 9.44084L95.7706 18.5968L91.9065 18.4419L85.2539 15.4011L89.4648 5.12305L99.4331 9.44084Z" fill="#F5F5F5"/>
<path d="M94.9431 17.4009L95.7706 18.5925C95.2457 18.8252 94.6797 18.9448 94.1079 18.9441C93.3495 18.9187 92.6027 18.7469 91.9065 18.4376C91.9065 18.4376 93.6409 18.6879 94.9431 17.4009Z" fill="#E0E0E0"/>
<path d="M99.2025 11.7902L95.9876 7.68886L96.8247 6.98975L100.146 11.0771L99.2025 11.7902Z" fill="#EBEBEB"/>
<path d="M87.3351 6.80521L92.2243 5.20044L92.5595 6.25109L87.6451 7.96311L87.3351 6.80521Z" fill="#EBEBEB"/>
<path d="M89.2381 8.84882C89.2477 8.823 90.9531 9.538 93.0459 10.4377C95.1388 11.3374 96.8267 12.1021 96.8151 12.1279C96.8034 12.1537 95.1001 11.4407 93.0072 10.539C90.9143 9.63731 89.2264 8.87464 89.2381 8.84882Z" fill="#E0E0E0"/>
<path d="M88.6935 10.2649C88.7032 10.2371 90.4085 10.9521 92.5014 11.8538C94.5943 12.7555 96.2802 13.5182 96.2705 13.544C96.2608 13.5698 94.5536 12.8568 92.4626 11.9551C90.3717 11.0534 88.6819 10.2908 88.6935 10.2649Z" fill="#E0E0E0"/>
<path d="M88.1373 11.4883C88.149 11.4605 89.8543 12.1755 91.9452 13.0772C94.0362 13.9789 95.726 14.7416 95.7143 14.7674C95.7027 14.7932 93.9993 14.0802 91.9065 13.1785C89.8136 12.2768 88.1276 11.5142 88.1373 11.4883Z" fill="#E0E0E0"/>
<path d="M87.6529 12.686C87.6626 12.6602 89.3679 13.3752 91.4608 14.2749C93.5537 15.1746 95.2396 15.9392 95.2299 15.965C95.2202 15.9909 93.513 15.2778 91.4201 14.3762C89.3272 13.4745 87.6413 12.7118 87.6529 12.686Z" fill="#E0E0E0"/>
<path d="M94.7842 48.7159C91.8154 46.2372 91.4065 42.0227 91.8018 38.2928C91.8677 37.6692 91.8483 37.0078 92.1778 36.4815C92.5072 35.9552 93.2106 35.6334 93.728 35.9373C94.1641 36.1895 94.323 36.7437 94.5439 37.2084C94.8385 37.8293 95.2988 38.352 95.8713 38.7159C96.2434 38.9522 96.7143 39.1131 97.1135 38.9264C97.66 38.6702 97.7762 37.9333 97.8169 37.3097C97.8944 36.1525 97.9713 34.9946 98.0475 33.836C98.0562 33.2128 98.1629 32.5952 98.3634 32.0068C98.594 31.4308 99.0494 30.9164 99.6385 30.7933C100.228 30.6701 100.914 31.0674 100.995 31.685C100.998 31.9432 100.986 32.2012 100.956 32.4576C100.956 32.7178 101.049 33.0118 101.284 33.1011C101.518 33.1905 101.776 33.0356 101.97 32.8668C102.64 32.2888 103.123 31.5123 103.578 30.7397C104.034 29.9671 104.477 29.1746 105.094 28.5331C105.71 27.8916 106.533 27.411 107.405 27.4249C108.277 27.4388 109.161 28.0604 109.316 28.9502C109.471 29.84 108.911 30.692 108.318 31.3593C107.438 32.3494 106.422 33.2037 105.303 33.8956C105.088 33.9975 104.91 34.1664 104.795 34.3782C104.634 34.7754 104.989 35.2223 105.376 35.3891C105.818 35.5778 106.311 35.5679 106.78 35.6592C107.248 35.7506 107.748 36.0048 107.89 36.4755C108.084 37.129 107.526 37.7566 106.985 38.1518C105.901 38.9479 104.692 39.5459 103.41 39.9194C102.952 40.0545 102.472 40.1637 102.09 40.4577C101.708 40.7516 101.45 41.2938 101.634 41.7466C101.819 42.1995 102.369 42.3842 102.842 42.3306C103.315 42.2769 103.751 42.0485 104.208 41.9115C105.065 41.6513 106.134 41.7923 106.615 42.5709C106.931 43.0813 106.911 43.7625 106.692 44.3226C106.448 44.8765 106.098 45.3748 105.663 45.7884C104.226 47.3115 102.421 48.4169 100.431 48.9919C98.4506 49.5322 96.6484 49.5878 94.7803 48.7159" fill="#F5F5F5"/>
<path d="M94.5362 51.4846C94.8291 49.7635 95.2833 48.0754 95.8927 46.4438C96.6451 44.4528 97.5089 42.5078 98.4797 40.6186L99.2355 39.127C99.4835 38.6384 99.7296 38.1518 100.001 37.693C100.521 36.813 101.087 35.9629 101.698 35.1469C102.28 34.3643 102.861 33.6434 103.398 32.9621C103.935 32.2809 104.464 31.6791 104.962 31.1389C105.742 30.2842 106.588 29.4945 107.491 28.7774C107.81 28.5232 108.072 28.3345 108.237 28.2094L108.431 28.0664C108.452 28.0495 108.476 28.0348 108.5 28.0227C108.48 28.0421 108.459 28.06 108.436 28.0763L108.243 28.2273C108.074 28.3584 107.824 28.553 107.51 28.8132C106.62 29.5416 105.785 30.3384 105.012 31.1965C104.518 31.7367 104.003 32.3524 103.462 33.0237C102.921 33.695 102.348 34.414 101.772 35.2084C101.166 36.0233 100.603 36.8713 100.086 37.7487C99.8188 38.2055 99.5746 38.6861 99.3246 39.1767C99.0746 39.6672 98.8266 40.1697 98.5708 40.6662C97.602 42.5523 96.737 44.4924 95.9799 46.4776C95.3682 48.1019 94.9069 49.7816 94.6021 51.4945" fill="#E0E0E0"/>
<path d="M100.036 37.6912C100.013 37.6036 100 37.5137 99.997 37.4231C99.9776 37.2483 99.9563 36.9961 99.937 36.6842C99.8963 36.0586 99.8672 35.1947 99.8401 34.2413C99.8129 33.288 99.7742 32.426 99.7238 31.8024C99.7005 31.4926 99.6773 31.2403 99.6598 31.0656C99.6459 30.9756 99.6413 30.8844 99.6463 30.7935C99.6743 30.8798 99.6932 30.9691 99.7025 31.0596C99.7335 31.2324 99.7684 31.4846 99.8032 31.7945C99.873 32.4181 99.9253 33.282 99.9525 34.2374C99.9796 35.1927 99.999 36.0249 100.016 36.6803C100.016 36.9722 100.034 37.2205 100.04 37.4191C100.049 37.5096 100.048 37.601 100.036 37.6912Z" fill="#E0E0E0"/>
<path d="M107.933 36.7912C107.829 36.807 107.724 36.8123 107.619 36.8071C107.425 36.8071 107.126 36.8071 106.768 36.827C106.049 36.8528 105.057 36.9223 103.966 37.0474C102.875 37.1726 101.89 37.3354 101.183 37.4705C100.828 37.536 100.544 37.5976 100.346 37.6393C100.244 37.6672 100.141 37.6845 100.036 37.6909C100.133 37.6489 100.233 37.6163 100.336 37.5936C100.53 37.54 100.815 37.4665 101.168 37.395C101.873 37.2381 102.857 37.0653 103.952 36.9362C104.886 36.8255 105.826 36.7632 106.766 36.7495C107.126 36.7495 107.419 36.7495 107.621 36.7654C107.725 36.7642 107.83 36.7728 107.933 36.7912Z" fill="#E0E0E0"/>
<path d="M96.0012 46.3046C95.9829 46.2725 95.968 46.2386 95.9566 46.2033L95.8442 45.9034C95.7473 45.6432 95.6175 45.2639 95.4567 44.7912C95.1466 43.8498 94.759 42.533 94.3501 41.0752C93.9413 39.6174 93.575 38.2946 93.2766 37.3493C93.1351 36.8885 93.0169 36.5091 92.9297 36.2271C92.8929 36.104 92.8619 36.0027 92.8386 35.9212C92.8248 35.8864 92.8163 35.8495 92.8134 35.812C92.8325 35.8439 92.8481 35.8779 92.8599 35.9133L92.9704 36.2112C93.0673 36.4714 93.1971 36.8507 93.358 37.3234C93.668 38.2668 94.0556 39.5816 94.4645 41.0414C94.8734 42.5012 95.2396 43.822 95.5381 44.7674C95.6795 45.2281 95.7977 45.6075 95.8849 45.8875L95.978 46.1954C95.9911 46.2303 95.999 46.2672 96.0012 46.3046Z" fill="#E0E0E0"/>
<path d="M106.592 43.6711C106.558 43.6874 106.522 43.6994 106.485 43.7069L106.177 43.7883L105.041 44.0723C104.084 44.3127 102.764 44.6582 101.307 45.0435C99.8497 45.4288 98.5242 45.7645 97.5611 45.983C97.0786 46.0942 96.6891 46.1816 96.4178 46.2312L96.1058 46.2908C96.069 46.3 96.0313 46.3047 95.9934 46.3047C96.0274 46.2885 96.0632 46.2764 96.1 46.269L96.4081 46.1875L97.5437 45.9035C98.501 45.6652 99.8207 45.3176 101.28 44.9323C102.739 44.547 104.072 44.2114 105.041 43.9909C105.524 43.8817 105.913 43.7923 106.185 43.7446L106.499 43.685C106.529 43.6772 106.56 43.6725 106.592 43.6711Z" fill="#E0E0E0"/>
<path d="M111 83.4049C111 83.4347 92.6642 83.4565 70.0533 83.4565C47.4424 83.4565 29.1025 83.4347 29.1025 83.4049C29.1025 83.3751 47.4327 83.3533 70.0533 83.3533C92.6738 83.3533 111 83.3771 111 83.4049Z" fill="#263238"/>
<path d="M53.8373 7.72239L58.5134 22.3322C60.3699 22.8625 62.2612 23.2835 64.5207 22.5308L75.1634 18.5844L68.8363 1.90112L53.8373 7.72239Z" fill="#E0E0E0"/>
<path d="M52.8355 7.24198L57.5115 21.8498L63.513 22.0563L74.1557 18.108L68.7569 1.69678L52.8355 7.24198Z" fill="#7A9DF6"/>
<path d="M58.9203 20.094L57.5096 21.8497C57.5096 21.8497 58.7692 22.5548 60.0462 22.5846C61.2235 22.6369 62.3998 22.4603 63.513 22.0642C63.513 22.0642 60.8 22.2211 58.9203 20.094Z" fill="#7A9DF6"/>
<path opacity="0.3" d="M58.9203 20.094C58.4921 20.9818 58.058 22.0245 57.5096 21.8497C57.5096 21.8497 58.7692 22.5548 60.0462 22.5846C61.2235 22.6369 62.3998 22.4603 63.513 22.0642C63.513 22.0642 60.8 22.2211 58.9203 20.094Z" fill="black"/>
<path d="M52.9362 10.9083L58.3661 4.92214L57.1472 3.74438L51.5526 9.69674L52.9362 10.9083Z" fill="#E0E0E0"/>
<path d="M71.873 4.54668L64.4723 1.5L63.8367 3.08888L71.2645 6.30637L71.873 4.54668Z" fill="#E0E0E0"/>
<path d="M68.7007 7.49817C68.7007 7.52399 66.0071 8.49122 62.6662 9.65706C59.3253 10.8229 56.6065 11.7464 56.5949 11.7186C56.5833 11.6908 59.2866 10.7256 62.6294 9.55975C65.9722 8.3939 68.691 7.47036 68.7007 7.49817Z" fill="#263238"/>
<path d="M69.3847 9.75045C69.3847 9.77826 66.6911 10.7435 63.3502 11.9113C60.0094 13.0792 57.2906 13.9987 57.2828 13.9729C57.2751 13.9471 59.9745 12.9799 63.3173 11.812C66.6601 10.6442 69.3847 9.72662 69.3847 9.75045Z" fill="#263238"/>
<path d="M70.1154 11.7125C70.1154 11.7383 67.4237 12.7056 64.0809 13.8714C60.7381 15.0373 58.0231 15.9608 58.0135 15.933C58.0038 15.9052 60.7071 14.9399 64.0499 13.7741C67.3927 12.6083 70.1076 11.6847 70.1154 11.7125Z" fill="#263238"/>
<path d="M70.7412 13.6253C70.7412 13.6531 68.0476 14.6183 64.7068 15.7862C61.3659 16.954 58.649 17.8736 58.6393 17.8477C58.6296 17.8219 61.331 16.8547 64.6738 15.6869C68.0166 14.519 70.7277 13.5995 70.7412 13.6253Z" fill="#263238"/>
<path d="M77.9113 55.4683L76.9734 64.4058C76.9734 64.4058 75.146 61.5756 73.9096 62.8367C72.7314 64.0403 70.6502 72.8169 70.6502 72.8169C70.6502 72.8169 70.623 75.6789 72.1074 76.4356C76.8687 78.8666 82.1746 74.2985 82.1746 74.2985L81.4169 48.7175C79.4429 50.4205 78.187 52.839 77.9113 55.4683Z" fill="#7A9DF6"/>
<path d="M93.9742 49.2558L85.7364 48.5825C85.686 47.5895 85.7538 43.7821 85.7538 43.7821C85.7538 43.7821 82.3257 43.2359 82.285 39.7245C82.2443 36.2131 82.8354 28.1455 82.8354 28.1455C84.7836 27.287 86.9202 26.9775 89.0243 27.2488C91.1284 27.5201 93.1235 28.3624 94.8036 29.6887L95.3113 30.0859L93.9742 49.2558Z" fill="#B78876"/>
<path d="M85.748 43.7325C87.3305 43.7632 88.8861 43.3103 90.2167 42.4316C90.2167 42.4316 89.1605 44.958 85.7402 44.6422L85.748 43.7325Z" fill="#AA6550"/>
<path d="M94.8908 33.7268C94.9489 33.701 97.2453 33.0138 97.1697 35.415C97.0941 37.8162 94.759 37.2442 94.7571 37.1747C94.7551 37.1052 94.8908 33.7268 94.8908 33.7268Z" fill="#B78876"/>
<path d="M95.4993 36.2887C95.5109 36.2887 95.54 36.3185 95.6078 36.3543C95.7033 36.4002 95.8125 36.4059 95.912 36.3702C96.1639 36.2848 96.3849 35.8895 96.41 35.4565C96.4204 35.2531 96.3873 35.0498 96.3132 34.8607C96.2939 34.7848 96.2568 34.7149 96.2051 34.6571C96.1534 34.5993 96.0887 34.5553 96.0167 34.529C95.9702 34.5144 95.9201 34.5171 95.8754 34.5368C95.8307 34.5564 95.7942 34.5917 95.7725 34.6363C95.7396 34.7018 95.7512 34.7495 95.7396 34.7535C95.7279 34.7574 95.6911 34.7118 95.7124 34.6125C95.7285 34.5541 95.7624 34.5025 95.8093 34.4655C95.8755 34.4187 95.9566 34.3995 96.036 34.4119C96.1329 34.4359 96.2221 34.4851 96.295 34.5547C96.368 34.6242 96.4223 34.7118 96.4527 34.8091C96.5445 35.0205 96.5857 35.2513 96.5728 35.4824C96.5418 35.965 96.286 36.4099 95.945 36.4993C95.8814 36.5164 95.8149 36.5184 95.7505 36.5054C95.686 36.4923 95.6253 36.4644 95.5729 36.4238C95.5031 36.3463 95.4915 36.2927 95.4993 36.2887Z" fill="#AA6550"/>
<path d="M83.5911 33.5836C83.59 33.7145 83.6388 33.8407 83.7272 33.9353C83.8155 34.0299 83.9363 34.0854 84.064 34.0901C84.1263 34.0952 84.1889 34.0875 84.2482 34.0673C84.3076 34.0472 84.3623 34.0151 84.4093 33.9728C84.4563 33.9306 84.4945 33.8792 84.5218 33.8215C84.549 33.7639 84.5646 33.7012 84.5678 33.6372C84.5689 33.5067 84.5204 33.3808 84.4325 33.2862C84.3446 33.1917 84.2242 33.1359 84.0969 33.1308C84.0346 33.1259 83.9719 33.1338 83.9126 33.1541C83.8533 33.1743 83.7985 33.2064 83.7514 33.2485C83.7043 33.2907 83.6659 33.342 83.6384 33.3996C83.6109 33.4571 83.5948 33.5197 83.5911 33.5836Z" fill="#263238"/>
<path d="M83.4846 33.087C83.5447 33.1526 83.9167 32.8706 84.4419 32.8725C84.9671 32.8745 85.3546 33.1446 85.4108 33.0712C85.438 33.0414 85.3759 32.9222 85.217 32.7971C84.9893 32.6358 84.7186 32.5505 84.4419 32.5528C84.1677 32.5517 83.9003 32.6401 83.6784 32.805C83.5098 32.9401 83.4555 33.0572 83.4846 33.087Z" fill="#263238"/>
<path d="M88.7497 33.7821C88.7486 33.9127 88.7972 34.0386 88.8851 34.1331C88.973 34.2276 89.0933 34.2834 89.2206 34.2886C89.283 34.2934 89.3456 34.2855 89.4049 34.2653C89.4643 34.2451 89.5191 34.2129 89.5661 34.1708C89.6132 34.1286 89.6516 34.0773 89.6792 34.0198C89.7067 33.9622 89.7227 33.8997 89.7264 33.8357C89.727 33.705 89.6781 33.5791 89.5898 33.4846C89.5016 33.3901 89.3811 33.3344 89.2536 33.3293C89.1914 33.3244 89.1288 33.3323 89.0696 33.3526C89.0104 33.3728 88.9557 33.405 88.9088 33.4471C88.8619 33.4893 88.8236 33.5407 88.7963 33.5982C88.769 33.6557 88.7532 33.7182 88.7497 33.7821Z" fill="#263238"/>
<path d="M88.6606 33.1864C88.7226 33.2519 89.0927 32.9699 89.6198 32.9719C90.1469 32.9739 90.5325 33.244 90.5887 33.1705C90.6178 33.1427 90.5558 33.0235 90.395 32.8984C90.1672 32.7371 89.8967 32.6512 89.6198 32.6521C89.3458 32.6517 89.0786 32.74 88.8563 32.9043C88.6877 33.0414 88.6315 33.1586 88.6606 33.1864Z" fill="#263238"/>
<path d="M86.7499 37.1904C86.7499 37.1606 86.4243 37.103 85.8953 37.0335C85.7596 37.0196 85.6337 36.9918 85.6104 36.8965C85.5997 36.7547 85.6308 36.6129 85.6995 36.4893C85.8287 36.1557 85.9612 35.8055 86.0968 35.4387C86.651 33.9451 87.0502 32.7157 86.9902 32.6939C86.9301 32.6721 86.4359 33.8657 85.8836 35.3592C85.7519 35.7267 85.624 36.0782 85.4961 36.4159C85.4103 36.5815 85.3855 36.7733 85.4263 36.9561C85.4456 37.0044 85.4756 37.0476 85.514 37.082C85.5523 37.1165 85.5979 37.1414 85.6472 37.1547C85.7216 37.1764 85.7985 37.1877 85.8759 37.1884C86.4166 37.2202 86.7479 37.2222 86.7499 37.1904Z" fill="#263238"/>
<path d="M88.5249 31.0732C88.5772 31.2201 89.1063 31.1506 89.7206 31.2261C90.3349 31.3016 90.8387 31.4744 90.9201 31.3433C90.9569 31.2797 90.8697 31.1447 90.6682 30.9997C90.3986 30.8276 90.0945 30.7203 89.7787 30.6859C89.4628 30.6515 89.1435 30.6909 88.8447 30.8011C88.6179 30.8885 88.5036 31.0017 88.5249 31.0732Z" fill="#263238"/>
<path d="M83.6784 31.5261C83.7714 31.6472 84.1337 31.5261 84.5698 31.5142C85.0058 31.5022 85.3759 31.5976 85.4612 31.4685C85.498 31.4069 85.4399 31.2838 85.279 31.1686C85.0626 31.0287 84.8103 30.9581 84.5545 30.9659C84.2988 30.9737 84.051 31.0595 83.8431 31.2123C83.688 31.3394 83.6377 31.4645 83.6784 31.5261Z" fill="#263238"/>
<path d="M81.1669 25.9291C81.1426 25.711 81.1727 25.4902 81.2544 25.2874C81.3361 25.0845 81.4667 24.9062 81.6339 24.7692C81.8066 24.6405 82.0183 24.5788 82.2313 24.5952C82.4442 24.6115 82.6446 24.7049 82.7966 24.8586C82.7644 24.7119 82.7626 24.56 82.7914 24.4125C82.8201 24.2651 82.8788 24.1256 82.9636 24.0029C83.0484 23.8803 83.1574 23.7772 83.2835 23.7005C83.4096 23.6238 83.5501 23.5751 83.6958 23.5577C84.2558 23.5219 84.7325 23.9549 85.2713 24.1058C85.81 24.2568 86.3642 24.1257 86.8719 23.9171C87.3796 23.7086 87.8525 23.4186 88.366 23.226C89.451 22.8199 90.6486 22.8691 91.6984 23.363C92.7482 23.8569 93.5654 24.7555 93.9722 25.8635C94.7222 25.6232 95.5729 26.0145 96.036 26.658C96.4992 27.3015 96.6174 28.1634 96.5244 28.9618C96.4523 29.5005 96.3223 30.0294 96.1368 30.5388C96.1368 30.5845 96.1368 30.6282 96.1368 30.6739C96.1 32.6044 95.8868 34.8725 95.0826 34.8864C93.6816 34.9082 94.0168 32.2012 94.0168 32.2012C92.296 31.5219 92.9374 28.8804 92.5072 28.4792C92.077 28.078 91.1778 27.1485 87.5773 29.0333C86.1782 29.7662 84.3198 29.7444 83.3043 29.508L83.2152 29.4882H83.1939C83.184 29.4847 83.1743 29.4807 83.1648 29.4762C82.8384 29.3939 82.5265 29.2599 82.2405 29.079C81.9036 28.8799 81.6375 28.5759 81.4808 28.2111C81.4054 28.0286 81.3835 27.8274 81.4179 27.6323C81.4523 27.4372 81.5416 27.2567 81.6746 27.1128C81.3962 26.7775 81.2197 26.366 81.1669 25.9291Z" fill="#263238"/>
<path d="M100.714 71.2978L100.972 76.2849L101.553 83.4349H79.5333L80.4906 72.8569L78.6147 56.1438C78.7775 50.2371 80.9905 47.7823 85.5174 47.2183L85.1608 47.2639C85.7848 47.1885 85.1608 47.2639 85.5174 47.2183C88.3758 48.1438 91.4432 48.1438 94.3017 47.2183C95.6582 47.2778 96.7841 47.7049 97.939 47.9333C101.576 48.6463 104.57 51.5261 105.303 54.0346C105.902 56.0981 110.233 73.9969 110.233 73.9969H101.611L100.714 71.2978Z" fill="#7A9DF6"/>
<path d="M86.3022 38.8507C86.3756 39.0691 86.4787 39.2757 86.6084 39.4644C86.674 39.5586 86.7584 39.6374 86.8559 39.6956C86.9535 39.7538 87.062 39.7901 87.1743 39.8021C87.2942 39.8016 87.4121 39.7705 87.5174 39.7115C87.6226 39.6526 87.7118 39.5677 87.777 39.4644C87.9048 39.2545 87.9638 39.0081 87.9455 38.7614C87.9455 38.5389 87.837 38.2748 87.6219 38.2489C87.5314 38.2454 87.4414 38.2652 87.3603 38.3065L86.2305 38.7772" fill="#AA6550"/>
<path d="M86.7537 39.8042C86.9581 39.8183 87.1632 39.7927 87.3583 39.7287C87.5558 39.649 87.7178 39.4978 87.8137 39.3037C87.8678 39.1856 87.8969 39.0572 87.8992 38.9268C87.9016 38.7964 87.8771 38.667 87.8273 38.547C87.802 38.4849 87.7695 38.4262 87.7304 38.3722C87.6839 38.3245 87.6936 38.3265 87.6451 38.3345C87.5831 38.3553 87.5222 38.3798 87.463 38.408L87.2692 38.4854C87.0269 38.5847 86.808 38.6721 86.6239 38.7436C86.2537 38.8846 86.0193 38.9601 86.0076 38.9422C85.996 38.9244 86.2111 38.7933 86.5677 38.6165C86.746 38.5291 86.9552 38.4179 87.1975 38.3166L87.3796 38.2332C87.4472 38.2004 87.5164 38.1712 87.587 38.1458C87.6411 38.1272 87.6996 38.1272 87.7536 38.1458C87.8035 38.1669 87.8464 38.2021 87.8777 38.2471C87.9298 38.3136 87.9728 38.3871 88.0056 38.4656C88.0671 38.6132 88.0959 38.7729 88.0898 38.9333C88.0838 39.0937 88.0431 39.2508 87.9707 39.3931C87.9096 39.5079 87.8266 39.6091 87.7268 39.6906C87.627 39.7721 87.5122 39.8324 87.3893 39.8678C87.2309 39.9209 87.0611 39.9278 86.899 39.8876C86.8022 39.8558 86.7498 39.8161 86.7537 39.8042Z" fill="#263238"/>
<path d="M78.5779 70.3007L73.3922 53.9828L72.9233 51.244C72.9233 51.244 71.5125 45.1347 71.4486 44.531C71.3769 43.8319 71.03 43.7008 70.7819 43.7365C70.3944 43.808 70.1676 44.3324 70.2122 44.9282C70.2277 45.1268 70.5998 48.4039 70.5998 48.4039C70.3816 48.1157 70.144 47.8436 69.8886 47.5896C69.3518 47.0295 68.2065 46.7951 67.0729 46.9639C65.9393 47.1328 65.635 47.2758 65.6776 47.7306C65.6893 47.816 65.7196 47.8977 65.7662 47.9695C65.8129 48.0414 65.8746 48.1016 65.947 48.1457C66.1745 48.3026 66.4506 48.3677 66.7221 48.3284C68.5418 48.0921 69.1367 49.0374 69.1367 49.0374L69.1987 49.3949C69.1987 49.3949 68.005 48.7077 67.1601 49.1467C67.0349 49.2115 66.923 49.3006 66.8307 49.4088C66.5823 49.4375 66.3455 49.5322 66.1439 49.6835C65.9422 49.8349 65.7826 50.0376 65.681 50.2717C65.5794 50.5057 65.5392 50.7629 65.5644 51.0178C65.5897 51.2726 65.6795 51.5163 65.8249 51.7246C65.9644 51.9232 66.2125 52.102 66.4353 52.0285C66.5537 51.9767 66.6576 51.8954 66.7376 51.7922C66.7831 51.7406 66.833 51.6934 66.8869 51.6512L67.195 52.6303C67.195 52.6303 68.005 54.7932 68.253 55.7743L70.7723 72.2053C70.8556 72.7465 71.0432 73.2652 71.3241 73.7313C71.605 74.1973 71.9737 74.6014 72.4086 74.9199C72.8435 75.2385 73.3359 75.4651 73.8571 75.5865C74.3783 75.708 74.9179 75.7219 75.4444 75.6274C76.0108 75.5252 76.5492 75.2998 77.0234 74.9664C77.4976 74.633 77.8966 74.1994 78.1935 73.6946C78.4905 73.1899 78.6784 72.6258 78.7447 72.0404C78.811 71.4549 78.7542 70.8617 78.5779 70.3007Z" fill="#B78876"/>
<path d="M72.8438 53.8161C72.5202 53.9472 72.1501 53.7327 71.9369 53.4507C71.7237 53.1687 71.6133 52.8171 71.4214 52.5192C70.8401 51.6254 69.6502 51.3017 69.1193 50.3821C69.0437 50.253 68.9914 50.0723 69.0979 49.971C69.2045 49.8697 69.3557 49.9253 69.4855 49.971L72.6713 51.3434" fill="#B78876"/>
<path d="M72.6655 51.3514C72.5637 51.2759 72.453 51.2139 72.3361 51.1667C72.119 51.0595 71.8012 50.9125 71.4078 50.7318L70.0242 50.1121L69.6211 49.9353C69.4694 49.838 69.2862 49.8058 69.1115 49.846C69.0582 49.8704 69.0133 49.9108 68.9829 49.9618C68.9525 50.0129 68.9378 50.0722 68.9409 50.132C68.9461 50.2297 68.9732 50.3249 69.0204 50.41C69.1073 50.5601 69.2099 50.7 69.3266 50.8271C69.8014 51.3356 70.375 51.6215 70.8052 51.985C71.0133 52.1471 71.1963 52.3406 71.3478 52.559C71.4854 52.7576 71.5803 52.986 71.6888 53.1806C71.7613 53.3467 71.8681 53.4945 72.002 53.6139C72.1359 53.7332 72.2935 53.8213 72.464 53.8718C72.7198 53.9215 72.8515 53.8202 72.8399 53.8162C72.7209 53.8323 72.6 53.8255 72.4833 53.7963C72.3308 53.7366 72.1921 53.6451 72.076 53.5275C71.9599 53.4098 71.869 53.2687 71.809 53.1131C71.7101 52.9145 71.6152 52.694 71.4795 52.4656C71.3243 52.229 71.1341 52.0186 70.9156 51.842C70.4738 51.4587 69.9041 51.1608 69.468 50.6881C69.3616 50.574 69.268 50.4481 69.189 50.3127C69.1173 50.1856 69.1115 50.0486 69.189 50.0267C69.2665 50.0049 69.4138 50.0525 69.5494 50.1121L69.9525 50.2829L71.3536 50.8648C71.7547 51.0257 72.0803 51.1548 72.3051 51.2402C72.4196 51.2943 72.5409 51.3317 72.6655 51.3514Z" fill="#AA6550"/>
<path d="M69.2413 49.4228C69.1978 49.2007 69.1035 48.9924 68.9662 48.815C68.8087 48.6347 68.5987 48.5114 68.3674 48.4635C68.0788 48.4062 67.7833 48.3955 67.4914 48.4317C67.1899 48.4691 66.8854 48.4751 66.5826 48.4496C66.3281 48.4248 66.0843 48.3324 65.8753 48.1814C65.805 48.127 65.7477 48.0568 65.7077 47.9763C65.6678 47.8958 65.6462 47.807 65.6447 47.7167C65.6404 47.6521 65.6553 47.5878 65.6873 47.532C65.6989 47.532 65.6873 47.5995 65.6873 47.7147C65.696 47.7946 65.7217 47.8716 65.7625 47.9402C65.8034 48.0088 65.8584 48.0674 65.9237 48.1119C66.1237 48.2418 66.3522 48.3182 66.5884 48.3344C66.8839 48.3524 67.1803 48.3425 67.474 48.3046C67.7793 48.2678 68.0886 48.2839 68.3887 48.3522C68.6406 48.4112 68.8659 48.5553 69.0282 48.7614C69.134 48.8997 69.2046 49.0628 69.2336 49.2361C69.2516 49.2966 69.2542 49.3609 69.2413 49.4228Z" fill="#AA6550"/>
<path d="M70.1986 44.7058C70.2424 44.9196 70.2684 45.1369 70.2762 45.3553C70.3169 45.8021 70.3672 46.3344 70.4234 46.9223C70.4796 47.5102 70.5455 48.0405 70.594 48.4874C70.6313 48.7024 70.6501 48.9204 70.6502 49.1388C70.5783 48.9326 70.5296 48.7187 70.5048 48.5013C70.437 48.104 70.3595 47.5499 70.2975 46.9362C70.2355 46.3225 70.1986 45.7644 70.1851 45.3612C70.1658 45.1429 70.1703 44.9231 70.1986 44.7058Z" fill="#AA6550"/>
<path d="M68.598 50.239C68.5316 50.2289 68.4665 50.2109 68.4042 50.1854C68.3248 50.1528 68.2393 50.1385 68.1539 50.1437C68.0684 50.1488 67.9852 50.1732 67.91 50.2152C67.8646 50.247 67.8281 50.2906 67.8043 50.3415C67.7805 50.3924 67.7702 50.4489 67.7744 50.5051C67.7813 50.6475 67.806 50.7883 67.848 50.9242C67.9037 51.0944 67.8961 51.2797 67.8267 51.4446C67.7797 51.5303 67.7136 51.6034 67.6338 51.6579C67.554 51.7124 67.4627 51.7469 67.3674 51.7584C67.2737 51.7682 67.1791 51.7585 67.0892 51.7298C66.9992 51.7011 66.9159 51.6541 66.8442 51.5915C66.711 51.48 66.6126 51.3308 66.5613 51.1625C66.4962 50.8884 66.4708 50.6061 66.4857 50.3244C66.489 50.134 66.5251 49.9458 66.5923 49.7683C66.6138 49.7008 66.6526 49.6404 66.7047 49.5935C66.7047 49.5935 66.6737 49.661 66.6388 49.7921C66.5934 49.969 66.5725 50.1515 66.5768 50.3343C66.5745 50.6024 66.6071 50.8695 66.6737 51.1288C66.7171 51.2773 66.8071 51.407 66.9297 51.4979C67.0523 51.5887 67.2007 51.6356 67.3519 51.6312C67.4269 51.6219 67.4987 51.595 67.5619 51.5526C67.625 51.5103 67.6779 51.4536 67.7162 51.387C67.7725 51.2495 67.7787 51.0958 67.7337 50.954C67.6933 50.8072 67.6718 50.6556 67.6697 50.5031C67.6684 50.4305 67.6855 50.3588 67.7195 50.295C67.7535 50.2313 67.8031 50.1777 67.8635 50.1397C67.9496 50.0945 68.0449 50.071 68.1416 50.071C68.2383 50.071 68.3336 50.0945 68.4197 50.1397C68.5418 50.1913 68.6096 50.231 68.598 50.239Z" fill="#AA6550"/>
<path d="M66.8888 51.4864C66.8888 51.4864 66.9198 51.5519 66.8888 51.6731C66.865 51.7582 66.8223 51.8365 66.7642 51.9019C66.706 51.9673 66.6339 52.0182 66.5535 52.0505C66.4311 52.0926 66.3001 52.1015 66.1734 52.076C66.0467 52.0506 65.9286 51.9918 65.8307 51.9055C65.5984 51.6931 65.4547 51.3973 65.4296 51.0792C65.3963 50.7661 65.4593 50.4502 65.6098 50.1756C65.7337 49.9538 65.9138 49.7706 66.1311 49.6453C66.274 49.5602 66.431 49.503 66.5942 49.4765C66.6535 49.4619 66.7152 49.4619 66.7745 49.4765C66.5653 49.5308 66.3645 49.6143 66.1776 49.7247C65.9606 49.8653 65.7869 50.066 65.6768 50.3037C65.5667 50.5413 65.5247 50.8061 65.5555 51.0673C65.5775 51.3529 65.7026 51.6199 65.9063 51.8161C65.9884 51.8921 66.088 51.9456 66.1957 51.9717C66.3035 51.9977 66.4159 51.9954 66.5225 51.965C66.594 51.9403 66.6594 51.9002 66.7146 51.8474C66.7697 51.7947 66.8132 51.7305 66.8423 51.6592C66.883 51.5539 66.8772 51.4864 66.8888 51.4864Z" fill="#AA6550"/>
<path d="M69.3169 53.4308C69.4129 53.3888 69.5192 53.3784 69.6211 53.401C69.8875 53.4294 70.1367 53.549 70.3285 53.7406L70.2258 53.7843C70.224 53.6356 70.2324 53.4869 70.2509 53.3394C70.3459 52.4774 70.7412 51.8796 70.7645 51.9015C70.7877 51.9233 70.468 52.5251 70.3769 53.3553C70.36 53.4977 70.3503 53.6409 70.3478 53.7843V53.9332L70.2471 53.828C70.0734 53.6509 69.8533 53.5294 69.6134 53.4784C69.4293 53.4447 69.3169 53.4447 69.3169 53.4308Z" fill="#AA6550"/>
<path d="M68.6716 47.8697C68.7026 47.8816 68.6038 48.1299 68.3364 48.2828C68.0689 48.4357 67.8131 48.4 67.819 48.3662C67.8248 48.3324 68.0438 48.3066 68.2744 48.1676C68.505 48.0286 68.6387 47.8498 68.6716 47.8697Z" fill="#AA6550"/>
<path d="M82.6862 47.8677C82.6862 47.8677 82.6145 47.9471 82.4924 48.1C82.2989 48.3155 82.1464 48.566 82.0428 48.8389C82.0119 48.9317 81.9949 49.0288 81.9924 49.1269C81.9926 49.2315 82.0179 49.3345 82.066 49.4268C82.1982 49.6306 82.3956 49.7809 82.6241 49.8518C83.1975 50.0361 83.7965 50.1227 84.3973 50.108C84.7306 50.108 85.091 50.1279 85.4592 50.1497L86.0231 50.2172C86.2169 50.2391 86.4107 50.2927 86.6045 50.3285C87.4457 50.5045 88.2393 50.8664 88.9299 51.389C89.3063 51.6769 89.6337 52.0265 89.8988 52.4238C89.9655 52.5278 90.0269 52.6352 90.0829 52.7455C90.1391 52.8627 90.1779 52.9759 90.2244 53.0911C90.3108 53.3261 90.3757 53.5688 90.4182 53.8161C90.6132 54.857 90.4524 55.935 89.9628 56.8687C89.457 57.7953 88.6446 58.5061 87.6723 58.8727C87.2154 59.0483 86.7337 59.1463 86.246 59.1626C85.7809 59.1653 85.3173 59.1079 84.8662 58.9918C84.45 58.8821 84.0264 58.8044 83.5989 58.7595C83.2038 58.7204 82.8058 58.7925 82.4478 58.968C82.1188 59.149 81.8261 59.3923 81.5855 59.685C81.3432 59.963 81.1378 60.255 80.9343 60.5311C80.5332 61.0852 80.1069 61.5738 79.6108 61.83C79.3834 61.9549 79.1304 62.0229 78.8725 62.0286C78.657 62.0312 78.443 61.9907 78.2427 61.9094C78.083 61.8442 77.9364 61.7493 77.8105 61.6294C77.7201 61.5392 77.6465 61.4329 77.5935 61.3156C77.5482 61.2203 77.525 61.1157 77.5257 61.0097C77.5392 61.0097 77.5431 61.119 77.6303 61.2977C77.6878 61.4051 77.7624 61.5017 77.8512 61.5837C77.9749 61.6922 78.1167 61.777 78.2698 61.834C78.4792 61.9133 78.7029 61.9449 78.9254 61.9268C79.148 61.9086 79.364 61.841 79.5585 61.7287C80.0235 61.4765 80.4286 61.0018 80.82 60.4457C81.0138 60.1676 81.2231 59.8697 81.4692 59.5797C81.718 59.2656 82.0232 59.0034 82.3683 58.8071C82.7523 58.6139 83.1804 58.5315 83.6066 58.5688C84.0437 58.6122 84.477 58.6885 84.9031 58.7972C85.3392 58.9077 85.7871 58.9618 86.2363 58.9581C86.7002 58.9387 87.1582 58.8434 87.5928 58.676C88.5193 58.3235 89.2934 57.6449 89.7768 56.7614C90.2438 55.8695 90.3984 54.8404 90.2147 53.8458C90.17 53.6094 90.1052 53.3775 90.0209 53.1527C89.9744 53.0415 89.9357 52.9263 89.8872 52.827C89.8365 52.7229 89.7795 52.622 89.7167 52.5251C89.4665 52.1453 89.1576 51.8099 88.802 51.532C88.1337 51.0214 87.3656 50.665 86.5502 50.4873C86.3564 50.4496 86.1627 50.396 85.9824 50.3741L85.4282 50.3007C85.0639 50.2748 84.7151 50.2589 84.376 50.247C83.7608 50.2524 83.149 50.1524 82.566 49.9511C82.3233 49.8648 82.1167 49.6959 81.9808 49.4724C81.9274 49.365 81.9014 49.2454 81.9052 49.1249C81.9105 49.0182 81.9321 48.9129 81.9691 48.8131C82.0825 48.534 82.2507 48.2818 82.4633 48.0722C82.5279 47.9937 82.6029 47.9248 82.6862 47.8677Z" fill="#FAFAFA"/>
<path d="M97.4275 61.1108C97.3743 60.9676 97.3429 60.8169 97.3344 60.6639C97.2913 60.2472 97.3182 59.826 97.4139 59.4186C97.556 58.8117 97.812 58.239 98.1677 57.7324C98.6006 57.1107 99.1541 56.5874 99.7936 56.1952C100.437 55.8168 101.136 55.5484 101.863 55.4007C102.453 55.2759 103.054 55.2127 103.656 55.212C104.06 55.2075 104.463 55.228 104.865 55.2736C105.013 55.2798 105.16 55.3065 105.301 55.3531C105.301 55.3888 104.671 55.3173 103.658 55.3531C103.067 55.3754 102.479 55.4526 101.902 55.5834C101.197 55.7404 100.521 56.0084 99.8963 56.3779C99.2796 56.756 98.7427 57.2563 98.3169 57.8496C97.9675 58.3328 97.7086 58.8783 97.5534 59.4583C97.4487 59.8502 97.401 60.2558 97.412 60.6619C97.4281 60.8109 97.4333 60.961 97.4275 61.1108Z" fill="#FAFAFA"/>
<path d="M108.016 64.5667C107.957 64.6941 107.88 64.8119 107.787 64.9163C107.557 65.2158 107.297 65.4906 107.012 65.7365C106.588 66.1051 106.118 66.4149 105.615 66.6581C104.374 67.2697 102.97 67.4436 101.623 67.1526C101.077 67.039 100.549 66.852 100.051 66.5965C99.7163 66.4278 99.3988 66.2249 99.1037 65.9908C98.9893 65.9126 98.8873 65.8168 98.8014 65.7067C98.8246 65.675 99.2665 66.0702 100.113 66.4654C101.212 66.9882 102.431 67.1864 103.634 67.0376C104.837 66.8888 105.975 66.399 106.921 65.6233C107.648 65.0295 107.985 64.5369 108.016 64.5667Z" fill="#FAFAFA"/>
<path d="M98.282 63.9273C98.2261 63.959 98.167 63.9843 98.1057 64.0027C97.9396 64.0719 97.7887 64.1746 97.6619 64.3046C97.4676 64.5163 97.3161 64.7654 97.2162 65.0375C97.081 65.4005 96.976 65.7746 96.9023 66.1557C96.8226 66.6246 96.7178 67.0888 96.5884 67.5459C96.5068 67.8061 96.3942 68.0549 96.2531 68.2868C96.097 68.5303 95.9063 68.7485 95.6873 68.9342C95.2147 69.3197 94.6698 69.6016 94.0866 69.7624C93.4897 69.9452 92.858 70.0445 92.2224 70.1716C91.0264 70.3734 89.8926 70.8575 88.9106 71.5857C88.4903 71.9086 88.1181 72.2927 87.806 72.7257C87.5402 73.1078 87.3282 73.5263 87.1762 73.969C86.9524 74.6126 86.882 75.3018 86.9708 75.9789C87.0406 76.4576 87.1471 76.7078 87.1258 76.7158C87.0915 76.6599 87.0642 76.5999 87.0444 76.537C87.0145 76.4633 86.9892 76.3877 86.9688 76.3106C86.9376 76.2063 86.9123 76.1002 86.8933 75.9928C86.772 75.3013 86.8226 74.5895 87.0405 73.9233C87.188 73.4624 87.3995 73.0256 87.6684 72.6264C87.9854 72.1747 88.3654 71.7732 88.7962 71.4347C89.7965 70.6786 90.9573 70.1763 92.1836 69.969C92.825 69.8399 93.451 69.7426 94.0304 69.5718C94.5896 69.4212 95.1131 69.1557 95.569 68.7912C95.7752 68.6209 95.9554 68.4201 96.1039 68.1954C96.2395 67.978 96.3488 67.7446 96.4295 67.5003C96.5638 67.0477 96.6751 66.5883 96.7628 66.1239C96.8449 65.7353 96.961 65.3551 97.1096 64.9878C97.2232 64.7067 97.3929 64.4531 97.6077 64.2431C97.7448 64.1112 97.91 64.014 98.0902 63.959C98.152 63.9375 98.2168 63.9267 98.282 63.9273Z" fill="#FAFAFA"/>
<path d="M93.0905 63.0991C93.1574 63.2237 93.1921 63.3639 93.1913 63.5062C93.2105 63.8975 93.1014 64.2842 92.8812 64.6045C92.7329 64.8306 92.5334 65.0166 92.2999 65.1467C92.1682 65.2204 92.0264 65.2733 91.8794 65.3036C91.7235 65.3332 91.5643 65.3399 91.4065 65.3235C91.0677 65.2857 90.7457 65.1523 90.4763 64.9382C90.1805 64.7092 89.9688 64.3844 89.8756 64.0166C89.8163 63.7772 89.813 63.5268 89.8659 63.2858C89.9231 63.057 90.029 62.844 90.176 62.6621C90.3016 62.4897 90.4437 62.3307 90.6004 62.1874C90.6759 62.1161 90.7584 62.0529 90.8465 61.9988C90.9373 61.9367 91.042 61.8991 91.1507 61.8895L91.1759 62.0663L91.081 62.0901L91.0325 61.9193C91.385 61.8168 91.7608 61.8377 92.1003 61.9789C92.3593 62.0807 92.5906 62.2449 92.7746 62.4576C92.8925 62.5915 92.9858 62.7463 93.0498 62.9144C93.0905 63.0315 93.1002 63.0971 93.0925 63.0991C92.9873 62.893 92.857 62.7015 92.7049 62.529C92.5213 62.3433 92.2995 62.2022 92.0557 62.1159C91.744 61.9999 91.4039 61.9908 91.0868 62.0901L91.0383 61.9193L91.1333 61.8915L91.1604 62.0703C90.9942 62.1111 90.8434 62.2008 90.7263 62.3285C90.5835 62.4672 90.4537 62.6195 90.3388 62.7833C90.2042 62.9453 90.1103 63.1385 90.065 63.3462C90.0198 63.5538 90.0246 63.7696 90.0791 63.9749C90.1625 64.2974 90.347 64.5828 90.6042 64.7872C90.8447 64.9797 91.1311 65.1024 91.4336 65.1428C91.5736 65.1594 91.7151 65.1561 91.8542 65.1328C91.9848 65.1082 92.1114 65.0647 92.2301 65.0037C92.4454 64.8906 92.6319 64.7273 92.7746 64.5271C92.9902 64.2354 93.1115 63.8819 93.1215 63.5161C93.1157 63.248 93.0711 63.105 93.0905 63.0991Z" fill="#FAFAFA"/>
<path d="M80.5855 56.6226C80.5889 56.6403 80.5889 56.6585 80.5855 56.6762C80.5855 56.7159 80.5855 56.7675 80.5855 56.8311C80.5855 56.9761 80.5681 57.1767 80.5565 57.4269C80.5255 57.9473 80.4964 58.7 80.4557 59.6295C80.3801 61.4905 80.3045 64.0605 80.2464 66.9026C80.1883 69.7447 80.1515 72.3168 80.1243 74.1777C80.1108 75.1033 80.0991 75.854 80.0914 76.3843C80.0914 76.6365 80.0817 76.8371 80.0798 76.9801C80.0798 77.0437 80.0798 77.0953 80.0798 77.137C80.0823 77.1548 80.0823 77.1729 80.0798 77.1906C80.0768 77.1729 80.0768 77.1548 80.0798 77.137C80.0798 77.0953 80.0798 77.0437 80.0798 76.9801C80.0798 76.8351 80.0798 76.6345 80.0798 76.3843V74.1797C80.0798 72.3167 80.1127 69.7447 80.1728 66.9006C80.2328 64.0565 80.3162 61.4885 80.4111 59.6275C80.4615 58.698 80.5022 57.9453 80.5448 57.4269C80.5642 57.1727 80.5797 56.9721 80.5913 56.8311C80.5913 56.7675 80.603 56.7159 80.6068 56.6742C80.5976 56.658 80.5905 56.6406 80.5855 56.6226Z" fill="#263238"/>
<g opacity="0.2">
<path d="M76.8823 75.0792C77.9636 75.6095 79.3763 74.5906 79.9286 73.5022C79.9286 73.5022 80.2173 71.099 80.1786 69.8716C80.103 67.5995 80.2658 65.3493 80.1902 63.0771C80.0205 64.4375 79.4714 65.7188 78.6089 66.7673C78.3706 67.0553 78.1031 67.3413 78.014 67.7068C77.8551 68.3622 78.3434 69.5399 78.6574 70.1338C79.6263 71.9491 77.514 75.099 76.9521 75.0335" fill="black"/>
</g>
<g opacity="0.2">
<path d="M97.1193 60.2529C97.472 64.7812 97.826 69.3102 98.1813 73.8399C98.1916 74.2691 98.2702 74.6937 98.4138 75.0971C98.4873 75.2985 98.6065 75.4792 98.7615 75.6242C98.9164 75.7692 99.1028 75.8744 99.3052 75.9312C99.9331 76.0623 100.544 75.5082 100.72 74.8766C100.896 74.245 100.757 73.5717 100.602 72.9342C100.338 71.8478 100.042 70.7713 99.7432 69.6949C98.8789 66.5701 98.014 63.4459 97.1484 60.3224" fill="black"/>
</g>
<path d="M84.9729 83.4486C85.1067 83.225 85.2066 82.9819 85.2693 82.7276C85.3779 82.2371 85.31 81.4784 84.938 80.6581C84.7558 80.247 84.4981 79.82 84.2384 79.3512C83.9415 78.8537 83.7206 78.3125 83.5834 77.7465C83.4677 77.1043 83.5144 76.4424 83.7191 75.8239C83.9128 75.1844 84.1938 74.5628 84.4206 73.9113C84.8755 72.6934 84.9097 71.3525 84.5175 70.1119C84.3486 69.5748 84.1009 69.0672 83.783 68.6064C83.5023 68.2062 83.1735 67.8439 82.8044 67.528C82.264 67.0716 81.6475 66.719 80.9847 66.4873C80.5138 66.3264 80.2387 66.2886 80.2425 66.2648C80.3077 66.2609 80.373 66.267 80.4363 66.2827C80.6272 66.3111 80.8157 66.3542 81.0003 66.4118C81.6854 66.6149 82.3258 66.9521 82.8858 67.4048C83.2724 67.7209 83.6171 68.0875 83.9109 68.4952C84.2448 68.9674 84.5062 69.4891 84.686 70.0424C85.1015 71.3226 85.0713 72.7108 84.6008 73.9709C84.3682 74.6343 84.0853 75.2519 83.8993 75.8736C83.7007 76.4589 83.6513 77.0865 83.7559 77.6968C83.8834 78.2467 84.0925 78.7732 84.376 79.2579C84.626 79.7286 84.8798 80.1616 85.0601 80.5886C85.4244 81.4406 85.4748 82.2331 85.3352 82.7376C85.2835 82.9304 85.2031 83.114 85.0969 83.2817C85.0252 83.4009 84.9787 83.4526 84.9729 83.4486Z" fill="#FAFAFA"/>
<path d="M103.165 50.7753C103.128 50.9199 103.062 51.055 102.972 51.1726C102.751 51.5089 102.465 51.7943 102.131 52.0107C101.632 52.3328 101.065 52.5251 100.478 52.5708C99.7633 52.6204 99.0465 52.5266 98.3673 52.2947C97.6751 52.0884 97.0425 51.7121 96.5244 51.1984C96.3019 50.9675 96.1202 50.6986 95.9876 50.4039C95.8753 50.1459 95.8046 49.8709 95.7783 49.5896C95.7341 49.1824 95.8097 48.7708 95.9954 48.4079C96.0237 48.3519 96.0561 48.2981 96.0922 48.247C96.1169 48.2077 96.1455 48.1711 96.1775 48.1378C96.226 48.0842 96.255 48.0564 96.2608 48.0623C96.2667 48.0683 96.1736 48.1934 96.0671 48.4437C95.9197 48.7999 95.8701 49.1907 95.9237 49.5737C95.9565 49.8368 96.0298 50.0928 96.1407 50.3324C96.2727 50.6047 96.4482 50.8524 96.66 51.0653C97.1615 51.5486 97.7679 51.9026 98.4293 52.0981C99.0848 52.3229 99.7757 52.4192 100.466 52.3821C101.027 52.3483 101.572 52.1788 102.057 51.8876C102.384 51.69 102.673 51.4329 102.91 51.1289C102.989 51.0066 103.074 50.8886 103.165 50.7753Z" fill="#FAFAFA"/>
<path d="M100.512 72.1398C100.512 72.1398 100.503 72.122 100.491 72.0842C100.48 72.0465 100.462 71.9869 100.441 71.9174C100.398 71.7645 100.336 71.55 100.257 71.2759L99.5978 68.9065C99.0475 66.8985 98.2917 64.1398 97.4662 61.0812C97.0515 59.5519 96.6581 58.1021 96.3035 56.7694C96.1244 56.1427 95.9865 55.5044 95.8907 54.8588C95.8094 54.2931 95.8094 53.7183 95.8907 53.1527C96.0063 52.3256 96.3931 51.5635 96.9875 50.9918C97.1528 50.8436 97.3358 50.7174 97.5321 50.6164L97.689 50.5489C97.706 50.5393 97.7243 50.5326 97.7433 50.5291C97.4781 50.6566 97.2321 50.8225 97.0127 51.0216C96.4383 51.5952 96.0684 52.3498 95.9624 53.1646C95.8881 53.7232 95.894 54.29 95.9799 54.8468C96.0782 55.4879 96.2181 56.1215 96.3984 56.7436C96.7589 58.0703 97.1561 59.5241 97.5728 61.0534C98.3964 64.11 99.1424 66.8767 99.6831 68.8866C99.9486 69.8797 100.162 70.6959 100.313 71.2699C100.383 71.546 100.439 71.7645 100.478 71.9194C100.495 71.9889 100.509 72.0445 100.518 72.0882C100.518 72.1056 100.516 72.1229 100.512 72.1398Z" fill="#263238"/>
<path d="M92.6196 28.1574C92.6355 28.0162 92.6355 27.8736 92.6196 27.7324C92.5608 27.3473 92.3714 26.9957 92.0848 26.7394C91.6536 26.3659 91.0978 26.1787 90.5345 26.217C89.9008 26.217 89.2264 26.4355 88.5288 26.6758C88.18 26.793 87.8331 26.9062 87.4921 26.9837C87.1628 27.0582 86.8273 27.1001 86.4902 27.1088C85.9188 27.1241 85.3487 27.0477 84.8004 26.8824C84.4329 26.7689 84.0787 26.6144 83.7442 26.4216C83.6527 26.3712 83.5641 26.3155 83.4788 26.2548C83.4471 26.236 83.4178 26.2133 83.3916 26.1872C83.3916 26.1872 83.5233 26.2627 83.7636 26.3858C84.1016 26.5628 84.4561 26.7045 84.8217 26.8089C85.3634 26.9618 85.9248 27.0288 86.4863 27.0075C86.8176 26.9961 87.1471 26.9536 87.4707 26.8804C87.806 26.8029 88.1471 26.6818 88.4978 26.5725C89.1935 26.3322 89.8814 26.1157 90.5325 26.1157C91.1151 26.083 91.6869 26.2855 92.1255 26.6798C92.4174 26.9481 92.6047 27.3157 92.6526 27.7145C92.6755 27.8628 92.6643 28.0145 92.6196 28.1574Z" fill="#455A64"/>
<path d="M95.2861 34.0941C95.2861 34.0941 95.2667 34.0702 95.2396 34.0206C95.2125 33.9709 95.1776 33.8955 95.133 33.7962C95.0138 33.5158 94.9229 33.2236 94.8617 32.9243C94.7687 32.4781 94.7387 32.0206 94.7726 31.5658C94.8374 31.0149 94.9397 30.4694 95.0788 29.9332C95.2136 29.4045 95.2136 28.8492 95.0788 28.3205C95.0144 28.094 94.9026 27.8845 94.7513 27.7068C94.6163 27.5569 94.4472 27.4436 94.2591 27.3771C93.9849 27.2705 93.6808 27.2783 93.4122 27.3989C93.3187 27.4522 93.2311 27.5154 93.1506 27.5876C93.2117 27.4924 93.2958 27.4151 93.3948 27.3632C93.5316 27.2935 93.6806 27.2527 93.833 27.2431C93.9855 27.2336 94.1383 27.2555 94.2823 27.3076C94.4843 27.3743 94.6668 27.4917 94.8133 27.6492C94.9752 27.8343 95.0962 28.0531 95.1679 28.2907C95.3087 28.8361 95.3087 29.4096 95.1679 29.955C95.0297 30.4871 94.9255 31.0278 94.8559 31.5737C94.8193 32.0196 94.8414 32.4685 94.9218 32.9084C94.9764 33.2055 95.0562 33.4973 95.1602 33.7803C95.2435 33.9809 95.2939 34.0901 95.2861 34.0941Z" fill="#455A64"/>
<path d="M92.9491 27.8737C92.9448 27.8268 92.9448 27.7796 92.9491 27.7327C92.9491 27.6314 92.9491 27.4983 92.9646 27.3354C92.9861 26.8433 92.9325 26.3508 92.8057 25.8756C92.7105 25.5529 92.5552 25.252 92.3483 24.9898C92.1142 24.6881 91.7925 24.4704 91.4298 24.3682C91.0238 24.2717 90.6 24.2895 90.2031 24.4198C89.7734 24.5588 89.3616 24.7501 88.9765 24.9898C88.5857 25.2315 88.1791 25.4452 87.7595 25.6294C87.3594 25.7895 86.9351 25.8768 86.5057 25.8876C86.1185 25.8976 85.732 25.8494 85.3585 25.7446C85.0349 25.6483 84.7229 25.515 84.4283 25.3473C84.0035 25.1014 83.6291 24.7737 83.3257 24.3821C83.2421 24.2772 83.167 24.1657 83.1009 24.0484C83.0749 24.0098 83.0529 23.9685 83.035 23.9253C83.0667 23.9591 83.0946 23.9964 83.1183 24.0365C83.1898 24.1486 83.2688 24.2555 83.3547 24.3563C83.6657 24.7311 84.0406 25.0447 84.4613 25.2818C84.753 25.4413 85.061 25.5672 85.3798 25.6572C85.7464 25.7558 86.1249 25.7999 86.5038 25.7883C86.9214 25.7754 87.3338 25.6887 87.7227 25.5321C88.1374 25.3476 88.5394 25.1346 88.9261 24.8945C89.3188 24.6521 89.7384 24.4588 90.176 24.3185C90.5898 24.1853 91.0309 24.1688 91.453 24.2709C91.8337 24.3803 92.1699 24.6122 92.4123 24.9322C92.6244 25.2041 92.7812 25.5168 92.8735 25.8518C92.9979 26.334 93.0418 26.8343 93.0033 27.3315C92.9936 27.5082 92.9801 27.6433 92.9684 27.7287C92.968 27.7777 92.9615 27.8264 92.9491 27.8737Z" fill="#455A64"/>
<path d="M87.8312 77.536L102.328 75.3215L102.096 73.9988H109.886L110.113 76.0326C110.279 76.9165 110.253 77.827 110.038 78.6997C109.823 79.5724 109.423 80.386 108.867 81.0829C108.312 81.7798 107.613 82.343 106.821 82.7326C106.029 83.1222 105.164 83.3287 104.286 83.3374L87.3835 83.1388L87.8312 77.536Z" fill="#B78876"/>
<path d="M88.8776 77.7924C88.8001 77.8182 87.8234 77.3693 86.9494 76.9542C86.0215 76.5122 85.0027 76.3077 83.9807 76.3584L79.9518 76.5689C79.9518 76.5689 80.1999 77.2502 80.6282 77.4925C81.0564 77.7348 83.5601 77.7864 83.5601 77.7864L83.4303 77.9215C82.903 78.4786 82.1836 78.8016 81.4266 78.8212L81.039 78.8311C80.7533 78.8079 80.4711 78.7512 80.198 78.6623L79.2038 78.2511C78.9035 78.1121 78.5857 78.134 78.4539 78.4498C78.3357 78.7298 78.4229 79.1171 79.2445 79.5401C79.7019 79.7765 81.4033 80.3803 81.4033 80.3803C81.4143 80.6278 81.4474 80.8738 81.5021 81.1151C81.5758 81.3693 82.2443 81.6216 82.2443 81.6216C82.4177 81.999 82.6158 82.3639 82.8373 82.7139C82.9148 82.8033 83.5214 82.996 84.1647 83.1826C85.2039 83.4821 86.3046 83.4731 87.3389 83.1568L88.8757 82.6881V77.8956" fill="#B78876"/>
<path d="M83.3644 80.9224C82.6546 80.9034 81.9587 80.7157 81.3316 80.3743C81.3432 80.3465 81.7831 80.5212 82.3432 80.6702C82.9032 80.8192 83.3683 80.8927 83.3644 80.9224Z" fill="#AA6550"/>
<path d="M83.223 81.8895C83.0343 81.9313 82.838 81.9168 82.6571 81.8478C82.4669 81.8125 82.2903 81.723 82.1474 81.5896C82.3299 81.6293 82.5093 81.6824 82.6842 81.7485C82.8669 81.7823 83.0469 81.8294 83.223 81.8895Z" fill="#AA6550"/>
<path d="M106.152 78.7853C106.132 78.7853 106.037 78.4973 105.805 78.0624C105.669 77.808 105.513 77.5649 105.34 77.3354C105.128 77.055 104.892 76.7939 104.636 76.5549C104.376 76.32 104.098 76.1081 103.803 75.9213C103.562 75.7696 103.31 75.6368 103.049 75.5241C102.602 75.3354 102.305 75.2679 102.311 75.248C102.383 75.254 102.454 75.2687 102.522 75.2917C102.604 75.3081 102.684 75.33 102.762 75.3573C102.855 75.3871 102.956 75.4169 103.076 75.4645C103.345 75.5683 103.604 75.6959 103.851 75.8459C104.154 76.0311 104.44 76.2446 104.704 76.4834C104.964 76.7261 105.202 76.992 105.415 77.2778C105.587 77.5142 105.738 77.7654 105.867 78.0286C105.927 78.1378 105.966 78.2451 106.006 78.3364C106.04 78.4139 106.07 78.4935 106.094 78.5748C106.121 78.6422 106.141 78.7129 106.152 78.7853Z" fill="#AA6550"/>
<path d="M83.9593 77.4209C83.8703 77.547 83.7661 77.6611 83.6493 77.7605C83.3816 78.0195 83.0873 78.2479 82.7714 78.4418C82.4517 78.6325 82.1043 78.77 81.7424 78.8489C81.5948 78.89 81.4417 78.9068 81.289 78.8986C81.2793 78.8608 81.9866 78.7953 82.7191 78.3524C83.0296 78.1614 83.3245 77.9448 83.6008 77.7049C83.7111 77.5986 83.8312 77.5035 83.9593 77.4209Z" fill="#AA6550"/>
<path d="M42.2703 72.7097C42.6152 72.7097 39.6309 80.9282 38.8616 83.0276C38.7763 83.2599 38.7182 83.4645 38.7182 83.4645L59.6121 83.5002L59.366 63.5737C59.3669 63.5604 59.3669 63.5472 59.366 63.5339L57.6219 49.2817C57.6133 49.2126 57.585 49.1477 57.5406 49.095C57.4961 49.0424 57.4374 49.0043 57.3719 48.9857C56.5445 48.7573 53.5621 47.9689 51.2813 47.8815C48.609 47.7802 44.741 48.3244 44.741 48.3244C44.741 48.3244 41.2664 48.6779 39.348 49.3929C39.2738 49.42 39.2111 49.4726 39.1705 49.5418C39.1298 49.6109 39.1138 49.6924 39.1251 49.7722L42.2703 72.7097Z" fill="#7A9DF6"/>
<path d="M51.9188 63.8718C51.8922 63.9618 51.8572 64.0489 51.8142 64.132C51.7715 64.2325 51.7223 64.3301 51.6669 64.4239C51.5999 64.5517 51.5262 64.6757 51.446 64.7953C51.352 64.9435 51.2497 65.0861 51.1398 65.2223C51.019 65.3812 50.8896 65.5331 50.7523 65.6771C50.433 66.0067 50.0825 66.3028 49.7058 66.561C49.3237 66.8112 48.9187 67.0227 48.4966 67.1925C48.3028 67.2621 48.109 67.3336 47.9327 67.3792C47.767 67.4274 47.5988 67.4658 47.4288 67.4944C47.2898 67.5219 47.1494 67.5418 47.0083 67.554C46.9017 67.569 46.7942 67.5763 46.6866 67.5759C46.5958 67.5861 46.5042 67.5861 46.4134 67.5759C46.4134 67.554 46.801 67.556 47.4153 67.4289C47.582 67.3952 47.7469 67.3528 47.9094 67.3018C48.0877 67.2541 48.2699 67.1806 48.4617 67.1032C48.876 66.9317 49.2737 66.7209 49.6496 66.4736C50.0212 66.2199 50.3683 65.9306 50.6864 65.6096C50.8278 65.4567 50.9674 65.3157 51.0739 65.1667C51.1852 65.035 51.2894 64.8971 51.3859 64.7536C51.7503 64.2313 51.8995 63.8618 51.9188 63.8718Z" fill="#263238"/>
<g opacity="0.2">
<path d="M39.4274 81.4686C40.4066 81.8799 41.4727 82.0253 42.5227 81.8906C43.5728 81.756 44.5711 81.3458 45.4212 80.7C46.175 80.1399 46.8068 79.407 47.6207 78.9403C48.7485 78.2968 50.0914 78.2352 51.3801 78.1458C53.1028 78.0187 54.8411 77.8022 56.4611 77.1865C56.7992 77.0853 57.1057 76.8957 57.3506 76.6364C57.5735 76.3603 57.649 75.9254 57.4301 75.6433C57.2111 75.3613 56.7945 75.3414 56.436 75.3534C51.0332 75.5162 46.0956 75.9591 40.8362 77.2402" fill="black"/>
</g>
<path d="M45.2507 27.3793C46.9211 25.6355 49.5566 24.5988 51.7386 25.5918C53.2075 26.2512 54.2036 27.6633 55.4923 28.6385C56.4302 29.3495 57.589 29.8997 58.0812 30.9841C58.5153 31.9394 58.306 33.0536 58.2014 34.1023C58.0967 35.1509 58.1704 36.3605 58.963 37.0338C59.3777 37.3853 59.9319 37.5263 60.395 37.8004C61.3388 38.3545 61.8988 39.433 62.1003 40.5273C62.3019 41.6217 62.1934 42.7498 62.0848 43.86L57.5871 44.7379L56.8488 43.4648L56.5949 45.4608L50.855 45.9911L45.2507 27.3793Z" fill="#263238"/>
<path d="M44.5085 29.2817V30.5628L44.1539 49.7902C44.1228 52.0186 46.2041 53.9154 48.5334 53.9313C50.884 53.9472 51.8433 52.1438 51.9111 49.8856C51.9808 47.5241 52.1049 45.0375 52.1049 45.0375C52.1049 45.0375 55.0872 44.6164 55.81 40.6681C56.1686 38.7018 56.1589 35.4625 56.0678 32.811C56.0485 32.2453 55.9178 31.6893 55.6834 31.1767C55.449 30.6641 55.1159 30.2054 54.704 29.8281C54.2922 29.4509 53.8101 29.163 53.2868 28.9817C52.7635 28.8004 52.2099 28.7295 51.6592 28.7733L44.5085 29.2817Z" fill="#FFBE9D"/>
<path d="M55.0291 35.3592C55.0271 35.4918 54.9744 35.6182 54.8824 35.7115C54.7903 35.8047 54.6663 35.8572 54.5369 35.8577C54.4736 35.8611 54.4102 35.8516 54.3506 35.8296C54.2909 35.8075 54.2362 35.7735 54.1896 35.7294C54.143 35.6854 54.1055 35.6322 54.0793 35.573C54.053 35.5139 54.0386 35.4499 54.0369 35.385C54.0394 35.2524 54.0922 35.1259 54.1841 35.0325C54.276 34.9391 54.3997 34.886 54.5291 34.8845C54.5926 34.881 54.6561 34.8906 54.7159 34.9128C54.7757 34.9349 54.8305 34.9691 54.8771 35.0134C54.9237 35.0577 54.9612 35.1111 54.9873 35.1705C55.0134 35.2299 55.0276 35.294 55.0291 35.3592Z" fill="#263238"/>
<path d="M55.3217 34.4694C55.2578 34.535 54.8896 34.2371 54.3528 34.2252C53.816 34.2132 53.4187 34.4734 53.3625 34.4039C53.3354 34.3741 53.4013 34.2569 53.5757 34.1338C53.8109 33.9749 54.0888 33.8957 54.3702 33.9074C54.6511 33.9121 54.9229 34.0096 55.1454 34.1854C55.3004 34.3185 55.3527 34.4397 55.3217 34.4694Z" fill="#263238"/>
<path d="M49.762 35.3592C49.7595 35.4916 49.7067 35.6178 49.6147 35.7109C49.5228 35.804 49.399 35.8567 49.2698 35.8577C49.2065 35.8611 49.1432 35.8516 49.0835 35.8296C49.0239 35.8075 48.9691 35.7735 48.9225 35.7294C48.8759 35.6854 48.8384 35.6322 48.8122 35.573C48.786 35.5139 48.7716 35.4499 48.7698 35.385C48.7724 35.2524 48.8251 35.1259 48.917 35.0325C49.0089 34.9391 49.1326 34.886 49.2621 34.8845C49.3255 34.881 49.389 34.8906 49.4488 34.9128C49.5086 34.9349 49.5634 34.9691 49.61 35.0134C49.6567 35.0577 49.6941 35.1111 49.7202 35.1705C49.7464 35.2299 49.7606 35.294 49.762 35.3592Z" fill="#263238"/>
<path d="M50.0624 34.4238C49.9984 34.4874 49.6302 34.1914 49.0934 34.1775C48.5567 34.1636 48.1594 34.4278 48.1032 34.3583C48.0761 34.3285 48.142 34.2093 48.3164 34.0882C48.5516 33.9293 48.8293 33.8495 49.1109 33.8598C49.3916 33.865 49.6633 33.9625 49.886 34.1378C50.0411 34.2729 50.0934 34.394 50.0624 34.4238Z" fill="#263238"/>
<path d="M51.8936 38.5487C51.8936 38.5169 52.2269 38.4673 52.7657 38.4117C52.9033 38.4017 53.0331 38.3779 53.0583 38.2826C53.0742 38.1385 53.0464 37.9929 52.9788 37.8655C52.8606 37.5219 52.7347 37.1644 52.6029 36.787C52.0835 35.2558 51.7115 34.0065 51.7715 33.9747C51.8316 33.9429 52.3025 35.1803 52.8219 36.7136C52.9478 37.0909 53.068 37.4504 53.1804 37.796C53.2628 37.9665 53.2827 38.1618 53.2366 38.3461C53.2155 38.3951 53.1838 38.4385 53.1438 38.4729C53.1038 38.5074 53.0567 38.5319 53.006 38.5447C52.9299 38.5641 52.8517 38.5728 52.7734 38.5706C52.2308 38.5805 51.8956 38.5725 51.8936 38.5487Z" fill="#263238"/>
<path d="M52.0894 45.0377C50.2641 45.0151 48.4809 44.4733 46.9386 43.4727C46.9386 43.4727 48.1226 46.2353 52.0119 45.9732L52.0894 45.0377Z" fill="#EB996E"/>
<path d="M51.632 39.8557C51.5341 39.7207 51.4043 39.6135 51.2548 39.544C51.1053 39.4745 50.9411 39.4451 50.7774 39.4585C50.6592 39.4663 50.5436 39.4984 50.4377 39.553C50.3319 39.6076 50.2378 39.6836 50.1612 39.7763C50.0876 39.8656 50.0425 39.9759 50.0317 40.0923C50.021 40.2088 50.0452 40.3258 50.1011 40.4277C50.1852 40.5279 50.2963 40.6002 50.4205 40.6355C50.5447 40.6709 50.6763 40.6677 50.7988 40.6263C51.053 40.5414 51.2887 40.4065 51.4925 40.2291C51.5544 40.1871 51.6078 40.1331 51.6495 40.0702C51.6684 40.0407 51.6785 40.0062 51.6785 39.9709C51.6785 39.9356 51.6684 39.9011 51.6495 39.8716" fill="#EB996E"/>
<path d="M50.3104 38.8765C50.3976 38.8765 50.3821 39.4724 50.8666 39.9053C51.3511 40.3383 51.9731 40.2926 51.975 40.3761C51.975 40.4138 51.8336 40.4893 51.572 40.4873C51.232 40.4835 50.9044 40.3561 50.6476 40.1278C50.4005 39.9094 50.2462 39.6009 50.2174 39.2678C50.2 39.0176 50.2697 38.8726 50.3104 38.8765Z" fill="#263238"/>
<path d="M50.2329 32.8291C50.1748 32.9761 49.6516 32.8907 49.014 32.9503C48.3765 33.0098 47.8726 33.1707 47.7932 33.0357C47.7583 32.9701 47.8494 32.8371 48.0586 32.6941C48.3366 32.5253 48.6483 32.4235 48.9702 32.3963C49.2922 32.3691 49.6159 32.4173 49.917 32.5372C50.1438 32.6384 50.2562 32.7596 50.2329 32.8291Z" fill="#263238"/>
<path d="M55.3411 33.363C55.2229 33.4842 54.7791 33.3412 54.2385 33.3193C53.6978 33.2975 53.2424 33.3749 53.1397 33.2419C53.0951 33.1783 53.1707 33.0552 53.3742 32.9439C53.6539 32.8039 53.9648 32.7422 54.2753 32.7652C54.5846 32.7757 54.8855 32.8702 55.1473 33.0393C55.3334 33.1723 55.3934 33.3034 55.3411 33.363Z" fill="#263238"/>
<path d="M40.5107 49.0298C40.5107 49.0298 34.2785 50.5273 33.0693 56.577C32.5131 59.3575 31.7361 75.3397 35.3676 77.8283C40.0553 81.0339 46.0258 78.1183 46.0258 78.1183L45.2507 70.3883H41.375L40.8537 61.9196C41.0048 62.581 40.5107 49.0298 40.5107 49.0298Z" fill="#7A9DF6"/>
<path d="M62.6798 75.6314C63.9022 75.5029 65.0306 74.9007 65.8342 73.9479C66.6379 72.995 67.056 71.7636 67.0031 70.5053L64.4568 59.4168C64.4568 59.4168 62.8057 49.9034 57.5871 49.0454L59.366 63.544L59.1955 66.6006C59.1955 66.6006 59.2769 68.6224 59.4765 72.4119L62.6798 75.6314Z" fill="#7A9DF6"/>
<path d="M63.3541 68.694C63.0394 68.7059 62.7259 68.741 62.4162 68.7993C61.6684 68.9549 60.9833 69.3368 60.4493 69.8954C59.9152 70.454 59.5568 71.1639 59.4203 71.9333C59.3696 72.2526 59.3418 72.5752 59.3369 72.8986C59.3166 72.8128 59.3068 72.7247 59.3079 72.6364C59.2975 72.3965 59.3118 72.1562 59.3505 71.9194C59.4744 71.1291 59.8355 70.3981 60.3835 69.8278C60.9315 69.2576 61.6393 68.8766 62.4084 68.7377C62.6391 68.6941 62.8735 68.6742 63.108 68.6781C63.1904 68.6731 63.273 68.6784 63.3541 68.694Z" fill="#263238"/>
<path d="M47.2757 26.9359C47.9772 27.9012 48.3106 28.642 48.7311 30.36C48.9384 31.2001 48.2699 31.794 47.6071 32.3084C47.5359 32.3639 47.4521 32.4001 47.3636 32.4137C47.2751 32.4272 47.1847 32.4178 47.1007 32.3861C47.0167 32.3544 46.9419 32.3016 46.883 32.2325C46.8242 32.1634 46.7833 32.0802 46.7641 31.9906C46.7641 31.9906 46.9928 34.6222 46.0646 35.8019C45.6305 36.356 45.6111 37.0651 45.7138 37.6629C45.8303 38.2709 46.1188 38.8304 46.5432 39.2716C47.6207 40.4315 47.9191 42.3243 47.1769 43.7463C46.9619 44.0958 46.7646 44.4564 46.5859 44.8268C46.4955 45.0478 46.4538 45.2865 46.4638 45.5259C46.4752 45.6664 46.4341 45.806 46.3488 45.9166C46.2636 46.0272 46.1405 46.1005 46.0045 46.1217C42.8155 46.5944 39.5843 46.6937 36.3734 46.4176C36.263 46.4085 36.1581 46.3642 36.0737 46.2908C35.9892 46.2174 35.9293 46.1186 35.9025 46.0085C35.6506 44.9042 36.0711 43.7126 36.6079 42.7195C37.2086 41.5974 37.9644 40.5209 38.1795 39.2597C38.3732 38.0681 38.0574 36.793 38.5225 35.6847C39.1038 34.3282 40.6541 33.6867 41.4292 32.4414C42.1637 31.2676 42.1036 29.7284 42.7605 28.5089C43.6054 26.9399 45.6809 26.217 47.2816 26.934" fill="#263238"/>
<path d="M47.454 28.3919C48.673 29.0354 49.2369 30.5627 50.4209 31.2697C51.4983 31.9132 52.8432 31.7444 54.0776 31.5537C54.0331 31.2737 53.9865 30.9917 53.94 30.7116C54.0511 30.9651 54.2061 31.1959 54.3974 31.3929C54.4945 31.49 54.6156 31.5584 54.7477 31.5905C54.8798 31.6227 55.0179 31.6175 55.1473 31.5756C55.562 31.4048 55.6163 30.8209 55.5116 30.3839C55.3221 29.6728 54.9501 29.0267 54.4342 28.513C53.5125 27.5542 52.2847 26.9676 50.9756 26.8603C49.6665 26.7531 48.3634 27.1325 47.3048 27.9291" fill="#263238"/>
<path d="M58.8816 56.6641C58.8905 56.7158 58.8944 56.7684 58.8932 56.821C58.8932 56.9322 58.8932 57.0811 58.9068 57.2678C58.9068 57.6651 58.9339 58.2192 58.963 58.9123C59.0192 60.3026 59.1451 62.2172 59.2982 64.3324C59.4513 66.4476 59.5656 68.3662 59.6025 69.7565C59.6218 70.4516 59.6315 71.0137 59.6257 71.4029C59.6257 71.5896 59.6257 71.7386 59.6257 71.8498C59.6303 71.902 59.6303 71.9545 59.6257 72.0067C59.6168 71.9549 59.6129 71.9024 59.6141 71.8498C59.6141 71.7386 59.6141 71.5896 59.6005 71.4029C59.6005 71.0057 59.5734 70.4536 59.5443 69.7584C59.4901 68.3682 59.3622 66.4556 59.211 64.3384C59.0599 62.2212 58.9416 60.3066 58.9048 58.9163C58.8854 58.2212 58.8777 57.6571 58.8816 57.2678C58.8816 57.0811 58.8816 56.9322 58.8816 56.821C58.8782 56.7687 58.8782 56.7163 58.8816 56.6641Z" fill="#263238"/>
<path d="M41.3808 70.3902C41.372 70.3538 41.3674 70.3164 41.3672 70.279C41.3672 70.1936 41.3556 70.0803 41.3459 69.9592C41.3304 69.6672 41.3091 69.272 41.2839 68.7874C41.2277 67.7943 41.1424 66.4299 41.0417 64.9185C40.9409 63.407 40.8479 62.0545 40.7801 61.0515C40.749 60.5689 40.7239 60.1717 40.7045 59.8797C40.7045 59.7506 40.6928 59.6454 40.689 59.5619C40.6844 59.5243 40.6844 59.4863 40.689 59.4487C40.6984 59.4851 40.7043 59.5224 40.7064 59.56C40.7064 59.6434 40.7277 59.7486 40.7413 59.8777C40.7684 60.1677 40.8052 60.5629 40.8498 61.0475C40.9351 62.0406 41.0436 63.4011 41.1405 64.9125C41.2374 66.4239 41.3149 67.7924 41.3517 68.7834C41.3692 69.2799 41.3827 69.6811 41.3847 69.9572V70.277C41.3884 70.3147 41.387 70.3528 41.3808 70.3902Z" fill="#263238"/>
<path d="M41.3808 70.39C41.3808 70.4078 41.187 70.4178 40.8731 70.523C40.4758 70.6578 40.1229 70.9029 39.8537 71.2312C39.5844 71.5594 39.4093 71.9578 39.348 72.382C39.2995 72.7077 39.3247 72.9143 39.3073 72.9163C39.2898 72.9183 39.2879 72.8666 39.2763 72.7733C39.2619 72.6413 39.2619 72.5081 39.2763 72.3761C39.3216 71.9308 39.4957 71.5096 39.7762 71.1665C40.06 70.8269 40.4345 70.5797 40.8537 70.4555C40.9802 70.4193 41.1101 70.3966 41.2413 70.388C41.3304 70.378 41.3808 70.382 41.3808 70.39Z" fill="#263238"/>
<path d="M46.0162 78.12C46.0039 78.08 45.9961 78.0387 45.9929 77.9969C45.9813 77.9055 45.9677 77.7883 45.9483 77.6433C45.9135 77.3236 45.865 76.8846 45.8049 76.3444C45.6906 75.2362 45.5356 73.7247 45.365 72.0564C45.3088 71.4765 45.2526 70.9144 45.2023 70.394L45.2507 70.4397L42.1501 70.4199L41.249 70.406H41.0087C40.9811 70.4093 40.9531 70.4093 40.9254 70.406C40.9526 70.3985 40.9806 70.3952 41.0087 70.396H41.249L42.1501 70.3821L45.2507 70.3643H45.2933V70.4099L45.46 72.0703C45.6189 73.7406 45.7623 75.2481 45.8689 76.3643C45.9154 76.9045 45.9541 77.3454 45.9813 77.6652C45.9929 77.8102 46.0007 77.9293 46.0084 78.0207C46.0137 78.0535 46.0163 78.0867 46.0162 78.12Z" fill="#263238"/>
<path d="M46.0161 78.1199C45.9682 78.141 45.919 78.1589 45.8689 78.1736L45.4445 78.3126C45.0743 78.4318 44.5375 78.5986 43.867 78.7813C43.0822 79.0011 42.2849 79.1709 41.4796 79.2898C40.4871 79.4273 39.4784 79.3782 38.5031 79.1448C37.9976 79.033 37.4993 78.8897 37.0109 78.7158C36.7764 78.6284 36.5458 78.541 36.323 78.4457C36.2125 78.398 36.1021 78.3523 35.9974 78.2947L35.8385 78.2133L35.6893 78.116C35.325 77.8634 35.0085 77.5451 34.7553 77.1765C34.5325 76.8594 34.3379 76.5224 34.1739 76.1696C33.9436 75.6595 33.7493 75.1332 33.5925 74.5946C33.5344 74.396 33.4918 74.257 33.4666 74.1557C33.4508 74.1043 33.4385 74.0519 33.4298 73.9988C33.4529 74.0472 33.4717 74.0978 33.486 74.1497L33.6294 74.5827C33.8013 75.1131 34.0058 75.6319 34.2417 76.1358C34.407 76.4835 34.6015 76.8158 34.8231 77.1289C35.0732 77.4864 35.3844 77.7946 35.7416 78.0385L35.885 78.1319L36.0381 78.2113C36.1389 78.2669 36.2493 78.3106 36.3598 78.3583C36.5807 78.4516 36.8094 78.539 37.0439 78.6224C37.5285 78.7948 38.0229 78.9367 38.5244 79.0475C39.4888 79.2783 40.4857 79.3301 41.468 79.2004C42.2703 79.0858 43.0655 78.924 43.8496 78.7158C44.5201 78.541 45.0588 78.3841 45.4328 78.2788L45.863 78.1577C45.9127 78.1398 45.964 78.1272 46.0161 78.1199Z" fill="#263238"/>
<path d="M42.7276 31.6414C42.9138 31.1727 42.9592 30.6577 42.858 30.1623C42.7569 29.6669 42.5138 29.2138 42.1598 28.8609C41.796 28.5201 41.3506 28.2843 40.8689 28.1776C40.3872 28.0708 39.8864 28.0969 39.4178 28.2531C38.9909 28.3849 38.6157 28.6519 38.3461 29.0158C37.8714 29.6871 37.9586 30.6762 38.4547 31.3376C38.7142 31.6576 39.0374 31.9173 39.4026 32.0992C39.7679 32.281 40.1668 32.3809 40.5727 32.3922C41.3862 32.4088 42.1928 32.2378 42.933 31.8917" fill="#263238"/>
<path d="M49.171 63.1409C50.5275 64.2869 53.7172 66.9999 53.7172 66.9999L55.5019 66.6742L50.0914 62.0088C49.9512 61.8886 49.7716 61.8277 49.5891 61.8384C49.4066 61.8491 49.2349 61.9306 49.1089 62.0664C49.0406 62.1393 48.9877 62.2259 48.9536 62.3208C48.9194 62.4156 48.9048 62.5167 48.9107 62.6176C48.9165 62.7185 48.9426 62.8171 48.9874 62.9072C49.0322 62.9972 49.0947 63.0768 49.171 63.1409Z" fill="#455A64"/>
<path d="M49.0373 62.5452L48.3358 61.8957C48.2698 61.8344 48.2295 61.7493 48.2234 61.6583C48.2172 61.5672 48.2457 61.4772 48.3028 61.4072C48.3328 61.3712 48.3696 61.3418 48.4109 61.3207C48.4522 61.2995 48.4973 61.2871 48.5433 61.2841C48.5894 61.2812 48.6356 61.2877 48.6792 61.3034C48.7228 61.3191 48.7628 61.3436 48.797 61.3754L49.4733 62.0109L49.0373 62.5452Z" fill="#455A64"/>
<path d="M51.1185 62.8945C50.9997 63.0972 50.8528 63.2812 50.6825 63.4407C50.5357 63.6231 50.3648 63.7835 50.1748 63.9174C50.2938 63.7142 50.4406 63.5296 50.6108 63.3692C50.7566 63.1865 50.9276 63.0266 51.1185 62.8945Z" fill="#263238"/>
<path d="M51.1689 65.1785C50.978 65.0757 50.797 64.9547 50.6282 64.817C50.3066 64.5787 49.8705 64.2331 49.4113 63.824C49.1761 63.6444 48.9817 63.4147 48.8415 63.1507C48.7423 62.9195 48.7361 62.6576 48.8241 62.4218C48.8829 62.2652 48.982 62.128 49.1109 62.0246C49.202 61.9551 49.262 61.9332 49.264 61.9392C49.2659 61.9451 49.2155 61.9789 49.1361 62.0563C49.0235 62.1657 48.9395 62.3023 48.8919 62.4536C48.82 62.6718 48.8325 62.9099 48.9268 63.1189C49.0667 63.3666 49.2546 63.5822 49.4791 63.7525C49.9345 64.1596 50.3608 64.5132 50.6728 64.7654C50.8464 64.8924 51.0121 65.0304 51.1689 65.1785Z" fill="#263238"/>
<path d="M45.3108 71.0078C46.5975 70.5669 47.9617 70.8648 49.2465 70.4219C49.6877 70.303 50.1009 70.0943 50.4616 69.8082C50.8705 69.4368 51.0778 68.8906 51.4034 68.4417C52.3723 67.0991 54.1919 66.8211 55.8159 66.6542C56.1924 66.5921 56.5767 66.5975 56.9515 66.6701C57.1388 66.7088 57.3132 66.7965 57.4578 66.9245C57.6025 67.0525 57.7124 67.2167 57.777 67.401C57.8816 67.7764 57.6452 68.2451 57.2654 68.2848C57.622 68.3007 57.87 68.6701 57.9359 69.0296C58.0018 69.3891 57.9359 69.7585 57.9901 70.12C58.056 70.6284 58.3273 71.1031 58.3118 71.6155C58.2905 72.3166 57.7305 72.8946 57.091 73.1647C56.4515 73.4348 55.7597 73.4705 55.0834 73.5619C51.7503 74.0425 49.231 75.979 46.0161 77.4427" fill="#FFBE9D"/>
<path d="M57.9669 69.4961C57.9996 69.5509 58.043 69.5982 58.0944 69.6351C58.1457 69.6719 58.2039 69.6976 58.2653 69.7104C58.3268 69.7233 58.3901 69.7231 58.4514 69.7098C58.5128 69.6965 58.5708 69.6704 58.6219 69.6332C58.7214 69.552 58.7974 69.4446 58.8418 69.3224C58.8862 69.2003 58.8972 69.0681 58.8738 68.94C58.8231 68.6838 58.7127 68.444 58.5521 68.2409C58.269 67.8653 57.958 67.5127 57.622 67.1863L56.5949 68.0721L57.9669 69.4961Z" fill="#FFBE9D"/>
<path d="M57.587 68.3404C57.587 68.3741 56.9553 68.3205 56.1937 68.4417C55.4321 68.5628 54.8372 68.7972 54.8372 68.7674C54.9532 68.689 55.0799 68.6288 55.2132 68.5886C55.5278 68.4743 55.8522 68.3905 56.1821 68.3384C56.5123 68.2871 56.8465 68.2691 57.1801 68.2848C57.3177 68.283 57.4547 68.3018 57.587 68.3404Z" fill="#EB996E"/>
<path d="M58.0405 70.4099C58.0405 70.4417 57.5115 70.3304 56.8584 70.3503C56.2054 70.3702 55.686 70.5012 55.6802 70.4695C56.4409 70.1933 57.2675 70.1724 58.0405 70.4099Z" fill="#EB996E"/>
<path d="M57.932 69.7984C57.9146 69.7984 57.932 69.6435 57.9029 69.4012C57.8657 69.0868 57.759 68.7852 57.5909 68.5194C57.5506 68.4552 57.5066 68.3935 57.4592 68.3347L57.4301 68.2969L57.4611 68.2651C57.5495 68.1731 57.6189 68.0638 57.6652 67.9437C57.7115 67.8236 57.7337 67.6951 57.7305 67.566C57.7305 67.3674 57.6723 67.2562 57.6859 67.2502C57.7551 67.3388 57.7933 67.4486 57.7944 67.5621C57.8093 67.7034 57.7933 67.8464 57.7477 67.9807C57.7022 68.115 57.6281 68.2372 57.5309 68.3386V68.2691C57.5817 68.3325 57.629 68.3988 57.6723 68.4677C57.8493 68.747 57.9522 69.0687 57.9708 69.4012C57.9861 69.5349 57.9729 69.6705 57.932 69.7984Z" fill="#EB996E"/>
<path d="M57.9688 69.3831L59.6586 71.0077L59.8737 71.9729L58.3118 71.6115C58.087 70.7972 57.9223 70.0206 57.9688 69.3831Z" fill="#455A64"/>
<path d="M55.6802 71.4528C55.6453 71.5163 46.5568 76.1082 46.5568 76.1082V77.1013L55.8314 72.1559L67.3364 71.7169V71.0178L55.6802 71.4528Z" fill="#F5F5F5"/>
<path d="M46.5568 77.2381C46.6208 77.1944 56.591 76.2729 56.591 76.2729L67.3364 71.7048L55.8314 72.1497L46.5568 77.0951V77.2381Z" fill="#263238"/>
<path d="M56.1027 74.7932C56.0232 74.257 56.5232 73.8002 57.0329 73.6552C57.5425 73.5102 58.0871 73.5698 58.6025 73.4566C58.9296 73.3644 59.2496 73.2476 59.5598 73.107C61.1489 72.4834 62.8929 72.4496 64.5982 72.4258C64.6973 72.6625 64.7128 72.9273 64.6421 73.1745C64.5714 73.4217 64.4188 73.6359 64.2107 73.7803C64.3515 74.2076 64.3329 74.6732 64.1584 75.0872C63.9826 75.4973 63.7423 75.875 63.4472 76.2053C63.2244 76.5077 62.9375 76.7542 62.6081 76.9263C62.2635 77.0557 61.8973 77.1138 61.5306 77.0971C60.3873 77.1209 59.1626 77.1229 58.2188 76.4655C57.4844 75.9531 56.9767 75.0752 56.1259 74.817H56.3197" fill="#FFBE9D"/>
<path d="M63.7184 74.1437C63.6472 74.1601 63.5743 74.1675 63.5014 74.1655L62.9045 74.1854C62.4007 74.1973 61.705 74.2052 60.9376 74.2092H59.8524C59.69 74.2116 59.5283 74.1868 59.3737 74.1357C59.2357 74.0857 59.1151 73.9953 59.0269 73.8755C58.9898 73.826 58.9629 73.7694 58.9476 73.709C58.9323 73.6486 58.9289 73.5857 58.9377 73.524C58.9522 73.4318 58.9942 73.3465 59.0579 73.2797C59.0816 73.2511 59.1114 73.2283 59.145 73.2132C59.1785 73.198 59.215 73.1909 59.2517 73.1923C59.1854 73.2159 59.1256 73.2554 59.0773 73.3075C59.0151 73.38 58.9809 73.4732 58.9809 73.5697C58.9809 73.6662 59.0151 73.7594 59.0773 73.8318C59.1593 73.9357 59.2691 74.013 59.3931 74.0543C59.5403 74.0984 59.6933 74.1185 59.8466 74.1139H60.9298C61.705 74.1139 62.3929 74.1139 62.8968 74.1139L63.4936 74.1258C63.569 74.1216 63.6446 74.1276 63.7184 74.1437Z" fill="#EB996E"/>
<path d="M63.1332 75.125C63.0438 75.1511 62.9524 75.1691 62.86 75.1787C62.6817 75.2085 62.4239 75.2462 62.1042 75.278C61.7275 75.3167 61.3485 75.3253 60.9705 75.3038C60.5089 75.2653 60.0512 75.1869 59.6024 75.0694C58.7923 74.8668 57.9617 74.7622 57.1278 74.7576C56.808 74.7576 56.5464 74.7695 56.3701 74.7795C56.2766 74.7878 56.1826 74.7878 56.0891 74.7795C56.1797 74.7543 56.2725 74.7384 56.3662 74.7318C56.6183 74.6999 56.8719 74.6813 57.1258 74.6762C57.967 74.6583 58.8068 74.7538 59.6237 74.9602C60.0692 75.0765 60.5227 75.1575 60.9802 75.2025C61.3538 75.2287 61.7287 75.2287 62.1023 75.2025C62.422 75.1807 62.6836 75.1528 62.858 75.137C62.9491 75.1236 63.0413 75.1196 63.1332 75.125Z" fill="#EB996E"/>
<path d="M62.1856 76.1736C62.1157 76.1955 62.0435 76.2088 61.9705 76.2133C61.8329 76.2332 61.6314 76.259 61.3892 76.2809C60.7382 76.3509 60.0809 76.3289 59.4358 76.2153C58.6703 76.0664 58.0793 75.6652 57.62 75.4805C57.3723 75.3773 57.1162 75.2969 56.8546 75.2402C56.927 75.231 57.0005 75.235 57.0716 75.2521C57.2708 75.2827 57.4658 75.3367 57.653 75.4129C58.1277 75.5857 58.7188 75.9691 59.4629 76.114C60.1029 76.2249 60.7535 76.2562 61.4008 76.2074L61.9821 76.1736C62.0497 76.1659 62.118 76.1659 62.1856 76.1736Z" fill="#EB996E"/>
<g opacity="0.2">
<path d="M59.6083 70.841C59.6827 70.1128 59.8739 69.4022 60.1741 68.7377C60.4778 68.0735 60.9922 67.5344 61.6333 67.2084C61.9554 67.0507 62.3114 66.9795 62.6677 67.0018C63.024 67.024 63.369 67.1389 63.67 67.3355C63.8518 67.4556 63.9937 67.6295 64.077 67.834C64.1176 67.936 64.1299 68.0475 64.1125 68.1562C64.095 68.2649 64.0485 68.3665 63.9781 68.4497C63.765 68.6841 63.3968 68.6483 63.0906 68.6325C62.376 68.6124 61.6707 68.8026 61.0584 69.1807C60.446 69.5587 59.9522 70.1087 59.6354 70.7655" fill="black"/>
</g>
<g opacity="0.2">
<path d="M42.7799 70.2371C43.5551 68.8131 43.276 67.0276 42.685 65.5182C42.0939 64.0087 41.2122 62.6185 40.7607 61.0574C40.6757 64.224 41.1248 67.382 42.0881 70.3921" fill="black"/>
</g>
<path d="M44.1442 48.4555C44.1442 48.4555 45.084 50.7256 48.4753 50.5806C51.8665 50.4356 51.975 47.7405 51.975 47.7405L54.2443 50.2132L52.0894 54.7633L49.1942 56.9778L45.2507 55.3175L42.0009 52.7355L44.1442 48.4555Z" fill="#7A9DF6"/>
<g opacity="0.5">
<path d="M36.2029 58.1595C36.2377 58.2032 35.7959 58.6282 35.2126 59.1069C34.6293 59.5855 34.1313 59.9371 34.0964 59.8914C34.0615 59.8457 34.5034 59.4246 35.0847 58.946C35.6661 58.4673 36.168 58.1138 36.2029 58.1595Z" fill="#FAFAFA"/>
</g>
<path d="M37.7977 55.711C37.7802 55.7626 37.2454 55.6077 36.666 55.2403C36.0865 54.8728 35.7087 54.4577 35.7455 54.418C35.7823 54.3783 36.2086 54.7139 36.7706 55.0655C37.3326 55.417 37.8132 55.6553 37.7977 55.711Z" fill="#FAFAFA"/>
<path d="M40.7045 55.9769C40.751 56.0126 40.3169 56.6502 39.8344 57.4605C39.3519 58.2708 38.9779 58.9461 38.9275 58.9203C38.8771 58.8945 39.1658 58.1715 39.6639 57.3513C40.1619 56.531 40.6638 55.9411 40.7045 55.9769Z" fill="#FAFAFA"/>
<path d="M38.2163 62.8788C38.1775 62.9145 37.7299 62.4458 37.3384 61.7526C36.947 61.0595 36.7687 60.4299 36.8191 60.412C36.8694 60.3941 37.1272 60.9741 37.5128 61.6474C37.8984 62.3207 38.2608 62.839 38.2163 62.8788Z" fill="#FAFAFA"/>
<path d="M35.6157 66.2173C35.5614 66.2173 35.4471 65.7207 35.3638 65.0891C35.2805 64.4576 35.2572 63.9392 35.3115 63.9312C35.3657 63.9233 35.4801 64.4298 35.5634 65.0613C35.6467 65.6929 35.6661 66.2093 35.6157 66.2173Z" fill="#FAFAFA"/>
<g opacity="0.5">
<path d="M38.0651 67.1269C38.0167 67.0991 38.2589 66.5668 38.6213 65.9352C38.9837 65.3036 39.3034 64.821 39.3519 64.8488C39.4003 64.8766 39.1581 65.4109 38.7957 66.0405C38.4333 66.6701 38.1136 67.1487 38.0651 67.1269Z" fill="#FAFAFA"/>
</g>
<path d="M35.2204 70.5847C35.1797 70.6224 34.7475 70.1874 34.327 69.5598C33.9065 68.9322 33.6681 68.3682 33.7146 68.3384C33.7612 68.3086 34.0809 68.827 34.4898 69.4427C34.8987 70.0583 35.263 70.5469 35.2204 70.5847Z" fill="#FAFAFA"/>
<path d="M39.0864 70.0148C39.1251 70.0546 38.6794 70.5809 38.0922 71.1886C37.5051 71.7964 36.9954 72.2591 36.9547 72.2194C36.914 72.1797 37.3597 71.6534 37.9488 71.0436C38.538 70.4339 39.0457 69.9751 39.0864 70.0148Z" fill="#FAFAFA"/>
<g opacity="0.5">
<path d="M36.8889 77.1507C36.852 77.1905 36.4218 76.825 36.0304 76.249C35.6389 75.6731 35.449 75.1368 35.4955 75.115C35.5421 75.0931 35.8153 75.5758 36.197 76.1299C36.5788 76.684 36.9296 77.109 36.8889 77.1507Z" fill="#FAFAFA"/>
</g>
<path d="M41.8769 75.7069C41.904 75.7566 41.4273 76.0883 40.813 76.4477C40.1987 76.8072 39.6755 77.0595 39.6503 77.0098C39.6251 76.9602 40.0999 76.6285 40.7142 76.269C41.3285 75.9095 41.8498 75.6573 41.8769 75.7069Z" fill="#FAFAFA"/>
<path d="M43.8205 74.0625C43.7857 74.1042 43.3341 73.7506 42.9233 73.1727C42.5125 72.5947 42.3206 72.0466 42.371 72.0267C42.4214 72.0068 42.6888 72.4954 43.0861 73.0515C43.4834 73.6076 43.8612 74.0188 43.8205 74.0625Z" fill="#FAFAFA"/>
<path d="M47.2486 62.6243C47.2835 62.67 46.7699 63.1228 46.1033 63.6332C45.4367 64.1437 44.8708 64.521 44.836 64.4753C44.8011 64.4297 45.3166 63.9788 45.9832 63.4684C46.6498 62.958 47.2157 62.5806 47.2486 62.6243Z" fill="#FAFAFA"/>
<path d="M43.6365 62.3823C43.5803 62.3823 43.5899 61.8321 43.6558 61.1668C43.7217 60.5014 43.8206 59.9751 43.8768 59.9751C43.9329 59.9751 43.9233 60.5252 43.8574 61.1906C43.7915 61.8559 43.6907 62.3922 43.6365 62.3823Z" fill="#FAFAFA"/>
<g opacity="0.5">
<path d="M46.9676 57.7328C46.9366 57.7785 46.3359 57.3992 45.677 56.8212C45.0181 56.2433 44.5569 55.6971 44.5957 55.6593C44.6344 55.6216 45.1557 56.0943 45.8088 56.6643C46.4618 57.2343 47.0005 57.6852 46.9676 57.7328Z" fill="#FAFAFA"/>
</g>
<path d="M44.4658 51.9292C44.5085 51.967 44.0783 52.5509 43.5202 53.2341C42.9621 53.9173 42.4621 54.4397 42.4195 54.4039C42.3768 54.3682 42.807 53.7823 43.3651 53.099C43.9232 52.4158 44.4232 51.8935 44.4658 51.9292Z" fill="#FAFAFA"/>
<g opacity="0.5">
<path d="M41.5997 51.3077C41.5687 51.3593 41.1366 51.1309 40.5727 50.9383C40.0088 50.7456 39.5417 50.6523 39.5417 50.5927C39.5417 50.5331 40.0533 50.5371 40.6424 50.7416C41.2315 50.9462 41.6288 51.26 41.5997 51.3077Z" fill="#FAFAFA"/>
</g>
<path d="M48.8841 53.983C48.8318 53.9671 48.9229 53.4845 49.0895 52.9046C49.2562 52.3246 49.4345 51.8678 49.4771 51.8837C49.5197 51.8996 49.4403 52.3822 49.2833 52.9622C49.1264 53.5421 48.9384 54.0009 48.8841 53.983Z" fill="#FAFAFA"/>
<path d="M50.6263 58.5549C50.5701 58.5549 50.5507 58.0783 50.5837 57.4983C50.6166 56.9184 50.6883 56.4516 50.7426 56.4536C50.7968 56.4556 50.8182 56.9303 50.7852 57.5102C50.7523 58.0902 50.6806 58.5589 50.6263 58.5549Z" fill="#FAFAFA"/>
<path d="M53.4943 61.9849C53.4594 62.0305 53.035 61.7406 52.5467 61.3374C52.0584 60.9342 51.6902 60.5727 51.7251 60.529C51.7599 60.4853 52.1843 60.7733 52.6727 61.1765C53.161 61.5797 53.5234 61.9412 53.4943 61.9849Z" fill="#FAFAFA"/>
<path d="M56.5387 57.1965C56.5755 57.2382 56.1976 57.6433 55.6938 58.0981C55.19 58.553 54.752 58.8926 54.7249 58.8449C54.6977 58.7973 55.0659 58.398 55.5698 57.9432C56.0736 57.4884 56.5019 57.1528 56.5387 57.1965Z" fill="#FAFAFA"/>
<g opacity="0.5">
<path d="M55.1376 54.9343C55.1066 54.982 54.628 54.7119 54.1125 54.273C53.597 53.834 53.2482 53.4011 53.287 53.3633C53.3257 53.3256 53.7327 53.6831 54.2404 54.1121C54.7481 54.5411 55.1686 54.8867 55.1376 54.9343Z" fill="#FAFAFA"/>
</g>
<path d="M58.6606 50.9025C58.7052 50.9343 58.4668 51.3454 58.056 51.7426C57.6452 52.1399 57.2286 52.3583 57.1995 52.3107C57.1704 52.263 57.5192 51.977 57.9165 51.5937C58.3138 51.2104 58.6141 50.8628 58.6606 50.9025Z" fill="#FAFAFA"/>
<g opacity="0.5">
<path d="M56.2383 50.5251C56.2383 50.5807 55.6124 50.535 54.8818 50.3424C54.1512 50.1497 53.5776 49.8915 53.597 49.8379C53.6164 49.7843 54.2036 49.9551 54.9322 50.1418C55.6608 50.3284 56.2461 50.4655 56.2383 50.5251Z" fill="#FAFAFA"/>
</g>
<g opacity="0.5">
<path d="M60.738 56.9443C60.6857 56.9324 60.8059 56.1499 61.083 55.2323C61.3601 54.3147 61.6798 53.5958 61.7302 53.6156C61.7806 53.6355 61.548 54.3763 61.2767 55.2919C61.0054 56.2075 60.7942 56.9563 60.738 56.9443Z" fill="#FAFAFA"/>
</g>
<path d="M61.736 61.3254C61.6953 61.3632 61.2167 60.9123 60.6663 60.3145C60.116 59.7167 59.6974 59.2023 59.7458 59.1626C59.7943 59.1229 60.2632 59.5757 60.8136 60.1735C61.3639 60.7713 61.7767 61.2857 61.736 61.3254Z" fill="#FAFAFA"/>
<g opacity="0.5">
<path d="M63.2805 63.8063C63.2243 63.8063 63.1894 63.1548 63.203 62.3524C63.2166 61.5501 63.2727 60.9026 63.3289 60.9026C63.3851 60.9026 63.4181 61.554 63.4045 62.3564C63.391 63.1588 63.3348 63.8083 63.2805 63.8063Z" fill="#FAFAFA"/>
</g>
<path d="M61.7128 67.8937C61.6682 67.9255 61.2535 67.4051 60.8698 66.6782C60.4861 65.9513 60.2884 65.3098 60.3369 65.2879C60.3853 65.2661 60.6683 65.8639 61.0481 66.5769C61.4279 67.2899 61.7593 67.8599 61.7128 67.8937Z" fill="#FAFAFA"/>
<path d="M65.7144 68.6406C65.7551 68.6803 65.4858 69.0139 65.1156 69.3854C64.7455 69.7568 64.4122 70.0229 64.3734 69.9812C64.3347 69.9395 64.604 69.6058 64.9742 69.2344C65.3443 68.863 65.6757 68.5989 65.7144 68.6406Z" fill="#FAFAFA"/>
<g opacity="0.5">
<path d="M55.9709 63.983C55.9205 63.9671 56.0988 63.3157 56.5523 62.6364C57.0057 61.9572 57.5386 61.554 57.5716 61.5977C57.6045 61.6414 57.1569 62.0982 56.7189 62.7556C56.281 63.413 56.0252 64.0049 55.9709 63.983Z" fill="#FAFAFA"/>
</g>
<path d="M44.6713 69.4309C44.617 69.417 44.712 68.8351 44.8825 68.1122C45.053 67.3892 45.2391 66.8272 45.2933 66.8411C45.3476 66.855 45.2507 67.4468 45.0802 68.1618C44.9096 68.8768 44.7236 69.4449 44.6713 69.4309Z" fill="#FAFAFA"/>
<path d="M49.4248 69.9173C49.3938 69.965 48.9113 69.6969 48.3474 69.3215C47.7835 68.9461 47.3494 68.6006 47.3785 68.5529C47.4075 68.5052 47.8901 68.7714 48.4559 69.1487C49.0218 69.5261 49.4617 69.8697 49.4248 69.9173Z" fill="#FAFAFA"/>
<path d="M49.1923 66.398C49.1458 66.4297 48.9191 66.1656 48.6846 65.8021C48.4501 65.4387 48.297 65.1289 48.3454 65.0971C48.3939 65.0653 48.6187 65.3294 48.8532 65.6929C49.0876 66.0564 49.2311 66.3662 49.1923 66.398Z" fill="#FAFAFA"/>
<path d="M51.291 67.2005C51.322 67.2462 51.1185 67.4487 50.8356 67.6533C50.5526 67.8579 50.2968 67.985 50.2639 67.9393C50.231 67.8936 50.4364 67.6891 50.7193 67.4845C51.0022 67.2799 51.258 67.1488 51.291 67.2005Z" fill="#FAFAFA"/>
<g opacity="0.5">
<path d="M45.8107 81.4787C45.7545 81.4608 45.8456 81.01 45.925 80.4539C46.0045 79.8978 46.0491 79.439 46.1072 79.439C46.1653 79.439 46.208 79.9097 46.1246 80.4837C46.0413 81.0576 45.8611 81.4966 45.8107 81.4787Z" fill="#FAFAFA"/>
</g>
<g opacity="0.5">
<path d="M50.6398 79.8598C50.5914 79.8877 50.2232 79.3176 49.8182 78.5887C49.4132 77.8598 49.1225 77.2422 49.171 77.2144C49.2194 77.1866 49.5876 77.7546 49.9926 78.4855C50.3976 79.2163 50.6883 79.838 50.6398 79.8598Z" fill="#FAFAFA"/>
</g>
<g opacity="0.5">
<path d="M55.7616 77.6532C55.8062 77.687 55.3217 78.4139 54.6784 79.2759C54.035 80.1378 53.4769 80.8072 53.4323 80.7734C53.3878 80.7396 53.8742 80.0127 54.5175 79.1507C55.1609 78.2888 55.719 77.6175 55.7616 77.6532Z" fill="#FAFAFA"/>
</g>
<g opacity="0.5">
<path d="M57.2053 81.8697C57.2053 81.9253 56.5716 82.0683 55.7733 82.1855C54.9749 82.3027 54.3199 82.3543 54.3121 82.2987C54.3044 82.2431 54.9439 82.1001 55.7442 81.9809C56.5445 81.8617 57.1976 81.8121 57.2053 81.8697Z" fill="#FAFAFA"/>
</g>
<path d="M57.4282 79.7448C57.372 79.7309 57.4282 79.3078 57.4417 78.7875C57.4553 78.2671 57.4417 77.8401 57.5095 77.8321C57.5774 77.8242 57.6685 78.2532 57.6433 78.7954C57.6181 79.3376 57.4805 79.7587 57.4282 79.7448Z" fill="#FAFAFA"/>
<path d="M50.512 82.2193C50.4926 82.269 49.9674 82.0922 49.4209 81.6871C48.8745 81.2819 48.5412 80.833 48.5819 80.7993C48.6225 80.7655 49.0101 81.1329 49.5392 81.5182C50.0682 81.9036 50.5352 82.1637 50.512 82.2193Z" fill="#FAFAFA"/>
<path d="M42.2935 81.9057C42.2392 81.8918 42.2935 81.437 42.4369 80.8928C42.5803 80.3486 42.7237 79.9156 42.778 79.9295C42.8322 79.9434 42.7663 80.3963 42.6326 80.9424C42.4989 81.4886 42.3478 81.9196 42.2935 81.9057Z" fill="#FAFAFA"/>
<path d="M41.4002 31.6691C41.4118 31.6532 41.6327 31.8479 42.0377 32.0663C42.2757 32.1978 42.524 32.3088 42.7799 32.398C43.0954 32.5024 43.4198 32.5762 43.7488 32.6185C44.0778 32.6544 44.4095 32.6577 44.7391 32.6284C45.0091 32.6031 45.2764 32.5526 45.5375 32.4775C45.9832 32.3504 46.239 32.2133 46.2487 32.2312C46.1942 32.2734 46.135 32.3087 46.0723 32.3365C46.0022 32.375 45.9297 32.4088 45.8553 32.4377C45.7578 32.4802 45.6582 32.5173 45.5569 32.549C45.2938 32.6343 45.0231 32.6929 44.7488 32.7237C44.4125 32.7595 44.0735 32.7595 43.7372 32.7237C43.402 32.6812 43.072 32.6026 42.7528 32.4894C42.4927 32.3954 42.2422 32.2757 42.0048 32.1319C41.9021 32.0743 41.811 32.0087 41.7393 31.9551C41.6715 31.9093 41.6067 31.8589 41.5455 31.8042C41.4486 31.7247 41.3943 31.6751 41.4002 31.6691Z" fill="#455A64"/>
<path d="M46.4056 33.955C46.3378 33.9849 46.267 34.0069 46.1944 34.0206C46.0568 34.0563 45.8572 34.104 45.6131 34.1477C44.9582 34.2789 44.285 34.283 43.6287 34.1596C42.9669 34.0285 42.3648 33.6798 41.9137 33.1666C41.7815 33.0084 41.6719 32.8319 41.5881 32.6422C41.554 32.5749 41.5305 32.5025 41.5184 32.4277C41.6411 32.6755 41.792 32.9075 41.968 33.1189C42.4196 33.6053 43.0072 33.9363 43.65 34.0663C44.2955 34.1851 44.9559 34.1912 45.6034 34.0841C45.8534 34.0484 46.0549 34.0126 46.1847 33.9888C46.2568 33.9687 46.331 33.9574 46.4056 33.955Z" fill="#455A64"/>
<path d="M39.505 46.1099C39.4957 46.1015 39.4873 46.0921 39.4798 46.0821C39.4662 46.0622 39.441 46.0344 39.4139 45.9927C39.3388 45.8714 39.2868 45.7366 39.2608 45.5955C39.2219 45.3327 39.2398 45.0643 39.3131 44.8093C39.3865 44.5544 39.5135 44.319 39.6852 44.1198C39.9214 43.8471 40.1949 43.611 40.4972 43.4187C40.815 43.2042 41.1715 43.0076 41.5223 42.7653C41.8939 42.5243 42.2115 42.2055 42.4544 41.8298C42.5758 41.6304 42.655 41.4071 42.6869 41.1744C42.7171 40.9331 42.7046 40.6882 42.6501 40.4515C42.5229 39.9825 42.3589 39.5249 42.1598 39.083C41.9713 38.6613 41.8603 38.2075 41.8323 37.7444C41.8093 36.9556 42.0432 36.1813 42.497 35.5438C42.7919 35.1114 43.1832 34.7573 43.6384 34.511L43.8555 34.4038L44.0221 34.3442C44.0673 34.326 44.114 34.3121 44.1616 34.3025C44.1195 34.3267 44.0754 34.3473 44.0299 34.3641L43.869 34.4336L43.6578 34.5468C43.2176 34.8021 42.8404 35.1575 42.5552 35.5855C42.1211 36.214 41.8999 36.9709 41.9254 37.7404C41.955 38.1915 42.0653 38.6332 42.2509 39.0433C42.4539 39.4919 42.6205 39.9569 42.7489 40.4336C42.8046 40.6823 42.8171 40.9391 42.7858 41.1923C42.7526 41.4392 42.6687 41.6761 42.5397 41.8874C42.287 42.2748 41.9567 42.6025 41.5707 42.8487C41.2142 43.091 40.8557 43.2856 40.5398 43.4962C40.242 43.6804 39.9717 43.9078 39.7375 44.1714C39.5695 44.3623 39.4431 44.5877 39.3669 44.8326C39.2907 45.0775 39.2665 45.3362 39.2957 45.5915C39.3309 45.7769 39.4021 45.9532 39.505 46.1099Z" fill="#455A64"/>
<path d="M44.6674 46.1815C44.6276 46.1642 44.5899 46.1422 44.555 46.116C44.4541 46.0416 44.3691 45.947 44.305 45.8379C44.2052 45.6633 44.1456 45.4677 44.1306 45.2659C44.1101 44.998 44.139 44.7284 44.2159 44.4715C44.3729 43.8895 44.8476 43.3592 45.2042 42.684C45.3984 42.3401 45.4994 41.9492 45.4968 41.5519C45.477 41.1256 45.3708 40.7083 45.1848 40.3265C44.8166 39.532 44.2508 38.8925 43.8593 38.2291C43.667 37.919 43.5134 37.5854 43.402 37.2361C43.3082 36.9267 43.2759 36.6012 43.307 36.2788C43.337 35.8069 43.539 35.3638 43.8729 35.0375C43.9663 34.9562 44.0708 34.8893 44.1829 34.8389C44.2213 34.8198 44.2616 34.8052 44.3031 34.7952C44.1568 34.8694 44.0207 34.9628 43.8981 35.0732C43.587 35.4013 43.4024 35.8338 43.3787 36.2907C43.3529 36.6033 43.3885 36.918 43.4834 37.2162C43.5939 37.5599 43.7469 37.8876 43.9388 38.1914C44.1326 38.5151 44.3729 38.8389 44.6112 39.1845C44.8656 39.5342 45.0881 39.9072 45.2759 40.2987C45.4697 40.6934 45.5787 41.1262 45.5956 41.5678C45.5963 41.9814 45.49 42.3878 45.2875 42.7455C44.9155 43.4228 44.4407 43.9372 44.2837 44.5013C44.2067 44.7481 44.1739 45.0071 44.1868 45.2659C44.1975 45.4603 44.249 45.65 44.338 45.822C44.4219 45.9643 44.5341 46.0868 44.6674 46.1815Z" fill="#455A64"/>
<path d="M52.3142 31.2719C52.3142 31.2719 52.2871 31.2719 52.2405 31.2401C52.1733 31.2028 52.1086 31.161 52.0468 31.115C51.825 30.9389 51.6365 30.7229 51.4906 30.4774C51.2786 30.1147 51.099 29.7332 50.9538 29.3374C50.8647 29.1189 50.76 28.8905 50.6515 28.6661C50.5301 28.4342 50.3873 28.2147 50.2252 28.0107C49.6467 27.2908 48.8636 26.7736 47.985 26.531C47.6195 26.4408 47.2464 26.3862 46.8708 26.3682C46.9712 26.3509 47.0732 26.3449 47.175 26.3503C47.4537 26.3576 47.731 26.3942 48.0025 26.4595C48.9057 26.6869 49.7128 27.2081 50.3027 27.9451C50.47 28.1546 50.6173 28.3801 50.7426 28.6184C50.8608 28.8488 50.9538 29.0812 51.041 29.3016C51.1817 29.6943 51.3528 30.0749 51.5526 30.4397C51.6914 30.6816 51.8674 30.8989 52.0739 31.0832C52.2231 31.2123 52.32 31.2639 52.3142 31.2719Z" fill="#455A64"/>
<path d="M55.0175 31.2558C54.9822 31.2572 54.9469 31.2531 54.9128 31.2439C54.8136 31.2281 54.7163 31.2022 54.6221 31.1664C54.2736 31.0342 53.958 30.8247 53.6978 30.5527C53.3155 30.1504 52.993 29.6926 52.7405 29.1942C52.4362 28.648 52.1417 28.0204 51.6863 27.4743C51.2523 26.9638 50.6794 26.5979 50.041 26.4236C49.5193 26.2816 48.9821 26.2075 48.4423 26.2031C47.9792 26.1932 47.6052 26.2031 47.3455 26.223L47.0471 26.2349C47.0123 26.2398 46.9771 26.2398 46.9424 26.2349C46.9757 26.224 47.0102 26.218 47.0451 26.2171L47.3436 26.1853C47.6013 26.1634 47.9772 26.1316 48.4423 26.1336C48.9898 26.1261 49.5359 26.1929 50.0662 26.3322C50.7248 26.5067 51.3161 26.8821 51.7619 27.4087C52.2308 27.9708 52.5234 28.6004 52.8199 29.1505C53.0656 29.6433 53.3782 30.098 53.7482 30.5011C53.9976 30.7725 54.3 30.987 54.6357 31.1307C54.876 31.226 55.0194 31.2439 55.0175 31.2558Z" fill="#455A64"/>
<path d="M59.5927 44.1459C59.583 44.1459 59.6431 44.0048 59.7071 43.7486C59.8 43.3833 59.8392 43.0057 59.8233 42.6285C59.8049 42.0688 59.6645 41.5205 59.4125 41.0237C59.2623 40.7323 59.076 40.4619 58.8583 40.2193C58.6335 39.9631 58.3758 39.7208 58.118 39.4666C57.8578 39.2221 57.6174 38.9565 57.3991 38.6722C57.1985 38.4057 57.0252 38.1188 56.8817 37.8161C56.6403 37.3024 56.4856 36.7503 56.4243 36.1836C56.3816 35.8026 56.3855 35.4176 56.436 35.0376C56.447 34.9346 56.4645 34.8324 56.4883 34.7317C56.4934 34.6955 56.5032 34.6601 56.5174 34.6265C56.527 34.6265 56.496 34.7754 56.4747 35.0435C56.4395 35.4198 56.446 35.7989 56.4941 36.1736C56.5666 36.7296 56.7256 37.2701 56.965 37.7744C57.1081 38.0698 57.2795 38.3499 57.4766 38.6106C57.6934 38.8876 57.9305 39.1472 58.1858 39.3872C58.4455 39.6414 58.7032 39.8857 58.9319 40.1478C59.154 40.3974 59.3429 40.6758 59.4939 40.976C59.7482 41.4864 59.8854 42.0495 59.895 42.6225C59.9043 43.0063 59.854 43.3891 59.7458 43.7566C59.7176 43.8565 59.682 43.9542 59.6392 44.0485C59.6286 44.0832 59.6129 44.116 59.5927 44.1459Z" fill="#455A64"/>
<path d="M38.3636 31.0991C38.3631 31.032 38.3716 30.9652 38.3887 30.9005C38.4279 30.7278 38.4899 30.5615 38.5728 30.4059C38.7114 30.1421 38.9028 29.9112 39.1345 29.7284C39.3662 29.5457 39.633 29.4153 39.9174 29.3457C40.2018 29.2761 40.4973 29.2689 40.7846 29.3247C41.0719 29.3804 41.3444 29.4978 41.5843 29.6691C41.7294 29.7679 41.86 29.8877 41.9718 30.0246C42.0166 30.0723 42.0533 30.1274 42.0804 30.1875C41.9165 30.0175 41.7367 29.8645 41.5436 29.7307C41.3092 29.5744 41.0462 29.4686 40.7706 29.4199C40.495 29.3711 40.2127 29.3804 39.9407 29.4471C39.6687 29.5138 39.4129 29.6366 39.1887 29.8079C38.9645 29.9792 38.7767 30.1956 38.6368 30.4437C38.5253 30.6526 38.4338 30.8721 38.3636 31.0991Z" fill="#455A64"/>
<path d="M40.2414 31.9354C40.24 31.7833 40.2582 31.6317 40.2956 31.4846C40.3552 31.1161 40.5143 30.7721 40.7549 30.4915C40.8867 30.3562 41.0518 30.2601 41.2326 30.2132C41.4134 30.1663 41.6033 30.1705 41.7819 30.2254C41.8893 30.2652 41.9843 30.3338 42.0571 30.424C42.1056 30.4875 42.1191 30.5312 42.1153 30.5332C42.0165 30.4283 41.895 30.3487 41.7606 30.3008C41.5954 30.2605 41.4228 30.2641 41.2593 30.3114C41.0959 30.3587 40.9469 30.448 40.8266 30.5709C40.5996 30.8403 40.4412 31.1631 40.3654 31.5104C40.3368 31.6556 40.2952 31.7979 40.2414 31.9354Z" fill="#455A64"/>
<path d="M42.7043 29.0256C42.51 29.3738 42.3397 29.7355 42.1947 30.1081C42.0826 30.4918 41.9946 30.8826 41.9311 31.2779C41.8883 30.4515 42.1671 29.6415 42.7063 29.0256H42.7043Z" fill="#7A9DF6"/>
<path d="M73.7062 33.8677C73.7062 33.9898 73.7415 34.1093 73.8077 34.2108C73.874 34.3124 73.9681 34.3916 74.0782 34.4383C74.1883 34.4851 74.3095 34.4973 74.4264 34.4735C74.5433 34.4497 74.6507 34.3908 74.735 34.3044C74.8193 34.2181 74.8767 34.108 74.8999 33.9882C74.9232 33.8684 74.9113 33.7442 74.8656 33.6313C74.82 33.5184 74.7428 33.422 74.6437 33.3541C74.5446 33.2862 74.428 33.25 74.3088 33.25C74.2297 33.25 74.1513 33.266 74.0782 33.297C74.0051 33.3281 73.9387 33.3736 73.8827 33.4309C73.8267 33.4883 73.7823 33.5564 73.752 33.6313C73.7218 33.7062 73.7062 33.7866 73.7062 33.8677Z" fill="#455A64"/>
<path d="M71.8942 34.4854C72.2271 34.4854 72.4969 34.2088 72.4969 33.8677C72.4969 33.5265 72.2271 33.25 71.8942 33.25C71.5614 33.25 71.2916 33.5265 71.2916 33.8677C71.2916 34.2088 71.5614 34.4854 71.8942 34.4854Z" fill="#455A64"/>
<path d="M68.8848 33.558C68.8253 33.6638 68.7977 33.7854 68.8056 33.9072C68.8134 34.0291 68.8564 34.1459 68.929 34.2427C69.0016 34.3396 69.1006 34.4122 69.2134 34.4514C69.3263 34.4906 69.448 34.4947 69.5631 34.463C69.6782 34.4314 69.7815 34.3655 69.8601 34.2737C69.9387 34.1818 69.9889 34.0682 70.0045 33.9471C70.02 33.826 70.0002 33.7029 69.9475 33.5933C69.8948 33.4838 69.8116 33.3927 69.7084 33.3316C69.6398 33.291 69.5641 33.2647 69.4856 33.2541C69.4071 33.2435 69.3273 33.2488 69.2508 33.2699C69.1743 33.2909 69.1026 33.3272 69.0398 33.3766C68.977 33.426 68.9243 33.4877 68.8848 33.558Z" fill="#455A64"/>
<path d="M71.8575 26.6481C71.8169 26.6433 71.7759 26.6433 71.7354 26.6481L71.3769 26.658C71.2994 26.658 71.2102 26.658 71.1133 26.67L70.7975 26.7156L70.4293 26.7693L70.0165 26.8745C69.3109 27.0583 68.6394 27.3588 68.0283 27.7643C67.12 28.3567 66.3561 29.1541 65.7948 30.0956C65.2336 31.0371 64.8899 32.0977 64.7901 33.1963C64.762 33.5265 64.7556 33.8583 64.7707 34.1894C64.7824 34.3582 64.7707 34.527 64.8017 34.6958L64.8773 35.2062C65.0037 35.9081 65.2296 36.5873 65.5478 37.2221C65.8892 37.8853 66.3219 38.4946 66.8326 39.0315C67.3771 39.5809 68.0014 40.0405 68.6833 40.3939C69.3875 40.7629 70.1498 41.0015 70.935 41.099C71.1346 41.1298 71.3359 41.1478 71.5377 41.1526C71.7398 41.1636 71.9422 41.1636 72.1443 41.1526C72.5542 41.1359 72.9619 41.0834 73.3632 40.9957C74.2242 40.8069 75.0435 40.456 75.7797 39.961H75.706L78.1749 40.9779L78.3221 41.0374L78.2795 40.8825C78.0315 39.953 77.7873 39.0493 77.5548 38.1755L77.5412 38.243C78.212 37.333 78.6635 36.2734 78.8589 35.1506C78.9537 34.627 78.9863 34.0934 78.9558 33.5617C78.9508 33.3067 78.9268 33.0524 78.8841 32.8011C78.8667 32.6759 78.8473 32.5528 78.8299 32.4297C78.8124 32.3065 78.7698 32.1913 78.7427 32.0722C78.3294 30.4084 77.3528 28.9492 75.987 27.955C75.483 27.5837 74.9313 27.2856 74.3476 27.0692L73.9794 26.9341L73.6287 26.8428L73.307 26.7613C73.2043 26.7395 73.1132 26.7295 73.0124 26.7156C72.8186 26.6898 72.6617 26.658 72.5183 26.6501L72.154 26.6382H71.933C71.8827 26.6382 71.8575 26.6382 71.8575 26.6382H71.933L72.154 26.6561L72.5144 26.6799C72.6559 26.6918 72.8186 26.7295 73.0047 26.7574C74.3452 26.9938 75.5899 27.6242 76.5876 28.5719C77.5852 29.5196 78.2928 30.7439 78.6244 32.096C78.6516 32.2132 78.6865 32.3284 78.7078 32.4475C78.7291 32.5667 78.7427 32.6898 78.762 32.811C78.8011 33.0587 78.8224 33.3089 78.826 33.5598C78.8544 34.079 78.8212 34.5999 78.7272 35.1109C78.5308 36.2155 78.0833 37.2572 77.421 38.1516L77.3997 38.1814L77.4094 38.2192C77.642 39.093 77.8816 39.9954 78.1284 40.9262L78.233 40.8309L75.7661 39.812L75.7274 39.7961L75.6905 39.82C74.9691 40.3078 74.1654 40.6539 73.3205 40.8408C72.9289 40.9268 72.5309 40.9786 72.1307 40.9957C71.9323 41.0037 71.7337 40.9997 71.5358 40.9838C71.3412 40.9799 71.147 40.9633 70.9544 40.9342C70.1856 40.8374 69.4393 40.6035 68.7491 40.243C67.4276 39.5729 66.3504 38.4863 65.6757 37.1427C65.3594 36.5231 65.1335 35.8593 65.0052 35.1725C64.98 35.0037 64.9548 34.8388 64.9316 34.672C64.9083 34.5051 64.9103 34.3403 64.8967 34.1754C64.8814 33.8517 64.8866 33.5273 64.9122 33.2042C65.0066 32.1237 65.3398 31.0793 65.8864 30.1502C66.4329 29.2211 67.1787 28.4317 68.067 27.8418C68.6701 27.4328 69.3336 27.1263 70.032 26.9341L70.439 26.8229L70.8052 26.7613L71.1172 26.7077C71.2141 26.7077 71.3013 26.6958 71.3788 26.6878L71.7354 26.662C71.7764 26.6609 71.8172 26.6562 71.8575 26.6481Z" fill="#455A64"/>
</svg>
