<svg width="140" height="85" viewBox="0 0 140 85" fill="none" xmlns="http://www.w3.org/2000/svg">
<rect width="140" height="85" rx="12" fill="#FFF5F2"/>
<path opacity="0.3" d="M128.417 53.0135H120.098V35.8672H105.135V46.392H103.356V51.3402H98.3011V59.1287H96.3448V60.7069H93.0357V49.6561H86.9617V83.4423H126.843" stroke="black" stroke-width="0.5" stroke-linecap="round" stroke-linejoin="round"/>
<path opacity="0.3" d="M89.5676 51.3135H87.9916V52.8988H89.5676V51.3135Z" stroke="black" stroke-width="0.5" stroke-linecap="round" stroke-linejoin="round"/>
<path opacity="0.3" d="M92.0433 51.3135H90.4673V52.8988H92.0433V51.3135Z" stroke="black" stroke-width="0.5" stroke-linecap="round" stroke-linejoin="round"/>
<path opacity="0.3" d="M89.5676 54.2559H87.9916V55.8412H89.5676V54.2559Z" stroke="black" stroke-width="0.5" stroke-linecap="round" stroke-linejoin="round"/>
<path opacity="0.3" d="M92.0433 54.2559H90.4673V55.8412H92.0433V54.2559Z" stroke="black" stroke-width="0.5" stroke-linecap="round" stroke-linejoin="round"/>
<path opacity="0.3" d="M89.5676 57.4268H87.9916V59.0121H89.5676V57.4268Z" stroke="black" stroke-width="0.5" stroke-linecap="round" stroke-linejoin="round"/>
<path opacity="0.3" d="M92.0433 57.4268H90.4673V59.0121H92.0433V57.4268Z" stroke="black" stroke-width="0.5" stroke-linecap="round" stroke-linejoin="round"/>
<path opacity="0.3" d="M89.5676 60.3696H87.9916V61.955H89.5676V60.3696Z" stroke="black" stroke-width="0.5" stroke-linecap="round" stroke-linejoin="round"/>
<path opacity="0.3" d="M92.0433 60.3696H90.4673V61.955H92.0433V60.3696Z" stroke="black" stroke-width="0.5" stroke-linecap="round" stroke-linejoin="round"/>
<path opacity="0.3" d="M89.5676 63.5403H87.9916V65.1256H89.5676V63.5403Z" stroke="black" stroke-width="0.5" stroke-linecap="round" stroke-linejoin="round"/>
<path opacity="0.3" d="M92.0433 63.5403H90.4673V65.1256H92.0433V63.5403Z" stroke="black" stroke-width="0.5" stroke-linecap="round" stroke-linejoin="round"/>
<path opacity="0.3" d="M89.5676 66.4829H87.9916V68.0683H89.5676V66.4829Z" stroke="black" stroke-width="0.5" stroke-linecap="round" stroke-linejoin="round"/>
<path opacity="0.3" d="M92.0433 66.4829H90.4673V68.0683H92.0433V66.4829Z" stroke="black" stroke-width="0.5" stroke-linecap="round" stroke-linejoin="round"/>
<path opacity="0.3" d="M106.786 38.2946H115.225L116.239 37.729H118.827" stroke="black" stroke-width="0.5" stroke-linecap="round" stroke-linejoin="round"/>
<path opacity="0.3" d="M106.786 39.889H115.225L116.239 39.3235H118.827" stroke="black" stroke-width="0.5" stroke-linecap="round" stroke-linejoin="round"/>
<path opacity="0.3" d="M106.786 41.4835H115.225L116.239 40.918H118.827" stroke="black" stroke-width="0.5" stroke-linecap="round" stroke-linejoin="round"/>
<path opacity="0.3" d="M106.786 43.0778H115.225L116.239 42.5122H118.827" stroke="black" stroke-width="0.5" stroke-linecap="round" stroke-linejoin="round"/>
<path opacity="0.3" d="M106.786 44.6743H115.225L116.239 44.1069H118.827" stroke="black" stroke-width="0.5" stroke-linecap="round" stroke-linejoin="round"/>
<path opacity="0.3" d="M106.786 46.2682H115.225L116.239 45.7026H118.827" stroke="black" stroke-width="0.5" stroke-linecap="round" stroke-linejoin="round"/>
<path opacity="0.3" d="M106.786 47.8627H115.225L116.239 47.2971H118.827" stroke="black" stroke-width="0.5" stroke-linecap="round" stroke-linejoin="round"/>
<path opacity="0.3" d="M106.786 49.4572H115.225L116.239 48.8916H118.827" stroke="black" stroke-width="0.5" stroke-linecap="round" stroke-linejoin="round"/>
<path opacity="0.3" d="M106.786 51.0509H115.225L116.239 50.4854H118.827" stroke="black" stroke-width="0.5" stroke-linecap="round" stroke-linejoin="round"/>
<path opacity="0.3" d="M106.786 52.6456H115.225L116.239 52.0801H118.827" stroke="black" stroke-width="0.5" stroke-linecap="round" stroke-linejoin="round"/>
<path opacity="0.3" d="M106.786 54.2399H115.225L116.239 53.6743H118.827" stroke="black" stroke-width="0.5" stroke-linecap="round" stroke-linejoin="round"/>
<path opacity="0.3" d="M106.786 55.8359H115.225L116.239 55.2686H118.827" stroke="black" stroke-width="0.5" stroke-linecap="round" stroke-linejoin="round"/>
<path opacity="0.3" d="M106.786 57.4304H115.225L116.239 56.863H118.827" stroke="black" stroke-width="0.5" stroke-linecap="round" stroke-linejoin="round"/>
<path opacity="0.3" d="M106.786 59.0245H115.225L116.239 58.459H118.827" stroke="black" stroke-width="0.5" stroke-linecap="round" stroke-linejoin="round"/>
<path opacity="0.3" d="M106.786 60.619H115.225L116.239 60.0535H118.827" stroke="black" stroke-width="0.5" stroke-linecap="round" stroke-linejoin="round"/>
<path opacity="0.3" d="M106.786 62.2135H115.225L116.239 61.6479H118.827" stroke="black" stroke-width="0.5" stroke-linecap="round" stroke-linejoin="round"/>
<path opacity="0.3" d="M13.4836 51.3135H11.9076V52.8988H13.4836V51.3135Z" stroke="black" stroke-width="0.5" stroke-linecap="round" stroke-linejoin="round"/>
<path opacity="0.3" d="M15.9592 51.3135H14.3832V52.8988H15.9592V51.3135Z" stroke="black" stroke-width="0.5" stroke-linecap="round" stroke-linejoin="round"/>
<path opacity="0.3" d="M13.4836 54.2559H11.9076V55.8412H13.4836V54.2559Z" stroke="black" stroke-width="0.5" stroke-linecap="round" stroke-linejoin="round"/>
<path opacity="0.3" d="M15.9592 54.2559H14.3832V55.8412H15.9592V54.2559Z" stroke="black" stroke-width="0.5" stroke-linecap="round" stroke-linejoin="round"/>
<path opacity="0.3" d="M13.4836 57.4268H11.9076V59.0121H13.4836V57.4268Z" stroke="black" stroke-width="0.5" stroke-linecap="round" stroke-linejoin="round"/>
<path opacity="0.3" d="M15.9592 57.4268H14.3832V59.0121H15.9592V57.4268Z" stroke="black" stroke-width="0.5" stroke-linecap="round" stroke-linejoin="round"/>
<path opacity="0.3" d="M13.4836 60.3696H11.9076V61.955H13.4836V60.3696Z" stroke="black" stroke-width="0.5" stroke-linecap="round" stroke-linejoin="round"/>
<path opacity="0.3" d="M15.9592 60.3696H14.3832V61.955H15.9592V60.3696Z" stroke="black" stroke-width="0.5" stroke-linecap="round" stroke-linejoin="round"/>
<path opacity="0.3" d="M13.4836 63.5403H11.9076V65.1256H13.4836V63.5403Z" stroke="black" stroke-width="0.5" stroke-linecap="round" stroke-linejoin="round"/>
<path opacity="0.3" d="M15.9592 63.5403H14.3832V65.1256H15.9592V63.5403Z" stroke="black" stroke-width="0.5" stroke-linecap="round" stroke-linejoin="round"/>
<path opacity="0.3" d="M13.4836 66.4829H11.9076V68.0683H13.4836V66.4829Z" stroke="black" stroke-width="0.5" stroke-linecap="round" stroke-linejoin="round"/>
<path opacity="0.3" d="M15.9592 66.4829H14.3832V68.0683H15.9592V66.4829Z" stroke="black" stroke-width="0.5" stroke-linecap="round" stroke-linejoin="round"/>
<path opacity="0.3" d="M30.7006 38.2946H39.1413L40.1533 37.729H42.7432" stroke="black" stroke-width="0.5" stroke-linecap="round" stroke-linejoin="round"/>
<path opacity="0.3" d="M30.7006 39.889H39.1413L40.1533 39.3235H42.7432" stroke="black" stroke-width="0.5" stroke-linecap="round" stroke-linejoin="round"/>
<path opacity="0.3" d="M30.7006 41.4835H39.1413L40.1533 40.918H42.7432" stroke="black" stroke-width="0.5" stroke-linecap="round" stroke-linejoin="round"/>
<path opacity="0.3" d="M30.7006 43.0778H39.1413L40.1533 42.5122H42.7432" stroke="black" stroke-width="0.5" stroke-linecap="round" stroke-linejoin="round"/>
<path opacity="0.3" d="M30.7006 44.6743H39.1413L40.1533 44.1069H42.7432" stroke="black" stroke-width="0.5" stroke-linecap="round" stroke-linejoin="round"/>
<path opacity="0.3" d="M30.7006 46.2682H39.1413L40.1533 45.7026H42.7432" stroke="black" stroke-width="0.5" stroke-linecap="round" stroke-linejoin="round"/>
<path opacity="0.3" d="M30.7006 47.8627H39.1413L40.1533 47.2971H42.7432" stroke="black" stroke-width="0.5" stroke-linecap="round" stroke-linejoin="round"/>
<path opacity="0.3" d="M30.7006 49.4572H39.1413L40.1533 48.8916H42.7432" stroke="black" stroke-width="0.5" stroke-linecap="round" stroke-linejoin="round"/>
<path opacity="0.3" d="M30.7006 51.0509H39.1413L40.1533 50.4854H42.7432" stroke="black" stroke-width="0.5" stroke-linecap="round" stroke-linejoin="round"/>
<path opacity="0.3" d="M30.7006 52.6456H39.1413L40.1533 52.0801H42.7432" stroke="black" stroke-width="0.5" stroke-linecap="round" stroke-linejoin="round"/>
<path opacity="0.3" d="M30.7006 54.2399H39.1413L40.1533 53.6743H42.7432" stroke="black" stroke-width="0.5" stroke-linecap="round" stroke-linejoin="round"/>
<path opacity="0.3" d="M30.7006 55.8359H39.1413L40.1533 55.2686H42.7432" stroke="black" stroke-width="0.5" stroke-linecap="round" stroke-linejoin="round"/>
<path opacity="0.3" d="M30.7006 57.4304H39.1413L40.1533 56.863H42.7432" stroke="black" stroke-width="0.5" stroke-linecap="round" stroke-linejoin="round"/>
<path opacity="0.3" d="M30.7006 59.0245H39.1413L40.1533 58.459H42.7432" stroke="black" stroke-width="0.5" stroke-linecap="round" stroke-linejoin="round"/>
<path opacity="0.3" d="M30.7006 60.619H39.1413L40.1533 60.0535H42.7432" stroke="black" stroke-width="0.5" stroke-linecap="round" stroke-linejoin="round"/>
<path opacity="0.3" d="M30.7006 62.2135H39.1413L40.1533 61.6479H42.7432" stroke="black" stroke-width="0.5" stroke-linecap="round" stroke-linejoin="round"/>
<path opacity="0.3" d="M50.4109 83.4425H85.8354V57.1287H81.3375V36.6034H75.0583V47.3401H70.8728V48.3922H71.9187V56.9187H63.2335V35.5908H56.642V53.0136H53.7719H49.4775H44.0139V35.8673H29.0495V46.3921H27.2718V51.3403H22.2152V59.1288H20.2608V60.707H16.9516V49.6562H10.8759V83.4425H50.7572" stroke="black" stroke-width="0.5" stroke-linecap="round" stroke-linejoin="round"/>
<path opacity="0.3" d="M72.8933 49.3889H77.0575" stroke="black" stroke-width="0.5" stroke-linecap="round" stroke-linejoin="round"/>
<path opacity="0.3" d="M75.4815 38.1816H77.5073" stroke="black" stroke-width="0.5" stroke-linecap="round" stroke-linejoin="round"/>
<path opacity="0.3" d="M75.4815 39.7671H77.5073" stroke="black" stroke-width="0.5" stroke-linecap="round" stroke-linejoin="round"/>
<path opacity="0.3" d="M75.4815 41.3525H77.5073" stroke="black" stroke-width="0.5" stroke-linecap="round" stroke-linejoin="round"/>
<path opacity="0.3" d="M75.4815 42.936H77.5073" stroke="black" stroke-width="0.5" stroke-linecap="round" stroke-linejoin="round"/>
<path opacity="0.3" d="M75.4815 44.5212H77.5073" stroke="black" stroke-width="0.5" stroke-linecap="round" stroke-linejoin="round"/>
<path opacity="0.3" d="M75.4815 46.1064H77.5073" stroke="black" stroke-width="0.5" stroke-linecap="round" stroke-linejoin="round"/>
<path opacity="0.3" d="M72.8933 50.9741H77.0575" stroke="black" stroke-width="0.5" stroke-linecap="round" stroke-linejoin="round"/>
<path opacity="0.3" d="M72.8933 52.5593H77.0575" stroke="black" stroke-width="0.5" stroke-linecap="round" stroke-linejoin="round"/>
<path opacity="0.3" d="M72.8933 54.1431H77.0575" stroke="black" stroke-width="0.5" stroke-linecap="round" stroke-linejoin="round"/>
<path opacity="0.3" d="M72.8933 55.7285H77.0575" stroke="black" stroke-width="0.5" stroke-linecap="round" stroke-linejoin="round"/>
<path opacity="0.3" d="M72.8933 57.3137H77.0575" stroke="black" stroke-width="0.5" stroke-linecap="round" stroke-linejoin="round"/>
<path opacity="0.3" d="M78.6317 37.729V66.3696" stroke="black" stroke-width="0.5" stroke-linecap="round" stroke-linejoin="round"/>
<path opacity="0.3" d="M79.5331 37.729V66.3696" stroke="black" stroke-width="0.5" stroke-linecap="round" stroke-linejoin="round"/>
<path opacity="0.3" d="M80.4326 37.729V66.3696" stroke="black" stroke-width="0.5" stroke-linecap="round" stroke-linejoin="round"/>
<path opacity="0.3" d="M59.3889 36.8242H57.8128V38.4096H59.3889V36.8242Z" stroke="black" stroke-width="0.5" stroke-linecap="round" stroke-linejoin="round"/>
<path opacity="0.3" d="M61.8645 36.8242H60.2885V38.4096H61.8645V36.8242Z" stroke="black" stroke-width="0.5" stroke-linecap="round" stroke-linejoin="round"/>
<path opacity="0.3" d="M59.3889 39.7671H57.8128V41.3525H59.3889V39.7671Z" stroke="black" stroke-width="0.5" stroke-linecap="round" stroke-linejoin="round"/>
<path opacity="0.3" d="M61.8645 39.7671H60.2885V41.3525H61.8645V39.7671Z" stroke="black" stroke-width="0.5" stroke-linecap="round" stroke-linejoin="round"/>
<path opacity="0.3" d="M59.3889 42.7097H57.8128V44.2951H59.3889V42.7097Z" stroke="black" stroke-width="0.5" stroke-linecap="round" stroke-linejoin="round"/>
<path opacity="0.3" d="M61.8645 42.7097H60.2885V44.2951H61.8645V42.7097Z" stroke="black" stroke-width="0.5" stroke-linecap="round" stroke-linejoin="round"/>
<path opacity="0.3" d="M59.3889 45.6523H57.8128V47.2377H59.3889V45.6523Z" stroke="black" stroke-width="0.5" stroke-linecap="round" stroke-linejoin="round"/>
<path opacity="0.3" d="M61.8645 45.6523H60.2885V47.2377H61.8645V45.6523Z" stroke="black" stroke-width="0.5" stroke-linecap="round" stroke-linejoin="round"/>
<path opacity="0.3" d="M59.3889 48.5967H57.8128V50.182H59.3889V48.5967Z" stroke="black" stroke-width="0.5" stroke-linecap="round" stroke-linejoin="round"/>
<path opacity="0.3" d="M61.8645 48.5967H60.2885V50.182H61.8645V48.5967Z" stroke="black" stroke-width="0.5" stroke-linecap="round" stroke-linejoin="round"/>
<path opacity="0.3" d="M59.3889 51.5396H57.8128V53.1249H59.3889V51.5396Z" stroke="black" stroke-width="0.5" stroke-linecap="round" stroke-linejoin="round"/>
<path opacity="0.3" d="M61.8645 51.5396H60.2885V53.1249H61.8645V51.5396Z" stroke="black" stroke-width="0.5" stroke-linecap="round" stroke-linejoin="round"/>
<path opacity="0.3" d="M59.3889 54.4824H57.8128V56.0678H59.3889V54.4824Z" stroke="black" stroke-width="0.5" stroke-linecap="round" stroke-linejoin="round"/>
<path opacity="0.3" d="M61.8645 54.4824H60.2885V56.0678H61.8645V54.4824Z" stroke="black" stroke-width="0.5" stroke-linecap="round" stroke-linejoin="round"/>
<path opacity="0.3" d="M59.3889 57.4268H57.8128V59.0121H59.3889V57.4268Z" stroke="black" stroke-width="0.5" stroke-linecap="round" stroke-linejoin="round"/>
<path opacity="0.3" d="M61.8645 57.4268H60.2885V59.0121H61.8645V57.4268Z" stroke="black" stroke-width="0.5" stroke-linecap="round" stroke-linejoin="round"/>
<path opacity="0.3" d="M59.3889 60.3696H57.8128V61.955H59.3889V60.3696Z" stroke="black" stroke-width="0.5" stroke-linecap="round" stroke-linejoin="round"/>
<path opacity="0.3" d="M61.8645 60.3696H60.2885V61.955H61.8645V60.3696Z" stroke="black" stroke-width="0.5" stroke-linecap="round" stroke-linejoin="round"/>
<path d="M11.3917 67.2962C11.3917 67.2962 15.4202 67.6966 17.4603 70.2084C17.4603 70.2084 19.6182 67.298 23.4932 67.3573C24.4402 66.2081 25.0431 64.8121 25.2318 63.3316C25.4206 61.8511 25.1873 60.3472 24.5593 58.9949C23.9312 57.6426 22.9342 56.4976 21.6843 55.6932C20.4344 54.8888 18.983 54.4581 17.4992 54.4513C16.0154 54.4444 14.5602 54.8617 13.303 55.6546C12.0458 56.4475 11.0384 57.5833 10.3981 58.9298C9.75781 60.2762 9.51091 61.778 9.68618 63.2601C9.86146 64.7423 10.4517 66.1438 11.3882 67.3016L11.3917 67.2962Z" fill="black"/>
<path opacity="0.82" d="M11.3917 67.2962C11.3917 67.2962 15.4202 67.6966 17.4603 70.2084C17.4603 70.2084 19.6182 67.298 23.4932 67.3573C24.4402 66.2081 25.0431 64.8121 25.2318 63.3316C25.4206 61.8511 25.1873 60.3472 24.5593 58.9949C23.9312 57.6426 22.9342 56.4976 21.6843 55.6932C20.4344 54.8888 18.983 54.4581 17.4992 54.4513C16.0154 54.4444 14.5602 54.8617 13.303 55.6546C12.0458 56.4475 11.0384 57.5833 10.3981 58.9298C9.75781 60.2762 9.51091 61.778 9.68618 63.2601C9.86146 64.7423 10.4517 66.1438 11.3882 67.3016L11.3917 67.2962Z" fill="white"/>
<path d="M21.3424 62.7392C21.3424 62.7392 18.9328 63.3137 17.5942 65.2617L17.5192 62.4286V62.4663C17.5192 62.4663 18.8793 60.0029 21.3281 59.2507C21.3281 59.2507 18.8061 59.8521 17.4996 61.9115L17.3211 58.0962L17.264 63.5633C15.9824 61.6062 13.6478 61.0281 13.6478 61.0281C15.7093 61.6852 16.9712 63.6441 17.2586 64.1324L17.2408 66.9512C15.9556 65.0194 13.6478 64.4484 13.6478 64.4484C15.6611 65.0912 16.9106 66.971 17.2372 67.515L17.2086 83.4943H17.8387L17.6995 69.156C18.1386 68.4881 19.3933 66.822 21.3335 66.2241C21.3335 66.2241 19.0292 66.7735 17.6852 68.6192L17.6102 65.8075C17.9494 65.2779 19.247 63.3837 21.3424 62.7392Z" fill="#263238"/>
<path d="M21.3424 62.7392C21.3424 62.7392 18.9328 63.3137 17.5942 65.2617L17.5192 62.4286V62.4663C17.5192 62.4663 18.8793 60.0029 21.3281 59.2507C21.3281 59.2507 18.8061 59.8521 17.4996 61.9115L17.3211 58.0962L17.264 63.5633C15.9824 61.6062 13.6478 61.0281 13.6478 61.0281C15.7093 61.6852 16.9712 63.6441 17.2586 64.1324L17.2408 66.9512C15.9556 65.0194 13.6478 64.4484 13.6478 64.4484C15.6611 65.0912 16.9106 66.971 17.2372 67.515L17.2086 83.4943H17.8387L17.6995 69.156C18.1386 68.4881 19.3933 66.822 21.3335 66.2241C21.3335 66.2241 19.0292 66.7735 17.6852 68.6192L17.6102 65.8075C17.9494 65.2779 19.247 63.3837 21.3424 62.7392Z" fill="#999999"/>
<path d="M120.848 72.8889C120.848 72.8889 123.486 73.1511 124.823 74.7975C124.823 74.7975 126.234 72.8907 128.772 72.9302C129.392 72.1778 129.787 71.2637 129.91 70.2944C130.034 69.3251 129.881 68.3405 129.469 67.4552C129.058 66.5699 128.405 65.8204 127.587 65.2938C126.769 64.7673 125.818 64.4854 124.847 64.481C123.875 64.4766 122.923 64.7499 122.1 65.269C121.277 65.7881 120.617 66.5317 120.198 67.4132C119.779 68.2947 119.617 69.2779 119.732 70.2483C119.846 71.2186 120.233 72.1363 120.846 72.8943L120.848 72.8889Z" fill="black"/>
<path opacity="0.82" d="M120.848 72.8889C120.848 72.8889 123.486 73.1511 124.823 74.7975C124.823 74.7975 126.234 72.8907 128.772 72.9302C129.392 72.1778 129.787 71.2637 129.91 70.2944C130.034 69.3251 129.881 68.3405 129.469 67.4552C129.058 66.5699 128.405 65.8204 127.587 65.2938C126.769 64.7673 125.818 64.4854 124.847 64.481C123.875 64.4766 122.923 64.7499 122.1 65.269C121.277 65.7881 120.617 66.5317 120.198 67.4132C119.779 68.2947 119.617 69.2779 119.732 70.2483C119.846 71.2186 120.233 72.1363 120.846 72.8943L120.848 72.8889Z" fill="white"/>
<path d="M127.362 69.9086C127.362 69.9086 125.785 70.2839 124.914 71.5586L124.865 69.704V69.7291C124.865 69.7291 125.758 68.1132 127.364 67.6231C127.364 67.6231 125.713 68.0181 124.865 69.3646L124.744 66.8672L124.698 70.4473C123.859 69.1653 122.331 68.7883 122.331 68.7883C123.68 69.2174 124.507 70.5011 124.694 70.8207L124.682 72.6646C123.841 71.4078 122.331 71.0272 122.331 71.0272C123.648 71.4473 124.473 72.679 124.68 73.0345L124.662 83.5H125.074L124.983 74.1117C125.271 73.6736 126.092 72.582 127.362 72.1924C127.362 72.1924 125.854 72.5515 124.974 73.7598L124.924 71.9195C125.14 71.5676 125.99 70.327 127.362 69.9086Z" fill="#263238"/>
<path d="M127.362 69.9086C127.362 69.9086 125.785 70.2839 124.914 71.5586L124.865 69.704V69.7291C124.865 69.7291 125.758 68.1132 127.364 67.6231C127.364 67.6231 125.713 68.0181 124.865 69.3646L124.744 66.8672L124.698 70.4473C123.859 69.1653 122.331 68.7883 122.331 68.7883C123.68 69.2174 124.507 70.5011 124.694 70.8207L124.682 72.6646C123.841 71.4078 122.331 71.0272 122.331 71.0272C123.648 71.4473 124.473 72.679 124.68 73.0345L124.662 83.5H125.074L124.983 74.1117C125.271 73.6736 126.092 72.582 127.362 72.1924C127.362 72.1924 125.854 72.5515 124.974 73.7598L124.924 71.9195C125.14 71.5676 125.99 70.327 127.362 69.9086Z" fill="#999999"/>
<path d="M17.5995 57.2597C17.5995 57.2597 17.3407 56.6708 17.0801 56.4751C16.8195 56.2794 16.7553 55.5577 16.9498 55.1663C17.1444 54.7749 16.4286 54.3799 16.4286 54.3799C16.8494 53.5405 17.4491 52.8049 18.185 52.2254C19.4219 51.2361 19.5272 50.2989 19.7057 49.4263C19.8842 48.5537 19.8842 48.033 20.923 47.5088C21.9618 46.9845 23.2665 46.5267 23.4611 46.0042L23.6556 45.48C23.6556 45.48 23.395 46.9163 22.8096 47.2467C22.2241 47.577 21.2496 48.2952 21.2496 48.683C21.2496 49.0708 21.3138 49.7962 21.3138 49.7962C21.3138 49.7962 21.4441 48.5519 22.5508 48.5519C23.6574 48.5519 24.5677 48.8141 24.8265 48.0295C24.9896 47.5187 25.0991 46.9922 25.1531 46.4585L25.9974 45.085C25.9974 45.085 25.4119 46.4585 25.6083 47.2395C25.8046 48.0205 26.5186 48.6758 26.9737 47.5016C27.2441 46.7683 27.2895 45.9702 27.104 45.2106C27.104 45.2106 27.7555 46.8481 27.4288 47.7637C27.1022 48.6794 26.9094 49.2001 25.9331 49.3347C24.9568 49.4694 24.5052 49.3994 23.7913 49.9883C23.0773 50.5772 22.8149 51.1014 23.0773 51.2325C23.3397 51.3636 23.7913 51.2325 23.8591 51.4946C23.9269 51.7568 23.9787 51.7729 24.1125 52.3205C24.2464 52.8681 24.2482 52.0835 25.1603 52.0835C26.0723 52.0835 26.9166 53.1303 27.6323 51.6903C28.3481 50.2504 28.0875 49.2683 29.128 49.0726C29.5522 48.9804 29.9822 48.9174 30.4149 48.8841C30.4149 48.8841 28.9192 49.1444 28.7889 50.1929C28.6586 51.2415 29.4386 52.2864 28.5926 53.3996C27.7465 54.5127 26.9666 54.4463 26.5757 54.9688C26.1848 55.4912 26.0563 56.4751 26.1205 56.6708C26.1848 56.8665 26.772 58.1072 26.772 58.1072C26.772 58.1072 26.5757 57.845 27.7483 57.389L28.9192 56.9312C28.9192 56.9312 28.1374 57.5847 28.2053 58.24C28.2731 58.8954 28.6604 59.1557 28.3356 60.1378C28.0107 61.1199 27.6216 61.3802 27.0344 61.6424C26.4472 61.9045 26.0581 62.1002 26.0581 62.4288C26.0581 62.7573 26.4489 62.8866 26.6435 63.2798C26.838 63.673 27.3574 64.3265 26.9041 64.4576C26.4507 64.5887 25.4762 65.1111 25.2763 65.5043C25.0764 65.8975 24.9514 66.2225 24.9514 66.2225C24.9514 66.2225 25.1478 63.9962 24.366 63.278C23.5842 62.5598 22.4794 62.7537 22.4794 62.7537C22.4794 62.7537 23.9073 61.8381 23.3254 60.7895C22.7435 59.741 21.976 60.5669 21.976 60.5669C21.976 60.5669 22.3169 59.5848 21.8297 59.416C21.3424 59.2473 20.8533 59.6117 20.8533 59.6117C21.0387 59.3034 21.1311 58.9476 21.1194 58.5875C21.1076 58.2274 20.9923 57.8784 20.7873 57.5829C20.0734 56.5362 19.4219 56.7983 19.031 57.2561C18.6401 57.714 17.6031 60.0049 17.6031 60.0049C17.6031 60.0049 18.1207 58.0461 17.5995 57.2597Z" fill="#FF7373"/>
<path opacity="0.49" d="M22.4795 62.7573C22.4795 62.7573 24.2911 61.6927 24.7784 61.3641C25.2656 61.0355 24.4732 60.391 24.4732 60.391L26.0796 58.5812C26.0796 58.5812 25.835 58.1718 24.9408 58.2544C24.0466 58.337 23.3951 58.337 23.1559 57.5183C22.9167 56.6996 24.6195 55.9635 24.6195 55.9635C24.6195 55.9635 24.1322 56.0442 23.3183 54.8988C22.5044 53.7533 24.4571 53.4265 24.4571 53.4265C24.4571 53.4265 22.9935 53.4265 22.4241 53.7533C21.8547 54.0801 21.5317 54.4894 20.8766 54.326C20.2216 54.1626 21.2033 52.9346 21.2033 52.9346C21.2033 52.9346 19.9824 53.4265 19.3309 54.0801C18.6794 54.7336 19.1685 54.8988 19.0061 56.1268C18.8437 57.3549 17.6032 57.2597 17.6032 57.2597C18.1243 58.0461 17.6032 60.0085 17.6032 60.0085C17.6032 60.0085 18.6455 57.7176 19.0311 57.2597C19.4166 56.8019 20.0717 56.5416 20.7874 57.5865C20.9924 57.882 21.1077 58.231 21.1194 58.5911C21.1312 58.9512 21.0388 59.307 20.8534 59.6153C20.8534 59.6153 21.3425 59.2563 21.8298 59.4196C22.317 59.583 21.9761 60.5705 21.9761 60.5705C21.9761 60.5705 22.74 59.7464 23.3255 60.7931C23.9109 61.8399 22.4795 62.7573 22.4795 62.7573Z" fill="white"/>
<path d="M100.978 30.7164C102.785 28.8025 101.535 21.4143 99.729 18.951C97.9227 16.4877 100.839 14.1626 100.839 14.1626C100.839 14.1626 98.8954 15.2578 97.9227 18.6781C96.9499 22.0984 94.8652 19.0892 94.1744 18.4052C93.4837 17.7211 96.393 14.4301 96.393 14.4301C96.393 14.4301 92.502 16.3458 91.2526 18.9438C90.0032 21.5418 89.0286 21.2779 88.0559 20.7231C87.0831 20.1683 89.0286 18.389 89.0286 18.389C89.0286 18.389 86.5298 19.346 84.3041 21.9458C82.0783 24.5455 83.1939 25.9137 82.2211 27.1525C81.7553 27.7432 80.206 27.955 78.7174 28.0179V69.2283C80.5612 69.1654 82.6584 69.0056 83.749 68.6142C85.9569 67.8207 86.8065 64.6464 86.8065 64.6464L81.6642 65.0611C83.3411 63.8171 84.8355 62.3417 86.1032 60.6785C88.188 57.9422 86.3817 54.5219 87.076 53.1538C87.7703 51.7857 91.2455 52.0604 92.6341 51.1017C94.0227 50.1429 95.1329 47.5449 95.1329 47.5449C95.1329 47.5449 92.7697 49.1859 91.9362 48.0925C91.1027 46.9991 94.1602 45.2199 94.1602 45.2199C94.1602 45.2199 92.6305 44.9452 91.3811 45.6292C90.1317 46.3133 88.6021 48.7766 86.7958 50.8359C84.9895 52.8953 83.6044 51.6493 83.6044 51.6493C83.6044 51.6493 86.6619 49.87 88.602 46.7244C90.5422 43.5788 89.7122 42.7565 91.6578 41.6613C93.6033 40.5661 97.2159 40.4315 98.3279 39.0633C99.4398 37.6952 99.7183 34.8208 99.7183 34.8208L98.6063 36.0524C97.4943 37.2841 95.2704 36.8729 93.3266 36.4636C91.3829 36.0542 89.8515 37.8317 89.8515 37.8317C89.8515 37.8317 89.9907 36.0524 91.6578 34.2749C93.3248 32.4975 99.1721 32.6321 100.978 30.7164Z" fill="#FF7373"/>
<path opacity="0.49" d="M96.2538 26.6118C96.2538 26.6118 93.0588 26.7501 91.2561 27.5706C89.4534 28.3911 89.4498 30.7162 87.2258 30.7162C85.0019 30.7162 87.3651 27.4341 87.3651 27.4341C87.3651 27.4341 84.586 28.8022 83.474 29.6227C82.362 30.4433 82.5013 32.0843 82.3621 33.7271C82.2389 35.1993 79.3278 35.8995 78.7209 36.0306V58.8056L78.7495 64.7826C78.9168 63.4944 79.1492 62.2156 79.4456 60.9511C79.8614 59.3101 80.8342 57.8055 82.6405 57.1897C84.4468 56.5739 85.416 53.5701 85.416 53.5701C85.416 53.5701 84.2344 54.6635 81.541 52.9381C80.7789 52.4498 80.3469 52.2882 80.1131 52.2828C80.0346 51.2468 80.3915 50.2001 82.3549 48.9128C84.4396 47.5447 85.9693 47.9558 87.7756 46.0401C89.5819 44.1244 90.419 39.7453 90.419 39.7453C90.419 39.7453 89.7229 40.1547 88.7519 42.7545C87.7809 45.3543 85.4856 44.5338 85.4856 44.5338L86.6672 43.0274C87.847 41.5228 87.0831 40.2912 86.2495 39.7453C85.416 39.1995 85.416 37.1456 87.9166 35.5028C90.4172 33.8599 91.2525 33.3141 90.9741 31.1255C90.6957 28.9369 96.2538 26.6118 96.2538 26.6118Z" fill="white"/>
<path d="M84.6521 34.5476C85.3047 34.5476 85.8337 34.0267 85.8337 33.3841C85.8337 32.7416 85.3047 32.2207 84.6521 32.2207C83.9995 32.2207 83.4705 32.7416 83.4705 33.3841C83.4705 34.0267 83.9995 34.5476 84.6521 34.5476Z" fill="#263238"/>
<path d="M82.4977 39.8153C82.5002 39.9401 82.4657 40.0628 82.3986 40.1678C82.3315 40.2728 82.2348 40.3553 82.1209 40.4048C82.007 40.4543 81.881 40.4685 81.759 40.4457C81.637 40.4229 81.5245 40.3641 81.4359 40.2767C81.3473 40.1893 81.2865 40.0774 81.2614 39.9552C81.2363 39.8329 81.2479 39.706 81.2948 39.5904C81.3417 39.4748 81.4217 39.3759 81.5247 39.3063C81.6277 39.2367 81.7489 39.1995 81.873 39.1995C82.037 39.198 82.1948 39.2621 82.3119 39.3775C82.429 39.493 82.4959 39.6504 82.4977 39.8153Z" fill="#263238"/>
<path d="M85.0002 40.5658C85.154 40.5658 85.2786 40.4436 85.2786 40.2929C85.2786 40.1422 85.154 40.02 85.0002 40.02C84.8464 40.02 84.7217 40.1422 84.7217 40.2929C84.7217 40.4436 84.8464 40.5658 85.0002 40.5658Z" fill="#263238"/>
<path d="M83.8882 43.6451C83.8907 43.7425 83.8642 43.8385 83.8122 43.9207C83.7602 44.003 83.685 44.0678 83.5962 44.1068C83.5074 44.1458 83.4091 44.1573 83.3137 44.1399C83.2184 44.1224 83.1304 44.0767 83.061 44.0087C82.9916 43.9407 82.9439 43.8534 82.9241 43.758C82.9043 43.6626 82.9132 43.5634 82.9496 43.4731C82.9861 43.3828 83.0486 43.3055 83.1289 43.2511C83.2093 43.1966 83.304 43.1675 83.4009 43.1675C83.5284 43.1661 83.6513 43.2155 83.7426 43.305C83.834 43.3946 83.8863 43.5168 83.8882 43.6451Z" fill="#263238"/>
<path d="M82.7762 47.4765C82.7783 47.5739 82.7515 47.6698 82.6992 47.7518C82.6469 47.8339 82.5715 47.8984 82.4825 47.9371C82.3936 47.9758 82.2952 47.9869 82.2 47.9691C82.1047 47.9513 82.0169 47.9053 81.9477 47.837C81.8786 47.7687 81.8312 47.6813 81.8117 47.5858C81.7923 47.4903 81.8015 47.3911 81.8383 47.301C81.8752 47.2108 81.9379 47.1338 82.0184 47.0796C82.099 47.0255 82.1938 46.9968 82.2907 46.9971C82.4182 46.9961 82.5409 47.046 82.6319 47.1359C82.7229 47.2257 82.7748 47.3482 82.7762 47.4765Z" fill="#263238"/>
<path d="M85.973 45.0133C85.9754 45.1107 85.949 45.2067 85.897 45.2889C85.845 45.3712 85.7698 45.4359 85.681 45.475C85.5922 45.514 85.4938 45.5255 85.3985 45.508C85.3032 45.4906 85.2152 45.4449 85.1458 45.3769C85.0764 45.3089 85.0287 45.2216 85.0089 45.1262C84.9891 45.0308 84.9979 44.9316 85.0344 44.8413C85.0709 44.751 85.1333 44.6737 85.2137 44.6192C85.2941 44.5648 85.3888 44.5357 85.4857 44.5357C85.6132 44.5342 85.7361 44.5837 85.8274 44.6732C85.9187 44.7627 85.9711 44.885 85.973 45.0133Z" fill="#263238"/>
<path d="M82.637 57.1896C82.6392 57.287 82.6123 57.3829 82.56 57.465C82.5077 57.547 82.4323 57.6115 82.3434 57.6502C82.2544 57.6889 82.156 57.7001 82.0608 57.6823C81.9655 57.6644 81.8777 57.6184 81.8085 57.5502C81.7394 57.4819 81.692 57.3944 81.6726 57.2989C81.6531 57.2034 81.6623 57.1043 81.6991 57.0141C81.736 56.924 81.7987 56.8469 81.8793 56.7928C81.9598 56.7386 82.0546 56.7099 82.1515 56.7102C82.279 56.7093 82.4017 56.7592 82.4927 56.849C82.5837 56.9389 82.6356 57.0613 82.637 57.1896Z" fill="#263238"/>
<path d="M84.5826 55.0063C84.5839 55.0755 84.5649 55.1435 84.5279 55.2018C84.4909 55.2601 84.4376 55.306 84.3747 55.3339C84.3117 55.3617 84.242 55.3702 84.1743 55.3582C84.1066 55.3462 84.0439 55.3143 83.9942 55.2666C83.9445 55.2188 83.9099 55.1573 83.8949 55.0898C83.8799 55.0223 83.8851 54.9519 83.9099 54.8873C83.9346 54.8228 83.9778 54.7671 84.034 54.7273C84.0902 54.6874 84.1568 54.6652 84.2256 54.6634C84.2716 54.6615 84.3176 54.6689 84.3607 54.6852C84.4038 54.7016 84.4432 54.7265 84.4765 54.7585C84.5099 54.7905 84.5364 54.829 84.5546 54.8715C84.5729 54.9141 84.5824 54.96 84.5826 55.0063Z" fill="#263238"/>
<path d="M82.9154 60.61C82.9183 60.7353 82.8839 60.8586 82.8167 60.9641C82.7496 61.0697 82.6526 61.1527 82.5383 61.2025C82.424 61.2524 82.2975 61.2668 82.175 61.244C82.0525 61.2212 81.9396 61.1622 81.8506 61.0744C81.7616 60.9867 81.7006 60.8743 81.6755 60.7516C81.6503 60.6288 81.6621 60.5013 81.7094 60.3854C81.7566 60.2694 81.8372 60.1703 81.9407 60.1006C82.0443 60.0309 82.1661 59.9938 82.2907 59.9942C82.4547 59.9927 82.6125 60.0567 82.7296 60.1722C82.8467 60.2876 82.9135 60.4451 82.9154 60.61Z" fill="#263238"/>
<path d="M82.3549 66.8347C82.3571 66.9456 82.3263 67.0546 82.2666 67.1478C82.2069 67.2411 82.121 67.3143 82.0198 67.3582C81.9186 67.4022 81.8066 67.4148 81.6983 67.3944C81.5899 67.3741 81.49 67.3218 81.4113 67.2442C81.3326 67.1665 81.2786 67.0671 81.2563 66.9585C81.234 66.8499 81.2444 66.7371 81.286 66.6344C81.3277 66.5317 81.3989 66.4439 81.4904 66.382C81.5819 66.3202 81.6896 66.2872 81.7998 66.2871C81.872 66.2864 81.9437 66.3 82.0106 66.3272C82.0776 66.3543 82.1386 66.3944 82.1901 66.4453C82.2417 66.4961 82.2828 66.5567 82.311 66.6235C82.3393 66.6903 82.3542 66.7621 82.3549 66.8347Z" fill="#263238"/>
<path d="M57.4149 9.27856H27.6984V83.496H57.4149V9.27856Z" fill="white" stroke="#263238" stroke-width="0.5" stroke-linecap="round" stroke-linejoin="round"/>
<path d="M57.4149 9.27856H27.6984V11.4061H57.4149V9.27856Z" fill="#263238" stroke="#263238" stroke-width="0.5" stroke-linecap="round" stroke-linejoin="round"/>
<path d="M57.4149 27.9673H27.6984V30.0949H57.4149V27.9673Z" fill="#263238" stroke="#263238" stroke-width="0.5" stroke-linecap="round" stroke-linejoin="round"/>
<path d="M57.4149 46.7461H27.6984V48.8737H57.4149V46.7461Z" fill="#263238" stroke="#263238" stroke-width="0.5" stroke-linecap="round" stroke-linejoin="round"/>
<path d="M57.4149 65.0732H27.6984V67.2008H57.4149V65.0732Z" fill="#263238" stroke="#263238" stroke-width="0.5" stroke-linecap="round" stroke-linejoin="round"/>
<path d="M78.7691 9.27856H57.4148V83.496H78.7691V9.27856Z" fill="#BDBDBD" stroke="#263238" stroke-width="0.5" stroke-linecap="round" stroke-linejoin="round"/>
<path d="M80.72 27.1343H26.5383V29.1793H80.72V27.1343Z" fill="#919191" stroke="#263238" stroke-width="0.5" stroke-linecap="round" stroke-linejoin="round"/>
<path d="M58.9284 27.1343H26.5383V29.1793H58.9284V27.1343Z" fill="white" stroke="#263238" stroke-width="0.5" stroke-linecap="round" stroke-linejoin="round"/>
<path d="M80.72 45.6594H26.5383V47.7044H80.72V45.6594Z" fill="#919191" stroke="#263238" stroke-width="0.5" stroke-linecap="round" stroke-linejoin="round"/>
<path d="M58.9284 45.6594H26.5383V47.7044H58.9284V45.6594Z" fill="white" stroke="#263238" stroke-width="0.5" stroke-linecap="round" stroke-linejoin="round"/>
<path d="M80.72 64.1833H26.5383V66.2283H80.72V64.1833Z" fill="white" stroke="#263238" stroke-width="0.5" stroke-linecap="round" stroke-linejoin="round"/>
<path d="M58.9284 64.1833H26.5383V66.2283H58.9284V64.1833Z" fill="white" stroke="#263238" stroke-width="0.5" stroke-linecap="round" stroke-linejoin="round"/>
<path d="M35.0503 13.9253H29.6528V23.5362H35.0503V13.9253Z" fill="#263238" stroke="#263238" stroke-width="0.5" stroke-linecap="round" stroke-linejoin="round"/>
<path d="M34.6291 14.6758H30.0759V22.7857H34.6291V14.6758Z" fill="white" stroke="#263238" stroke-width="0.5" stroke-linecap="round" stroke-linejoin="round"/>
<path d="M34.6291 18.3853H30.0759V19.0765H34.6291V18.3853Z" fill="#263238" stroke="#263238" stroke-width="0.5" stroke-linecap="round" stroke-linejoin="round"/>
<path d="M45.2777 13.9253H39.8802V23.5362H45.2777V13.9253Z" fill="#263238" stroke="#263238" stroke-width="0.5" stroke-linecap="round" stroke-linejoin="round"/>
<path d="M44.8547 14.6758H40.3014V22.7857H44.8547V14.6758Z" fill="white" stroke="#263238" stroke-width="0.5" stroke-linecap="round" stroke-linejoin="round"/>
<path d="M44.8547 18.3853H40.3014V19.0765H44.8547V18.3853Z" fill="#263238" stroke="#263238" stroke-width="0.5" stroke-linecap="round" stroke-linejoin="round"/>
<path d="M35.0503 33.3699H29.6528V42.9808H35.0503V33.3699Z" fill="#263238" stroke="#263238" stroke-width="0.5" stroke-linecap="round" stroke-linejoin="round"/>
<path d="M34.6291 34.1206H30.0759V42.2305H34.6291V34.1206Z" fill="white" stroke="#263238" stroke-width="0.5" stroke-linecap="round" stroke-linejoin="round"/>
<path d="M34.6291 37.8296H30.0759V38.5208H34.6291V37.8296Z" fill="#263238" stroke="#263238" stroke-width="0.5" stroke-linecap="round" stroke-linejoin="round"/>
<path d="M45.2777 33.3699H39.8802V42.9808H45.2777V33.3699Z" fill="#263238" stroke="#263238" stroke-width="0.5" stroke-linecap="round" stroke-linejoin="round"/>
<path d="M44.8547 34.1206H40.3014V42.2305H44.8547V34.1206Z" fill="white" stroke="#263238" stroke-width="0.5" stroke-linecap="round" stroke-linejoin="round"/>
<path d="M44.8547 37.8296H40.3014V38.5208H44.8547V37.8296Z" fill="#263238" stroke="#263238" stroke-width="0.5" stroke-linecap="round" stroke-linejoin="round"/>
<path d="M35.0503 51.5718H29.6528V61.1827H35.0503V51.5718Z" fill="#263238" stroke="#263238" stroke-width="0.5" stroke-linecap="round" stroke-linejoin="round"/>
<path d="M34.6291 52.324H30.0759V60.4339H34.6291V52.324Z" fill="white" stroke="#263238" stroke-width="0.5" stroke-linecap="round" stroke-linejoin="round"/>
<path d="M34.6291 56.0337H30.0759V56.7249H34.6291V56.0337Z" fill="#263238" stroke="#263238" stroke-width="0.5" stroke-linecap="round" stroke-linejoin="round"/>
<path d="M45.2777 51.5718H39.8802V61.1827H45.2777V51.5718Z" fill="#263238" stroke="#263238" stroke-width="0.5" stroke-linecap="round" stroke-linejoin="round"/>
<path d="M44.8547 52.324H40.3014V60.4339H44.8547V52.324Z" fill="white" stroke="#263238" stroke-width="0.5" stroke-linecap="round" stroke-linejoin="round"/>
<path d="M44.8547 56.0337H40.3014V56.7249H44.8547V56.0337Z" fill="#263238" stroke="#263238" stroke-width="0.5" stroke-linecap="round" stroke-linejoin="round"/>
<path d="M35.0503 69.6052H29.6528V79.2161H35.0503V69.6052Z" fill="#263238" stroke="#263238" stroke-width="0.5" stroke-linecap="round" stroke-linejoin="round"/>
<path d="M34.6291 70.3557H30.0759V78.4656H34.6291V70.3557Z" fill="white" stroke="#263238" stroke-width="0.5" stroke-linecap="round" stroke-linejoin="round"/>
<path d="M34.6291 74.0647H30.0759V74.7559H34.6291V74.0647Z" fill="#263238" stroke="#263238" stroke-width="0.5" stroke-linecap="round" stroke-linejoin="round"/>
<path d="M45.2777 69.6052H39.8802V79.2161H45.2777V69.6052Z" fill="#263238" stroke="#263238" stroke-width="0.5" stroke-linecap="round" stroke-linejoin="round"/>
<path d="M44.8547 70.3557H40.3014V78.4656H44.8547V70.3557Z" fill="white" stroke="#263238" stroke-width="0.5" stroke-linecap="round" stroke-linejoin="round"/>
<path d="M44.8547 74.0647H40.3014V74.7559H44.8547V74.0647Z" fill="#263238" stroke="#263238" stroke-width="0.5" stroke-linecap="round" stroke-linejoin="round"/>
<path d="M55.198 13.9253H49.8006V23.5362H55.198V13.9253Z" fill="#263238" stroke="#263238" stroke-width="0.5" stroke-linecap="round" stroke-linejoin="round"/>
<path d="M54.775 14.6758H50.2218V22.7857H54.775V14.6758Z" fill="white" stroke="#263238" stroke-width="0.5" stroke-linecap="round" stroke-linejoin="round"/>
<path d="M54.775 18.3853H50.2218V19.0765H54.775V18.3853Z" fill="#263238" stroke="#263238" stroke-width="0.5" stroke-linecap="round" stroke-linejoin="round"/>
<path d="M55.198 33.3699H49.8006V42.9808H55.198V33.3699Z" fill="#263238" stroke="#263238" stroke-width="0.5" stroke-linecap="round" stroke-linejoin="round"/>
<path d="M54.775 34.1206H50.2218V42.2305H54.775V34.1206Z" fill="white" stroke="#263238" stroke-width="0.5" stroke-linecap="round" stroke-linejoin="round"/>
<path d="M54.775 37.8296H50.2218V38.5208H54.775V37.8296Z" fill="#263238" stroke="#263238" stroke-width="0.5" stroke-linecap="round" stroke-linejoin="round"/>
<path d="M66.9836 13.9253H61.5861V23.5362H66.9836V13.9253Z" fill="#263238" stroke="#263238" stroke-width="0.5" stroke-linecap="round" stroke-linejoin="round"/>
<path d="M66.5605 14.6758H62.0073V22.7857H66.5605V14.6758Z" fill="white" stroke="#263238" stroke-width="0.5" stroke-linecap="round" stroke-linejoin="round"/>
<path d="M66.5605 18.3853H62.0073V19.0765H66.5605V18.3853Z" fill="#263238" stroke="#263238" stroke-width="0.5" stroke-linecap="round" stroke-linejoin="round"/>
<path d="M55.198 51.5718H49.8006V61.1827H55.198V51.5718Z" fill="#263238" stroke="#263238" stroke-width="0.5" stroke-linecap="round" stroke-linejoin="round"/>
<path d="M54.775 52.324H50.2218V60.4339H54.775V52.324Z" fill="white" stroke="#263238" stroke-width="0.5" stroke-linecap="round" stroke-linejoin="round"/>
<path d="M54.775 56.0337H50.2218V56.7249H54.775V56.0337Z" fill="#263238" stroke="#263238" stroke-width="0.5" stroke-linecap="round" stroke-linejoin="round"/>
<path d="M66.9836 33.3699H61.5861V42.9808H66.9836V33.3699Z" fill="#263238" stroke="#263238" stroke-width="0.5" stroke-linecap="round" stroke-linejoin="round"/>
<path d="M66.5605 34.1206H62.0073V42.2305H66.5605V34.1206Z" fill="white" stroke="#263238" stroke-width="0.5" stroke-linecap="round" stroke-linejoin="round"/>
<path d="M66.5605 37.8296H62.0073V38.5208H66.5605V37.8296Z" fill="#263238" stroke="#263238" stroke-width="0.5" stroke-linecap="round" stroke-linejoin="round"/>
<path d="M75.7848 33.3699H70.3874V42.9808H75.7848V33.3699Z" fill="#263238" stroke="#263238" stroke-width="0.5" stroke-linecap="round" stroke-linejoin="round"/>
<path d="M75.3618 34.1206H70.8086V42.2305H75.3618V34.1206Z" fill="white" stroke="#263238" stroke-width="0.5" stroke-linecap="round" stroke-linejoin="round"/>
<path d="M75.3618 37.8296H70.8086V38.5208H75.3618V37.8296Z" fill="#263238" stroke="#263238" stroke-width="0.5" stroke-linecap="round" stroke-linejoin="round"/>
<path d="M75.7848 51.5718H70.3874V61.1827H75.7848V51.5718Z" fill="#263238" stroke="#263238" stroke-width="0.5" stroke-linecap="round" stroke-linejoin="round"/>
<path d="M75.3618 52.324H70.8086V60.4339H75.3618V52.324Z" fill="white" stroke="#263238" stroke-width="0.5" stroke-linecap="round" stroke-linejoin="round"/>
<path d="M75.3618 56.0337H70.8086V56.7249H75.3618V56.0337Z" fill="#263238" stroke="#263238" stroke-width="0.5" stroke-linecap="round" stroke-linejoin="round"/>
<path d="M55.198 69.6052H49.8006V79.2161H55.198V69.6052Z" fill="#263238" stroke="#263238" stroke-width="0.5" stroke-linecap="round" stroke-linejoin="round"/>
<path d="M54.775 70.3557H50.2218V78.4656H54.775V70.3557Z" fill="white" stroke="#263238" stroke-width="0.5" stroke-linecap="round" stroke-linejoin="round"/>
<path d="M54.775 74.0647H50.2218V74.7559H54.775V74.0647Z" fill="#263238" stroke="#263238" stroke-width="0.5" stroke-linecap="round" stroke-linejoin="round"/>
<path d="M66.9836 51.5718H61.5861V61.1827H66.9836V51.5718Z" fill="#263238" stroke="#263238" stroke-width="0.5" stroke-linecap="round" stroke-linejoin="round"/>
<path d="M66.5605 52.324H62.0073V60.4339H66.5605V52.324Z" fill="white" stroke="#263238" stroke-width="0.5" stroke-linecap="round" stroke-linejoin="round"/>
<path d="M66.5605 56.0337H62.0073V56.7249H66.5605V56.0337Z" fill="#263238" stroke="#263238" stroke-width="0.5" stroke-linecap="round" stroke-linejoin="round"/>
<path d="M75.7848 69.6052H70.3874V79.2161H75.7848V69.6052Z" fill="#263238" stroke="#263238" stroke-width="0.5" stroke-linecap="round" stroke-linejoin="round"/>
<path d="M75.3618 70.3557H70.8086V78.4656H75.3618V70.3557Z" fill="white" stroke="#263238" stroke-width="0.5" stroke-linecap="round" stroke-linejoin="round"/>
<path d="M75.3618 74.0647H70.8086V74.7559H75.3618V74.0647Z" fill="#263238" stroke="#263238" stroke-width="0.5" stroke-linecap="round" stroke-linejoin="round"/>
<path d="M66.9836 69.6052H61.5861V79.2161H66.9836V69.6052Z" fill="#263238" stroke="#263238" stroke-width="0.5" stroke-linecap="round" stroke-linejoin="round"/>
<path d="M66.5605 70.3557H62.0073V78.4656H66.5605V70.3557Z" fill="white" stroke="#263238" stroke-width="0.5" stroke-linecap="round" stroke-linejoin="round"/>
<path d="M66.5605 74.0647H62.0073V74.7559H66.5605V74.0647Z" fill="#263238" stroke="#263238" stroke-width="0.5" stroke-linecap="round" stroke-linejoin="round"/>
<path d="M69.6662 10.5336L70.8942 12.4888L73.9642 15.0616L73.5537 16.8122L71.7117 19.5897L72.4292 21.2361L73.759 24.3242H74.4747L75.7027 24.633L77.7482 24.4266L78.7673 25.1591V9.27856H77.5483L69.2575 9.50479L69.6662 10.5336Z" fill="#C2C2C2" stroke="#263238" stroke-width="0.5" stroke-linecap="round" stroke-linejoin="round"/>
<path d="M75.4974 24.581L77.0324 24.4266L77.1199 24.4894L77.7482 24.4266L78.0516 24.6456V9.27856H77.5483L69.2575 9.50479L69.6662 10.5336L70.8942 12.4888L73.9642 15.0616L73.5537 16.8122L71.7117 19.5897L72.4292 21.2361L73.759 24.3242H74.4747L75.4974 24.581Z" fill="#263238" stroke="#263238" stroke-width="0.5" stroke-linecap="round" stroke-linejoin="round"/>
<path d="M80.72 8.4043H26.5383V10.4493H80.72V8.4043Z" fill="#919191" stroke="#263238" stroke-width="0.5" stroke-linecap="round" stroke-linejoin="round"/>
<path d="M58.9284 8.4043H26.5383V10.4493H58.9284V8.4043Z" fill="white" stroke="#263238" stroke-width="0.5" stroke-linecap="round" stroke-linejoin="round"/>
<path d="M77.0717 71.785L76.9593 72.7258L77.2502 72.8713C77.2502 72.8713 77.443 73.4548 77.4911 73.4548C77.5393 73.4548 78.007 73.2932 78.007 73.2932L78.5424 73.7636L79.0422 72.9844L78.5906 72.7582C78.5906 72.7582 78.8334 71.7204 78.737 71.4924C78.6406 71.2644 78.5424 71.1692 77.8981 71.1046C77.2538 71.0399 77.202 71.3146 77.0717 71.785Z" fill="white" stroke="#263238" stroke-width="0.2" stroke-miterlimit="10"/>
<path d="M77.8927 71.1045C77.3697 71.0506 77.2394 71.223 77.1395 71.5408H77.6517C77.6517 71.5408 77.4411 71.8819 77.5536 71.9142C77.6417 71.9414 77.7281 71.9738 77.8124 72.0112C77.8124 72.0112 77.7481 72.3846 77.8285 72.4169C77.9088 72.4493 77.9248 72.4331 77.957 72.2554C77.9891 72.0776 78.1355 71.995 78.2158 72.1907C78.2583 72.3455 78.2527 72.5096 78.1997 72.6611L78.1515 72.7742L78.5852 72.7581C78.5852 72.7581 78.828 71.7203 78.7316 71.4923C78.6352 71.2643 78.5388 71.1655 77.8927 71.1045Z" fill="#263238" stroke="#263238" stroke-width="0.2" stroke-linecap="round" stroke-linejoin="round"/>
<path d="M77.2989 72.2875C77.2989 72.3593 77.2774 72.4167 77.2505 72.4167C77.2235 72.4167 77.202 72.3593 77.202 72.2875C77.202 72.2157 77.2235 72.1582 77.2505 72.1582C77.2774 72.1582 77.2989 72.2157 77.2989 72.2875Z" fill="#263238"/>
<path d="M77.1377 72.0274C77.1377 72.0274 77.3626 71.9305 77.4269 72.0777" stroke="#263238" stroke-width="0.2" stroke-linecap="round" stroke-linejoin="round"/>
<path d="M80.0917 76.552C80.0917 76.552 77.3858 79.0656 77.5733 79.2182C77.7607 79.3708 78.7388 82.45 78.7388 82.45L79.2278 82.5452L78.8709 79.4247L80.8824 78.1194C80.8824 78.1194 82.7048 80.4643 82.9493 80.484C83.1938 80.5038 86.296 79.1787 86.296 79.1787L86.221 78.6114L83.4955 79.0459L82.7244 76.4174C82.74 76.3226 82.7245 76.2254 82.6804 76.1402C82.6364 76.0551 82.566 75.9866 82.4799 75.9452C82.1604 75.7297 80.0917 76.552 80.0917 76.552Z" fill="#263238" stroke="#263238" stroke-width="0.2" stroke-linecap="round" stroke-linejoin="round"/>
<path d="M86.221 78.6042C86.221 78.6042 86.9153 78.5109 86.9724 78.5665C87.0295 78.6222 87.067 79.1536 87.067 79.5881C87.067 80.0226 86.8403 80.4769 86.785 80.4769C86.7297 80.4769 86.296 79.1716 86.296 79.1716L86.221 78.6042Z" fill="white" stroke="#263238" stroke-width="0.2" stroke-miterlimit="10"/>
<path d="M78.7387 82.4426C78.7387 82.4426 77.3287 82.5755 77.3465 82.6509C77.3644 82.7263 78.4746 83.1428 78.7744 83.1805C79.0743 83.2183 79.3759 83.3134 79.4134 83.2003C79.4509 83.0872 79.2349 82.5378 79.2349 82.5378L78.7387 82.4426Z" fill="white" stroke="#263238" stroke-width="0.2" stroke-miterlimit="10"/>
<path d="M82.1978 75.559C82.1229 75.5033 82.1782 73.1208 82.1032 73.0077C82.0283 72.8946 79.6044 72.478 79.3956 72.478C79.1868 72.478 79.0386 72.8551 79.0386 72.8551L77.2912 74.6146L75.4671 73.3291L75.2047 72.6665C75.2047 72.6665 75.0155 72.5337 74.9976 72.6288L74.9602 72.8174C74.9602 72.8174 74.5835 72.9305 74.6032 73.0256C74.6502 73.1609 74.7271 73.2837 74.8281 73.3847C74.8852 73.4224 75.2047 73.6684 75.2047 73.6684C75.2047 73.6684 77.3662 75.5213 77.4983 75.5213C77.6303 75.5213 78.7191 74.936 78.7191 74.936L80.147 76.7888C80.147 76.7888 80.8413 77.1102 81.4054 76.902C81.9694 76.6937 82.4763 76.0509 82.4763 75.9378C82.4763 75.8247 82.2728 75.6164 82.1978 75.559ZM80.8253 73.8964H81.6142L81.9337 75.1532L80.8253 73.8964Z" fill="white" stroke="#263238" stroke-width="0.2" stroke-miterlimit="10"/>
<path d="M80.8253 73.8964H81.6142L81.6356 73.9808L82.1479 73.9611C82.1589 73.6426 82.144 73.3237 82.1033 73.0077C82.0283 72.8928 79.6044 72.478 79.3956 72.478C79.1868 72.478 79.0386 72.8551 79.0386 72.8551L77.2912 74.6146L76.9182 74.3525L76.5933 74.8372C76.8752 75.0906 77.1779 75.3194 77.4983 75.5213C77.6286 75.5213 78.7191 74.936 78.7191 74.936L80.147 76.7888C80.147 76.7888 80.8413 77.1102 81.4054 76.902C81.9694 76.6937 82.4763 76.0509 82.4763 75.9378C82.4763 75.8247 82.2693 75.6164 82.1943 75.559L81.9301 75.1442L80.8253 73.8964Z" fill="#92E3A9" stroke="#263238" stroke-width="0.2" stroke-miterlimit="10"/>
<path d="M120.514 81.2756L119.488 74.8444L118.461 73.4153L117.042 73.0185L98.5759 45.1553L97.944 45.9506L114.674 74.2106L116.567 75.2412L117.753 83.4984H121.462L120.514 81.2756Z" fill="#263238" stroke="#263238" stroke-linecap="round" stroke-linejoin="round"/>
<path d="M98.5759 45.1553L87.3687 60.6354L88.395 61.1112L100.943 48.7282" stroke="#263238" stroke-width="3" stroke-linecap="round" stroke-linejoin="round"/>
<path d="M92.0253 54.2061L93.8406 55.7142" stroke="#263238" stroke-width="3" stroke-linecap="round" stroke-linejoin="round"/>
<path d="M87.888 62.5563C88.0968 62.8382 88.4681 62.9639 88.9196 62.9442C89.539 62.9172 90.3136 62.6192 91.0312 62.0841C91.8754 61.4522 92.4216 60.6478 92.5322 59.9943C92.5639 59.8571 92.567 59.7147 92.5412 59.5763C92.5154 59.4378 92.4613 59.3063 92.3823 59.1899C91.8861 58.522 90.4796 58.7339 89.2391 59.6639C87.9986 60.5939 87.39 61.8884 87.888 62.5563Z" fill="white" stroke="#263238" stroke-linecap="round" stroke-linejoin="round"/>
<path d="M88.9162 62.9445C89.5355 62.9176 90.3102 62.6195 91.0277 62.0845C91.8719 61.4525 92.4181 60.6482 92.5288 59.9946C91.9094 60.0198 91.1383 60.3178 90.4208 60.8564C89.5766 61.4866 89.0268 62.2856 88.9162 62.9445Z" fill="white" stroke="#263238" stroke-linecap="round" stroke-linejoin="round"/>
<path d="M91.6827 78.9482H92.468L92.4805 78.9644C92.5473 78.9545 92.6147 78.9491 92.6822 78.9482C93.6425 78.9482 94.4189 79.9537 94.4189 81.1961C94.4189 82.4385 93.6425 83.4422 92.6822 83.4422C92.6146 83.4422 92.5472 83.4368 92.4805 83.426L92.468 83.4422H91.6827C90.7224 83.4422 89.946 82.4367 89.946 81.1961C89.946 79.9555 90.7224 78.9482 91.6827 78.9482Z" fill="#263238" stroke="#263238" stroke-width="0.2" stroke-linecap="round" stroke-linejoin="round"/>
<path d="M107.793 78.9482H108.58L108.591 78.9644C108.658 78.9545 108.726 78.9491 108.794 78.9482C109.753 78.9482 110.531 79.9537 110.531 81.1961C110.531 82.4385 109.753 83.4422 108.794 83.4422C108.726 83.4422 108.658 83.4368 108.591 83.426L108.58 83.4422H107.793C106.835 83.4422 106.056 82.4367 106.056 81.1961C106.056 79.9555 106.835 78.9482 107.793 78.9482Z" fill="#263238" stroke="#263238" stroke-width="0.2" stroke-linecap="round" stroke-linejoin="round"/>
<path d="M115.952 77.126L116.732 77.2822L116.835 77.6484L117.017 77.7005L117.226 77.8836L117.199 78.1188L115.534 78.0937L115.405 77.3612L115.952 77.126Z" fill="#263238" stroke="#263238" stroke-width="0.2" stroke-linecap="round" stroke-linejoin="round"/>
<path d="M115.952 77.1262L116.419 74.9806L114.884 72.862L113.922 71.9194L112.257 72.3126L110.047 73.4886L109.512 73.8854C109.512 73.8854 114.867 77.3865 114.936 77.4134C115.006 77.4404 115.952 77.1262 115.952 77.1262Z" fill="#B2B2B2" stroke="#263238" stroke-width="0.2" stroke-linecap="round" stroke-linejoin="round"/>
<path d="M115.664 73.986L114.469 73.1744L113.974 72.3378L112.985 73.4635L113.091 74.2732L111.686 74.2481L110.542 73.7777L109.512 73.8854L110.906 72.8872L112.466 72.1295L113.922 71.9194L115.118 73.1493L115.664 73.986Z" fill="#B2B2B2" stroke="#263238" stroke-width="0.2" stroke-linecap="round" stroke-linejoin="round"/>
<path d="M84.197 79.0149H84.5736L84.9127 76.6287C84.9329 76.4885 85.0027 76.3603 85.1092 76.2677C85.2157 76.175 85.3519 76.1241 85.4928 76.1242H87.6079L91.0438 72.4562C91.2271 72.2602 91.4484 72.1041 91.6939 71.9972C91.9395 71.8904 92.2041 71.8352 92.4717 71.835H101.575C101.771 71.8352 101.965 71.8752 102.146 71.9527C102.326 72.0301 102.49 72.1433 102.626 72.2856L117.874 78.7599L117.819 78.8515L117.895 79.4529L118.026 79.8982L117.949 81.0239C117.949 81.0239 117.678 81.5769 117.735 81.7313H94.8241L88.934 81.69L84.5736 81.3992V81.3794H84.2166C84.1787 81.3794 84.1424 81.3643 84.1156 81.3374C84.0889 81.3104 84.0738 81.2739 84.0738 81.2358V79.1405C84.0738 79.1075 84.0867 79.0758 84.1098 79.0523C84.1328 79.0288 84.1641 79.0153 84.197 79.0149Z" fill="#B2B2B2" stroke="#263238" stroke-width="0.2" stroke-linecap="round" stroke-linejoin="round"/>
<path d="M90.8582 81.3004V81.7026L88.9376 81.69L84.5736 81.3991V81.3794H84.2166C84.1901 81.3793 84.1641 81.3716 84.1417 81.3573C84.1193 81.3431 84.1013 81.3227 84.0899 81.2986L90.8582 81.3004Z" fill="#263238" stroke="#263238" stroke-width="0.2" stroke-linecap="round" stroke-linejoin="round"/>
<path d="M88.9483 81.3992H91.1544L99.3113 71.835H101.578C101.774 71.8352 101.969 71.8752 102.149 71.9527C102.33 72.0301 102.493 72.1433 102.629 72.2856L117.874 78.7599L117.819 78.8515L117.895 79.4529L118.026 79.8982L117.949 81.0239C117.949 81.0239 117.678 81.5769 117.735 81.7313H94.8241L88.934 81.69C88.8957 81.6881 88.8596 81.671 88.8339 81.6424C88.8081 81.6137 88.7947 81.576 88.7966 81.5374C88.7985 81.4989 88.8155 81.4626 88.844 81.4367C88.8724 81.4108 88.9099 81.3973 88.9483 81.3992Z" fill="#263238" stroke="#263238" stroke-width="0.2" stroke-linecap="round" stroke-linejoin="round"/>
<path d="M114.618 78.9482H115.406L115.921 79.7095C116.205 80.1526 116.355 80.6684 116.355 81.1952C116.355 81.7221 116.205 82.2378 115.921 82.6809L115.406 83.4422H114.618C113.66 83.4422 112.883 82.4367 112.883 81.1961C112.883 79.9555 113.66 78.9482 114.618 78.9482Z" fill="#263238" stroke="#263238" stroke-width="0.2" stroke-linecap="round" stroke-linejoin="round"/>
<path d="M115.62 83.444C116.579 83.444 117.356 82.4376 117.356 81.1961C117.356 79.9546 116.579 78.9482 115.62 78.9482C114.661 78.9482 113.883 79.9546 113.883 81.1961C113.883 82.4376 114.661 83.444 115.62 83.444Z" fill="#636363" stroke="#263238" stroke-width="0.2" stroke-linecap="round" stroke-linejoin="round"/>
<path d="M115.62 82.9901C116.385 82.9901 117.005 82.1871 117.005 81.1965C117.005 80.2059 116.385 79.4028 115.62 79.4028C114.855 79.4028 114.235 80.2059 114.235 81.1965C114.235 82.1871 114.855 82.9901 115.62 82.9901Z" fill="white" stroke="#263238" stroke-width="0.2" stroke-linecap="round" stroke-linejoin="round"/>
<path d="M115.327 81.1962C115.341 81.2512 115.37 81.3011 115.411 81.3403C115.452 81.3795 115.503 81.4064 115.558 81.4179C115.613 81.4294 115.67 81.4252 115.723 81.4056C115.776 81.386 115.823 81.3518 115.857 81.307C115.892 81.2622 115.913 81.2085 115.919 81.1521C115.925 81.0956 115.915 81.0387 115.89 80.9877C115.866 80.9367 115.827 80.8937 115.779 80.8636C115.731 80.8335 115.676 80.8175 115.62 80.8174C115.532 80.8303 115.452 80.877 115.398 80.9476C115.343 81.0182 115.318 81.1073 115.327 81.1962Z" fill="white" stroke="#263238" stroke-width="0.2" stroke-linecap="round" stroke-linejoin="round"/>
<path d="M97.0927 78.9482H97.8834L98.3992 79.7095C98.6825 80.1526 98.8331 80.6684 98.8331 81.1952C98.8331 81.7221 98.6825 82.2378 98.3992 82.6809L97.8834 83.4422H97.0962C96.1378 83.4422 95.3613 82.4367 95.3613 81.1961C95.3613 79.9555 96.1342 78.9482 97.0927 78.9482Z" fill="#263238" stroke="#263238" stroke-width="0.2" stroke-linecap="round" stroke-linejoin="round"/>
<path d="M98.094 83.444C99.0531 83.444 99.8307 82.4376 99.8307 81.1961C99.8307 79.9546 99.0531 78.9482 98.094 78.9482C97.1348 78.9482 96.3573 79.9546 96.3573 81.1961C96.3573 82.4376 97.1348 83.444 98.094 83.444Z" fill="#636363" stroke="#263238" stroke-width="0.2" stroke-linecap="round" stroke-linejoin="round"/>
<path d="M98.094 82.9901C98.8589 82.9901 99.479 82.1871 99.479 81.1965C99.479 80.2059 98.8589 79.4028 98.094 79.4028C97.329 79.4028 96.7089 80.2059 96.7089 81.1965C96.7089 82.1871 97.329 82.9901 98.094 82.9901Z" fill="white" stroke="#263238" stroke-width="0.2" stroke-linecap="round" stroke-linejoin="round"/>
<path d="M97.8012 81.1962C97.8153 81.2512 97.8443 81.3011 97.8851 81.3403C97.9259 81.3795 97.9768 81.4064 98.0321 81.4179C98.0873 81.4294 98.1447 81.4252 98.1976 81.4056C98.2506 81.386 98.297 81.3518 98.3316 81.307C98.3662 81.2622 98.3876 81.2085 98.3935 81.1521C98.3993 81.0956 98.3892 81.0387 98.3645 80.9877C98.3397 80.9367 98.3013 80.8937 98.2535 80.8636C98.2056 80.8335 98.1504 80.8175 98.094 80.8174C98.006 80.8303 97.9264 80.877 97.8719 80.9476C97.8173 81.0182 97.792 81.1073 97.8012 81.1962Z" fill="white" stroke="#263238" stroke-width="0.2" stroke-linecap="round" stroke-linejoin="round"/>
<path d="M91.0437 72.4561C91.0705 72.4255 91.1026 72.3986 91.1329 72.3699H98.226V75.8961H87.8202L91.0437 72.4561Z" fill="#263238" stroke="#263238" stroke-width="0.2" stroke-linecap="round" stroke-linejoin="round"/>
<path d="M90.6421 79.0149L91.0508 76.1242H93.6746L97.1105 72.4562C97.2939 72.2602 97.5151 72.1041 97.7607 71.9972C98.0062 71.8904 98.2709 71.8352 98.5384 71.835H106.897C107.094 71.835 107.288 71.8749 107.469 71.9523C107.65 72.0297 107.814 72.1431 107.95 72.2856L113.289 75.8765L115.348 76.7742L115.948 77.1333L116.025 77.6557L116.268 77.9879L117.647 78.0417L118.036 78.5121L117.829 78.8515L117.906 79.4529L118.036 79.8982L117.96 81.0239C117.868 81.2079 117.796 81.4011 117.745 81.6003V81.1388C117.745 79.6899 116.698 78.5157 115.405 78.5157C114.254 78.5157 113.539 79.4547 113.358 80.7295L113.217 81.7313H100.193V81.1388C100.193 79.6899 99.6022 78.5157 98.0136 78.5157C96.5982 78.5157 96.0913 79.4547 95.8718 80.7295L95.7058 81.69L90.6421 81.3992V81.3794H90.228V79.0149H90.6421Z" fill="#B2B2B2" stroke="#263238" stroke-width="0.2" stroke-linecap="round" stroke-linejoin="round"/>
<path d="M107.909 72.8136L112.493 75.8765H103.925V72.4114H106.959C107.136 72.4118 107.311 72.4476 107.474 72.5166C107.637 72.5857 107.785 72.6866 107.909 72.8136Z" fill="white" stroke="#263238" stroke-width="0.2" stroke-linecap="round" stroke-linejoin="round"/>
<path d="M109.578 75.846L109.13 75.5965L108.882 74.8729L108.659 74.1978L108.286 74.0219L107.789 73.9231L107.466 73.1224L106.958 72.4114L106.943 73.1978L106.422 74.1978L106.249 74.5479L106.074 74.9968L106.968 75.5965L106.87 75.8963L109.578 75.846Z" fill="#263238" stroke="#263238" stroke-width="0.2" stroke-linecap="round" stroke-linejoin="round"/>
<path d="M106.422 74.1978L105.901 73.9483L105.851 73.3217L104.757 73.2983L104.509 72.4976" stroke="#263238" stroke-width="0.2" stroke-linecap="round" stroke-linejoin="round"/>
<path d="M106.547 73.9481C106.547 73.9481 106.247 73.7686 106.224 73.6967C106.201 73.6249 106.297 73.4723 106.272 73.3969C106.247 73.3215 106.199 73.1222 106.199 73.1222L106.099 72.8224L106.174 72.6428" stroke="#263238" stroke-width="0.2" stroke-linecap="round" stroke-linejoin="round"/>
<path d="M106.074 74.9966L105.603 74.6968L105.155 74.747L104.957 74.7219" stroke="#263238" stroke-width="0.2" stroke-linecap="round" stroke-linejoin="round"/>
<path d="M108.609 74.4724L108.882 74.1475L109.155 74.3468L109.603 74.4473" stroke="#263238" stroke-width="0.2" stroke-linecap="round" stroke-linejoin="round"/>
<path d="M103.925 75.8762V73.3877L105.876 75.8762H103.925Z" fill="#263238" stroke="#263238" stroke-width="0.2" stroke-linecap="round" stroke-linejoin="round"/>
<path d="M97.3961 72.9769L95.447 74.9806C95.3829 75.0482 95.3368 75.1309 95.3131 75.2212C95.2939 75.299 95.2925 75.3801 95.309 75.4585C95.3256 75.5368 95.3597 75.6104 95.4087 75.6736C95.4577 75.7367 95.5204 75.7878 95.592 75.823C95.6635 75.8581 95.7421 75.8765 95.8218 75.8765H103.35V72.4114H98.7294C98.4809 72.4116 98.2349 72.4617 98.006 72.5588C97.777 72.6559 97.5696 72.7981 97.3961 72.9769Z" fill="#263238" stroke="#263238" stroke-width="0.2" stroke-linecap="round" stroke-linejoin="round"/>
<path d="M99.222 72.4114H99.9788L102.697 75.8765H101.939L99.222 72.4114Z" fill="white" stroke="#263238" stroke-width="0.2" stroke-linecap="round" stroke-linejoin="round"/>
<path d="M103.351 72.6573V75.4241L100.987 72.4114H103.158L103.351 72.6573Z" fill="white" stroke="#263238" stroke-width="0.2" stroke-linecap="round" stroke-linejoin="round"/>
<path d="M91.0508 76.124H85.4927C85.3519 76.1239 85.2157 76.1748 85.1091 76.2674C85.0026 76.3601 84.9328 76.4883 84.9126 76.6285L84.5735 79.0147H90.6421L91.0508 76.124Z" fill="#B2B2B2" stroke="#263238" stroke-width="0.2" stroke-linecap="round" stroke-linejoin="round"/>
<path d="M85.7747 78.5156H88.411V77.4258H85.7747V78.5156Z" fill="white" stroke="#263238" stroke-width="0.2" stroke-linecap="round" stroke-linejoin="round"/>
<path d="M84.2844 79.46H95.5808" stroke="#263238" stroke-width="0.2" stroke-linecap="round" stroke-linejoin="round"/>
<path d="M100.63 79.46H113.149" stroke="#263238" stroke-width="0.2" stroke-linecap="round" stroke-linejoin="round"/>
<path d="M117.305 79.46H117.745" stroke="#263238" stroke-width="0.2" stroke-linecap="round" stroke-linejoin="round"/>
<path d="M88.8662 77.4492H91.365C91.4804 77.4496 91.5934 77.4822 91.6914 77.5434C91.7894 77.6046 91.8686 77.6919 91.9201 77.7957L92.336 78.6324C92.3535 78.6707 92.3613 78.7128 92.3586 78.7548C92.3558 78.7969 92.3427 78.8376 92.3204 78.8733C92.298 78.909 92.2672 78.9385 92.2307 78.9591C92.1941 78.9797 92.153 78.9909 92.1111 78.9915H88.8662V77.4492Z" fill="#B2B2B2" stroke="#263238" stroke-width="0.2" stroke-linecap="round" stroke-linejoin="round"/>
<path d="M88.8662 77.4438H90.8742L90.6546 78.9933H88.8662V77.4438Z" fill="#263238" stroke="#263238" stroke-width="0.2" stroke-linecap="round" stroke-linejoin="round"/>
<path d="M84.8074 77.4438H85.4142L85.4231 78.9933H84.586L84.8074 77.4438Z" fill="#263238" stroke="#263238" stroke-width="0.2" stroke-linecap="round" stroke-linejoin="round"/>
<path d="M112.111 76.5137H112.996C113.193 76.5137 113.353 76.3529 113.353 76.1546V75.5118C113.353 75.3135 113.193 75.1527 112.996 75.1527H112.111C111.913 75.1527 111.754 75.3135 111.754 75.5118V76.1546C111.754 76.3529 111.913 76.5137 112.111 76.5137Z" fill="#263238" stroke="#263238" stroke-width="0.2" stroke-linecap="round" stroke-linejoin="round"/>
<path d="M104.13 77.1333H105.667V76.5139H104.13V77.1333Z" fill="#263238" stroke="#263238" stroke-width="0.2" stroke-linecap="round" stroke-linejoin="round"/>
<path d="M103.761 76.2676V80.968" stroke="#263238" stroke-width="0.2" stroke-linecap="round" stroke-linejoin="round"/>
<path d="M114.153 78.3701C114.153 78.3701 113.026 79.0093 112.883 81.1961H100.925" stroke="#263238" stroke-width="0.2" stroke-linecap="round" stroke-linejoin="round"/>
<path d="M95.2739 79.2988C95.2739 79.2988 95.8629 77.7529 97.8334 77.7529C99.2078 77.7529 99.8646 78.4711 100.193 79.051" stroke="#263238" stroke-width="0.2" stroke-linecap="round" stroke-linejoin="round"/>
<g opacity="0.24">
<path d="M116.268 64.5513C114.081 64.5513 112.309 66.1294 112.309 68.0793C112.31 68.7471 112.519 69.3978 112.905 69.9411C111.854 70.1314 111.063 70.9555 111.063 71.943C111.063 73.0724 112.095 73.9862 113.369 73.9862C114.643 73.9862 115.673 73.0724 115.673 71.943C115.673 71.8144 115.659 71.6862 115.632 71.5606C115.843 71.5917 116.055 71.6073 116.268 71.6073C118.456 71.6073 120.228 70.0273 120.228 68.0793C120.228 66.1312 118.447 64.5513 116.268 64.5513Z" fill="black"/>
<path d="M115.807 64.436C117.37 64.436 118.636 63.1876 118.636 61.6477C118.636 60.1077 117.37 58.8594 115.807 58.8594C114.245 58.8594 112.978 60.1077 112.978 61.6477C112.978 63.1876 114.245 64.436 115.807 64.436Z" fill="black"/>
<path d="M112.186 58.5184C112.186 57.89 111.552 57.3801 110.772 57.3801C109.992 57.3801 109.357 57.89 109.357 58.5184C109.357 59.1468 109.99 59.6567 110.772 59.6567C111.554 59.6567 112.186 59.1468 112.186 58.5184Z" fill="black"/>
<path d="M115.184 55.4448C115.72 55.4448 116.146 55.0623 116.146 54.5919C116.146 54.1215 115.716 53.7373 115.184 53.7373C114.652 53.7373 114.222 54.1197 114.222 54.5919C114.222 55.0641 114.661 55.4448 115.184 55.4448Z" fill="black"/>
<path d="M110.02 53.0678C109.949 52.7949 109.622 52.6423 109.289 52.7302C108.955 52.8182 108.753 53.1091 108.816 53.382C108.878 53.6549 109.212 53.8075 109.546 53.7213C109.879 53.6351 110.087 53.3425 110.02 53.0678Z" fill="black"/>
</g>
<g opacity="0.24">
<path d="M81.334 24.3789C79.1475 24.3789 77.3734 25.9571 77.3734 27.9069C77.3756 28.5749 77.5846 29.2257 77.9713 29.7688C76.92 29.9591 76.1293 30.7832 76.1293 31.7707C76.1293 32.9 77.161 33.8139 78.4336 33.8139C79.7062 33.8139 80.7486 32.9 80.7486 31.7707C80.7477 31.6421 80.7339 31.514 80.7075 31.3882C80.9179 31.4193 81.1303 31.4349 81.3429 31.4349C83.5294 31.4349 85.3036 29.855 85.3036 27.9069C85.3036 25.9589 83.5205 24.3789 81.334 24.3789Z" fill="black"/>
<path d="M80.8806 24.2636C82.4431 24.2636 83.7097 23.0152 83.7097 21.4753C83.7097 19.9354 82.4431 18.687 80.8806 18.687C79.3182 18.687 78.0516 19.9354 78.0516 21.4753C78.0516 23.0152 79.3182 24.2636 80.8806 24.2636Z" fill="black"/>
<path d="M77.2609 18.3461C77.2609 17.7177 76.6273 17.2078 75.8455 17.2078C75.0637 17.2078 74.4319 17.7177 74.4319 18.3461C74.4319 18.9745 75.0655 19.4844 75.8455 19.4844C76.6255 19.4844 77.2609 18.9745 77.2609 18.3461Z" fill="black"/>
<path d="M80.2596 15.2721C80.795 15.2721 81.2216 14.8897 81.2216 14.4193C81.2216 13.9489 80.7897 13.5647 80.2596 13.5647C79.7294 13.5647 79.2975 13.9471 79.2975 14.4193C79.2975 14.8915 79.7277 15.2721 80.2596 15.2721Z" fill="black"/>
<path d="M75.0905 12.8952C75.0209 12.6223 74.6942 12.4697 74.3605 12.5576C74.0267 12.6456 73.825 12.9365 73.8857 13.2094C73.9464 13.4823 74.2837 13.6349 74.6157 13.5487C74.9477 13.4625 75.1619 13.1735 75.0905 12.8952Z" fill="black"/>
</g>
<g opacity="0.24">
<path d="M38.3577 15.9148C35.6964 15.9148 33.5385 17.8377 33.5385 20.2095C33.5409 21.0223 33.7948 21.8142 34.2649 22.4753C32.987 22.7069 32.0231 23.7087 32.0231 24.9117C32.0231 26.2852 33.2725 27.3983 34.829 27.3983C36.3854 27.3983 37.6348 26.2852 37.6348 24.9117C37.6339 24.7553 37.6166 24.5994 37.583 24.4467C37.8396 24.4834 38.0985 24.502 38.3577 24.5023C41.0189 24.5023 43.1768 22.5794 43.1768 20.2095C43.1768 17.8395 41.0189 15.9148 38.3577 15.9148Z" fill="black"/>
<path d="M37.8062 15.7765C39.7077 15.7765 41.2492 14.2572 41.2492 12.3831C41.2492 10.509 39.7077 8.98975 37.8062 8.98975C35.9046 8.98975 34.3631 10.509 34.3631 12.3831C34.3631 14.2572 35.9046 15.7765 37.8062 15.7765Z" fill="black"/>
<path d="M31.6804 9.95751C32.6307 9.95751 33.4011 9.33775 33.4011 8.57324C33.4011 7.80873 32.6307 7.18896 31.6804 7.18896C30.7302 7.18896 29.9598 7.80873 29.9598 8.57324C29.9598 9.33775 30.7302 9.95751 31.6804 9.95751Z" fill="black"/>
<path d="M37.0493 4.83496C37.696 4.83496 38.2202 4.36954 38.2202 3.79541C38.2202 3.22128 37.696 2.75586 37.0493 2.75586C36.4027 2.75586 35.8785 3.22128 35.8785 3.79541C35.8785 4.36954 36.4027 4.83496 37.0493 4.83496Z" fill="black"/>
<path d="M30.7613 1.9428C30.6738 1.60885 30.2776 1.42392 29.8688 1.52985C29.4601 1.63578 29.2048 1.99128 29.2905 2.32523C29.3762 2.65918 29.7742 2.84231 30.183 2.73638C30.5917 2.63045 30.8469 2.27496 30.7613 1.9428Z" fill="black"/>
</g>
<g opacity="0.24">
<path d="M80.2541 54.0537C77.5928 54.0537 75.4349 55.9766 75.4349 58.3484C75.4373 59.1612 75.6912 59.9531 76.1613 60.6142C74.8816 60.8458 73.9195 61.8494 73.9195 63.0506C73.9195 64.4241 75.1689 65.5372 76.7254 65.5372C78.2818 65.5372 79.5294 64.4241 79.5294 63.0506C79.5291 62.8942 79.5123 62.7384 79.4794 62.5856C79.7359 62.6233 79.9948 62.6419 80.2541 62.6412C82.9153 62.6412 85.0732 60.7201 85.0732 58.3484C85.0732 55.9766 82.9153 54.0537 80.2541 54.0537Z" fill="black"/>
<path d="M79.7026 53.9151C81.6041 53.9151 83.1456 52.3959 83.1456 50.5218C83.1456 48.6477 81.6041 47.1284 79.7026 47.1284C77.801 47.1284 76.2595 48.6477 76.2595 50.5218C76.2595 52.3959 77.801 53.9151 79.7026 53.9151Z" fill="black"/>
<path d="M73.5751 48.0979C74.5254 48.0979 75.2957 47.4781 75.2957 46.7136C75.2957 45.9491 74.5254 45.3293 73.5751 45.3293C72.6248 45.3293 71.8545 45.9491 71.8545 46.7136C71.8545 47.4781 72.6248 48.0979 73.5751 48.0979Z" fill="black"/>
<path d="M78.9458 42.9772C79.5919 42.9772 80.1167 42.5122 80.1167 41.9377C80.1167 41.3631 79.5919 40.8999 78.9458 40.8999C78.2996 40.8999 77.7749 41.3649 77.7749 41.9377C77.7749 42.5104 78.2996 42.9772 78.9458 42.9772Z" fill="black"/>
<path d="M72.6559 40.0812C72.5702 39.749 72.1722 39.5641 71.7634 39.67C71.3547 39.7759 71.1013 40.1296 71.1869 40.4636C71.2726 40.7975 71.6706 40.9807 72.0794 40.8765C72.4881 40.7724 72.7416 40.4151 72.6559 40.0812Z" fill="black"/>
</g>
<path d="M45.3062 46.895C44.9403 46.4676 44.644 46.0206 44.5923 45.5663C44.4459 44.3437 43.3286 43.2179 41.674 43.0222C40.0194 42.8265 40.3121 43.5608 39.1448 43.0707C37.9775 42.5805 36.5193 41.5051 34.8611 42.6308C33.203 43.7565 33.4992 44.929 34.1311 45.324C34.7629 45.7189 34.2775 46.4012 33.6938 46.3527C33.1101 46.3043 31.311 46.9883 30.9219 47.9686C30.5328 48.9489 31.4074 51.2955 30.4346 51.7839C29.4619 52.2722 26.7881 51.0011 24.5017 53.3495C22.2152 55.6979 24.0162 57.1648 24.1126 58.1971C24.209 59.2295 22.8971 58.6388 23.0416 60.2026C23.1862 61.7665 24.889 63.4811 27.2236 62.9927C29.5582 62.5044 29.9009 61.8185 30.4364 62.9425C30.9719 64.0664 33.792 66.3179 36.1748 65.2909C38.5576 64.2639 39.2876 63.7737 39.923 63.9694C40.5584 64.1651 43.2786 63.2854 43.8622 62.4541C44.4459 61.6228 43.7659 60.3983 44.2514 60.0572C44.7368 59.7161 45.8577 59.8112 45.7114 58.2474C45.565 56.6836 46.3432 55.0677 47.2178 54.5291C48.0924 53.9905 48.9206 52.3746 48.2888 50.5181C47.6569 48.6616 47.5105 49.5396 46.6824 48.4139C46.3522 47.9542 45.7649 47.4426 45.3062 46.895Z" fill="#263238" stroke="#263238" stroke-width="0.2" stroke-linecap="round" stroke-linejoin="round"/>
<path d="M38.2684 60.9186C38.2684 60.9186 36.4265 60.8324 35.4412 60.9186C34.4559 61.0048 27.2022 63.504 27.2022 63.504C27.2022 63.504 19.9217 68.4001 20.3965 69.0196C20.8712 69.639 21.3817 69.8383 22.2385 69.8383C23.0952 69.8383 30.9844 68.5025 30.9844 68.5025C30.9844 68.5025 31.6698 75.0091 31.7126 75.7416C31.7554 76.4742 29.4422 83.4979 29.4422 83.4979H45.549L46.3629 76.0864C47.02 75.2312 47.5271 74.2694 47.8622 73.2424C48.3762 71.605 49.1473 66.1756 49.1473 66.1756C49.1473 66.1756 58.8285 64.7967 59.6781 63.978C60.5277 63.1593 56.6795 60.2292 55.6514 59.7983C54.6233 59.3674 50.6823 59.7121 50.2111 59.7121C49.7399 59.7121 49.1401 59.4535 46.6984 59.7983C44.2567 60.143 41.1653 60.7463 41.1653 60.7463L38.2684 60.9186Z" fill="#92E3A9" stroke="#263238" stroke-width="0.2" stroke-miterlimit="10"/>
<path d="M37.9114 58.5975C37.9114 58.5975 37.8258 60.6228 37.6544 61.1829C37.4831 61.7431 41.5526 66.6123 42.1166 66.5261C42.6806 66.4399 43.8301 62.0017 43.9158 61.5277C44.0014 61.0537 43.7373 58.5544 43.7373 58.5544C43.7373 58.5544 43.009 60.235 41.3384 59.8902C39.6677 59.5455 37.9114 58.5975 37.9114 58.5975Z" fill="white" stroke="#263238" stroke-width="0.2" stroke-linecap="round" stroke-linejoin="round"/>
<path d="M38.2934 58.9907L37.9953 61.1758L41.3188 61.2619L38.2934 58.9907Z" fill="#263238" stroke="#263238" stroke-width="0.2" stroke-linecap="round" stroke-linejoin="round"/>
<path d="M49.7149 63.7232L49.1402 66.1757L50.6823 63.418" stroke="#263238" stroke-width="0.2" stroke-linecap="round" stroke-linejoin="round"/>
<path d="M50.0407 62.3408L49.8827 63.0123" stroke="#263238" stroke-width="0.2" stroke-linecap="round" stroke-linejoin="round"/>
<path d="M29.6921 66.1758L30.9772 68.5027L29.2209 66.779" stroke="#263238" stroke-width="0.2" stroke-linecap="round" stroke-linejoin="round"/>
<path d="M36.2123 78.0474L41.558 76.1299" stroke="#263238" stroke-width="0.2" stroke-linecap="round" stroke-linejoin="round"/>
<path d="M35.4323 78.327L35.7911 78.1978" stroke="#263238" stroke-width="0.2" stroke-linecap="round" stroke-linejoin="round"/>
<path d="M42.9859 76.2373L41.0868 77.0776" stroke="#263238" stroke-width="0.2" stroke-linecap="round" stroke-linejoin="round"/>
<path d="M43.914 75.8284L43.441 76.0366" stroke="#263238" stroke-width="0.2" stroke-linecap="round" stroke-linejoin="round"/>
<path d="M43.3054 48.4769C43.3054 48.4769 42.6789 48.6564 42.0559 47.9149C41.433 47.1734 41.2188 47.5989 40.7655 48.6169C40.3121 49.6349 39.4732 50.8289 38.3238 50.161C37.1743 49.4931 36.8227 50.863 36.7531 51.3549C36.6834 51.8469 35.4376 54.3245 35.5715 54.8219C35.7053 55.3192 35.8463 56.7573 36.1944 57.4953C36.5424 58.2332 40.4781 61.5314 41.7418 61.4596C43.0055 61.3878 43.3053 60.9838 44.5619 58.8077C45.8185 56.6317 46.1433 54.6782 45.5097 51.9151C44.876 49.1519 43.3054 48.4769 43.3054 48.4769Z" fill="white" stroke="#263238" stroke-width="0.2" stroke-linecap="round" stroke-linejoin="round"/>
<path d="M41.2474 50.3008C41.2474 50.3008 41.3528 51.6707 41.492 51.8448C41.6312 52.019 42.2238 52.5127 42.0149 52.8629C41.8061 53.213 40.969 53.4948 40.969 53.4948" stroke="#263238" stroke-width="0.2" stroke-linecap="round" stroke-linejoin="round"/>
<path d="M42.495 55.2132C42.4261 55.0929 42.3311 54.9897 42.217 54.9114C42.103 54.8331 41.9729 54.7816 41.8364 54.7608C41.3426 54.6823 40.8368 54.7445 40.3764 54.9403C39.3983 55.3622 39.4679 56.4502 39.5036 57.4665C39.5393 58.4827 40.794 59.7484 41.8061 59.4666C42.8181 59.1847 43.1661 57.9584 42.9912 56.7303C42.9233 56.1975 42.7549 55.6825 42.495 55.2132Z" fill="#263238" stroke="#263238" stroke-width="0.2" stroke-linecap="round" stroke-linejoin="round"/>
<path d="M42.3737 58.1609C42.163 58.687 41.3616 58.8629 40.9779 58.7229C40.5941 58.5828 40.4549 57.9867 40.1051 57.8108C39.7552 57.6348 39.7909 58.2668 39.7909 58.2668V58.3279C40.2247 59.0604 41.0796 59.6619 41.8096 59.459C42.6378 59.2292 43.0216 58.3656 43.0376 57.3853C42.948 57.3435 42.8508 57.3209 42.752 57.3188C42.4683 57.3188 42.5736 57.6348 42.3737 58.1609Z" fill="white" stroke="#263238" stroke-width="0.2" stroke-linecap="round" stroke-linejoin="round"/>
<path d="M40.3764 55.5292C40.9333 55.285 41.2474 55.215 41.8043 55.3191C42.0606 55.3634 42.3207 55.3827 42.5807 55.3766C42.5504 55.3173 42.5218 55.2617 42.4932 55.2132C42.4243 55.0929 42.3293 54.9897 42.2153 54.9114C42.1012 54.8331 41.9711 54.7816 41.8346 54.7608C41.3408 54.6823 40.8351 54.7445 40.3746 54.9403C40.1916 55.0153 40.0278 55.1309 39.8955 55.2786C39.7632 55.4263 39.6658 55.6022 39.6107 55.7931C39.874 55.7311 40.1305 55.6427 40.3764 55.5292Z" fill="white" stroke="#263238" stroke-width="0.2" stroke-linecap="round" stroke-linejoin="round"/>
<path d="M38.8414 52.373C39.0149 52.373 39.1555 52.1214 39.1555 51.811C39.1555 51.5006 39.0149 51.249 38.8414 51.249C38.6679 51.249 38.5272 51.5006 38.5272 51.811C38.5272 52.1214 38.6679 52.373 38.8414 52.373Z" fill="#263238"/>
<path d="M42.7485 51.6347C42.922 51.6347 43.0626 51.3831 43.0626 51.0727C43.0626 50.7623 42.922 50.5107 42.7485 50.5107C42.575 50.5107 42.4343 50.7623 42.4343 51.0727C42.4343 51.3831 42.575 51.6347 42.7485 51.6347Z" fill="#263238"/>
<path d="M38.0043 50.6527C38.0043 50.6527 38.7718 49.8447 39.5393 50.3708" stroke="#263238" stroke-width="0.2" stroke-linecap="round" stroke-linejoin="round"/>
<path d="M41.8382 49.7405C41.8382 49.7405 42.5361 48.8625 43.2661 49.6346" stroke="#263238" stroke-width="0.2" stroke-linecap="round" stroke-linejoin="round"/>
<path d="M32.9941 56.6225C32.9941 56.6225 32.2552 53.5397 32.1481 52.9724C32.041 52.405 32.2195 51.7317 32.3605 51.3062C32.5771 50.6542 32.8836 50.036 33.2708 49.4695C33.7295 48.8321 34.0115 49.1517 33.9401 49.3995C33.8687 49.6473 33.2708 50.4265 33.2011 50.7101C33.1315 50.9938 33.1654 52.4822 33.1654 52.4822L33.9401 50.3564C33.9401 50.3564 34.9271 48.5485 35.2448 48.6544C35.5625 48.7603 35.4554 49.0799 35.3501 49.2217C35.2448 49.3636 34.5041 51.2775 34.5041 51.2775L34.3631 52.6959C34.3631 52.6959 35.4197 50.6042 35.5608 50.3618C35.7018 50.1194 36.4835 48.7603 36.662 49.0817C36.8405 49.4031 36.4835 50.0027 36.4835 50.0027L35.3555 52.4499L35.2502 53.2291C35.6441 52.9072 36.0096 52.5516 36.3425 52.1662C36.6585 51.7407 37.1529 51.0315 37.3635 51.0315C37.5741 51.0315 37.5741 51.2793 37.4349 51.5271C37.2957 51.7748 36.0944 53.5128 36.0605 53.6187C36.0266 53.7247 35.5661 54.8235 35.5661 54.8235C35.5661 54.8235 35.5661 56.978 35.3555 57.7303C35.1449 58.4825 34.2631 59.5023 34.2631 59.5023C34.2631 59.5023 25.3477 68.0791 24.8908 68.5764C24.4338 69.0737 23.4093 69.6393 20.873 69.6393C18.3367 69.6393 19.6753 66.307 21.1193 65.0664C22.5633 63.8257 25.0603 62.2655 25.4173 62.1237C25.7743 61.9818 32.1124 57.9403 32.464 57.5866C32.7066 57.3066 32.8873 56.978 32.9941 56.6225Z" fill="white" stroke="#263238" stroke-width="0.2" stroke-linecap="round" stroke-linejoin="round"/>
<path d="M44.9385 47.8391C44.9385 47.8391 45.7846 48.6183 46.1023 49.1857C46.42 49.753 46.9822 51.8447 46.9822 51.8447L44.9385 47.8391Z" stroke="#263238" stroke-width="0.2" stroke-linecap="round" stroke-linejoin="round"/>
<path d="M47.1232 58.0479C47.1232 58.0479 45.5739 57.0551 45.6793 55.8144C45.7417 55.0729 45.1152 52.448 45.1152 52.448C45.1152 52.448 43.425 49.4694 43.5999 49.1516C43.7748 48.8338 43.9568 49.0798 44.1353 49.1857C44.3138 49.2917 45.7917 51.7388 45.7917 51.7388C45.7917 51.7388 45.2295 49.7172 44.8725 49.1516C44.5155 48.5861 43.7801 47.5196 44.2728 47.4136C44.7654 47.3077 45.8934 49.6472 46.1058 50.0727C46.3182 50.4982 47.1928 52.3134 47.2642 53.2631C47.3356 54.2129 47.6872 56.204 47.6872 56.204C47.6872 56.204 58.011 58.6494 58.8927 59.5004C59.7744 60.3515 61.7485 62.1236 61.2131 63.0805C60.6776 64.0375 59.239 64.8167 56.6331 63.4396C54.0271 62.0625 50.361 59.9673 49.5846 59.5417C48.8081 59.1162 47.1232 58.0479 47.1232 58.0479Z" fill="white" stroke="#263238" stroke-width="0.2" stroke-linecap="round" stroke-linejoin="round"/>
<path d="M131 83.4978H9" stroke="#263238" stroke-width="0.5" stroke-linecap="round" stroke-linejoin="round"/>
</svg>
