<svg width="24" height="24" viewBox="0 0 24 24" fill="none" xmlns="http://www.w3.org/2000/svg">
<path d="M22 9.00002V15C22 17.5 21.5 19.25 20.38 20.38L14 14L21.73 6.27002C21.91 7.06002 22 7.96002 22 9.00002Z" stroke="#A0B0CF" stroke-width="1.5" stroke-linecap="round" stroke-linejoin="round"/>
<path d="M21.73 6.27L6.26999 21.73C3.25999 21.04 2 18.96 2 15V9C2 4 4 2 9 2H15C18.96 2 21.04 3.26 21.73 6.27Z" stroke="#A0B0CF" stroke-width="1.5" stroke-linecap="round" stroke-linejoin="round"/>
<path d="M20.38 20.38C19.25 21.5 17.5 22 15 22H9C7.96 22 7.05999 21.91 6.26999 21.73L14 14L20.38 20.38Z" stroke="#A0B0CF" stroke-width="1.5" stroke-linecap="round" stroke-linejoin="round"/>
<path d="M6.23999 7.97997C6.91999 5.04997 11.32 5.04997 12 7.97997C12.39 9.69997 11.31 11.16 10.36 12.06C9.66998 12.72 8.58 12.72 7.88 12.06C6.93 11.16 5.83999 9.69997 6.23999 7.97997Z" stroke="#A0B0CF" stroke-width="1.5"/>
<path d="M9.0946 8.69995H9.10359" stroke="#A0B0CF" stroke-width="2" stroke-linecap="round" stroke-linejoin="round"/>
</svg>
