<svg width="24" height="24" viewBox="0 0 24 24" fill="none" xmlns="http://www.w3.org/2000/svg">
<rect x="2" y="2" width="19.73" height="19.73" rx="5" fill="#22BBC5"/>
<path d="M22 9.00002V15C22 17.5 21.5 19.25 20.38 20.38L14 14L21.73 6.27002C21.91 7.06002 22 7.96002 22 9.00002Z" stroke="#22BBC5" stroke-width="1.5" stroke-linecap="round" stroke-linejoin="round"/>
<path d="M22 9.00002V15C22 17.5 21.5 19.25 20.38 20.38L14 14L21.73 6.27002C21.91 7.06002 22 7.96002 22 9.00002Z" stroke="black" stroke-opacity="0.2" stroke-width="1.5" stroke-linecap="round" stroke-linejoin="round"/>
<path d="M21.73 6.27L6.26999 21.73C3.25999 21.04 2 18.96 2 15V9C2 4 4 2 9 2H15C18.96 2 21.04 3.26 21.73 6.27Z" stroke="#22BBC5" stroke-width="1.5" stroke-linecap="round" stroke-linejoin="round"/>
<path d="M21.73 6.27L6.26999 21.73C3.25999 21.04 2 18.96 2 15V9C2 4 4 2 9 2H15C18.96 2 21.04 3.26 21.73 6.27Z" stroke="black" stroke-opacity="0.2" stroke-width="1.5" stroke-linecap="round" stroke-linejoin="round"/>
<path d="M20.38 20.38C19.25 21.5 17.5 22 15 22H9C7.96 22 7.05999 21.91 6.26999 21.73L14 14L20.38 20.38Z" stroke="#22BBC5" stroke-width="1.5" stroke-linecap="round" stroke-linejoin="round"/>
<path d="M20.38 20.38C19.25 21.5 17.5 22 15 22H9C7.96 22 7.05999 21.91 6.26999 21.73L14 14L20.38 20.38Z" stroke="black" stroke-opacity="0.2" stroke-width="1.5" stroke-linecap="round" stroke-linejoin="round"/>
<path d="M6.23999 7.98021C6.91999 5.05021 11.32 5.05021 12 7.98021C12.39 9.70021 11.31 11.1602 10.36 12.0602C9.66998 12.7202 8.58 12.7202 7.88 12.0602C6.93 11.1602 5.83999 9.70021 6.23999 7.98021Z" stroke="#22BBC5" stroke-width="1.5"/>
<path d="M6.23999 7.98021C6.91999 5.05021 11.32 5.05021 12 7.98021C12.39 9.70021 11.31 11.1602 10.36 12.0602C9.66998 12.7202 8.58 12.7202 7.88 12.0602C6.93 11.1602 5.83999 9.70021 6.23999 7.98021Z" stroke="black" stroke-opacity="0.2" stroke-width="1.5"/>
<path d="M9.0946 8.7002H9.10359" stroke="#22BBC5" stroke-width="2" stroke-linecap="round" stroke-linejoin="round"/>
<path d="M9.0946 8.7002H9.10359" stroke="black" stroke-opacity="0.2" stroke-width="2" stroke-linecap="round" stroke-linejoin="round"/>
</svg>
