<svg width="242" height="173" viewBox="0 0 242 173" fill="none" xmlns="http://www.w3.org/2000/svg">
<path d="M241.791 105L215.679 148.392V172.2H200.127V148.2L174.111 105H190.623L208.575 134.856L226.527 105H241.791Z" fill="#FFF5F2"/>
<path fill-rule="evenodd" clip-rule="evenodd" d="M215.791 148.192L241.903 104.8H226.639L208.687 134.656L190.735 104.8H174.223L200.239 148V172H215.791V148.192ZM214.791 171V147.914L240.134 105.8H227.205L208.687 136.597L190.169 105.8H175.993L201.239 147.722V171H214.791Z" fill="#FFF5F2"/>
<path d="M164.16 172.2L158.208 157.8H127.008L121.056 172.2H105.12L135.072 105H150.432L180.48 172.2H164.16ZM132 145.992H153.312L142.656 120.264L132 145.992Z" fill="#FFF5F2"/>
<path fill-rule="evenodd" clip-rule="evenodd" d="M158.32 157.6L164.272 172H180.592L150.544 104.8H135.184L105.232 172H121.168L127.12 157.6H158.32ZM120.499 171L126.451 156.6H158.989L164.941 171H179.049L149.896 105.8H135.833L106.773 171H120.499ZM153.424 145.792H132.112L142.768 120.064L153.424 145.792ZM130.615 146.792L142.768 117.451L154.921 146.792H130.615Z" fill="#FFF5F2"/>
<path d="M92.544 105H107.424L85.44 172.2H68.736L53.952 126.696L38.688 172.2H22.08L0 105H16.128L31.296 152.232L47.136 105H61.536L76.896 152.616L92.544 105Z" fill="#FFF5F2"/>
<path fill-rule="evenodd" clip-rule="evenodd" d="M92.656 104.8L77.008 152.416L61.648 104.8H47.248L31.408 152.032L16.24 104.8H0.112L22.192 172H38.8L54.064 126.496L68.848 172H85.552L107.536 104.8H92.656ZM106.157 105.8H93.38L76.9992 155.646L60.9198 105.8H47.9674L31.3874 155.238L15.5108 105.8H1.49317L22.916 171H38.0807L54.0792 123.306L69.5746 171H84.827L106.157 105.8Z" fill="#FFF5F2"/>
<path d="M118.573 23H134.029L104.941 90.2H89.5807L60.5887 23H77.3887L97.8367 71L118.573 23Z" fill="#22BBC5"/>
<path fill-rule="evenodd" clip-rule="evenodd" d="M77.5007 22.8H60.7007L89.6927 90.0001H105.053L134.141 22.8H118.685L97.9487 70.8001L77.5007 22.8ZM119.342 23.8L97.9423 73.3365L76.8398 23.8H62.2213L90.3504 89.0001H104.396L132.618 23.8H119.342Z" fill="#FFF5F2"/>
<path d="M21.312 77.72H57.888V90.2H5.85599V23H56.64V35.48H21.312V50.072H52.512V62.168H21.312V77.72Z" fill="#FFF5F2"/>
<path fill-rule="evenodd" clip-rule="evenodd" d="M20.424 78.5201V60.9681H51.624V50.8721H20.424V34.28H55.752V23.8H6.96802V89.0001H57V78.5201H20.424ZM21.424 77.5201V61.9681H52.624V49.8721H21.424V35.28H56.752V22.8H5.96802V90.0001H58V77.5201H21.424Z" fill="#FFF5F2"/>
<path d="M155.435 42.7551L171.128 50.6018C178.168 54.1218 178.168 59.8785 171.128 63.3985L155.435 71.2451C144.875 76.5251 140.567 72.1985 145.847 61.6568L147.442 58.4851C147.845 57.6785 147.845 56.3401 147.442 55.5335L145.847 52.3435C140.567 41.8018 144.893 37.4751 155.435 42.7551Z" fill="#22BBC5" stroke="#FFF5F2" stroke-width="1.5" stroke-linecap="round" stroke-linejoin="round"/>
<path d="M176.31 57.3793H147.862C147.483 58.8965 140.655 69.5172 144.828 72.5517C148.924 75.3448 155.868 71.0036 162.655 67.6207C171 63.4614 176.31 61.1724 176.31 57.3793Z" fill="#22BBC5"/>
<path d="M176.31 57.3793H147.862C147.483 58.8965 140.655 69.5172 144.828 72.5517C148.924 75.3448 155.868 71.0036 162.655 67.6207C171 63.4614 176.31 61.1724 176.31 57.3793Z" fill="black" fill-opacity="0.2"/>
<path d="M147.862 57.3793V56.6793C147.541 56.6793 147.261 56.8979 147.183 57.2095L147.862 57.3793ZM176.31 57.3793H177.01V56.6793H176.31V57.3793ZM144.828 72.5517L144.416 73.1178L144.424 73.1241L144.433 73.13L144.828 72.5517ZM162.655 67.6207L162.343 66.9942V66.9942L162.655 67.6207ZM147.862 58.0793H176.31V56.6793H147.862V58.0793ZM145.239 71.9856C144.465 71.4222 144.133 70.4735 144.188 69.1429C144.242 67.81 144.685 66.2344 145.292 64.6465C145.895 63.0682 146.641 61.5291 147.267 60.2764C147.577 59.6567 147.864 59.0943 148.081 58.6486C148.287 58.2264 148.472 57.824 148.541 57.549L147.183 57.2095C147.157 57.3138 147.046 57.5753 146.822 58.0361C146.609 58.4735 146.333 59.0135 146.015 59.6503C145.385 60.9105 144.613 62.5007 143.984 64.1465C143.358 65.7828 142.853 67.5261 142.789 69.0855C142.725 70.6471 143.104 72.164 144.416 73.1178L145.239 71.9856ZM175.61 57.3793C175.61 58.8939 174.568 60.2316 172.226 61.7786C169.902 63.3143 166.547 64.8989 162.343 66.9942L162.967 68.2471C167.108 66.1832 170.581 64.5437 172.998 62.9467C175.398 61.3611 177.01 59.6578 177.01 57.3793H175.61ZM162.343 66.9942C158.9 68.7102 155.538 70.6046 152.487 71.7466C149.409 72.8987 146.959 73.1578 145.222 71.9733L144.433 73.13C146.793 74.7387 149.863 74.2238 152.978 73.0578C156.12 71.8817 159.623 69.9141 162.967 68.2471L162.343 66.9942Z" fill="#FFF5F2"/>
<path d="M109 10C109 15.5228 104.523 20 99 20C93.4772 20 89 15.5228 89 10C89 4.47715 93.4772 0 99 0C104.523 0 109 4.47715 109 10Z" fill="#F35F3B"/>
<path fill-rule="evenodd" clip-rule="evenodd" d="M99 19C103.971 19 108 14.9706 108 10C108 5.02944 103.971 1 99 1C94.0294 1 90 5.02944 90 10C90 14.9706 94.0294 19 99 19ZM99 20C104.523 20 109 15.5228 109 10C109 4.47715 104.523 0 99 0C93.4772 0 89 4.47715 89 10C89 15.5228 93.4772 20 99 20Z" fill="#FFF5F2"/>
</svg>
