<svg width="24" height="24" viewBox="0 0 24 24" fill="none" xmlns="http://www.w3.org/2000/svg">
<path d="M7.15997 14.56C4.73997 16.18 4.73997 18.82 7.15997 20.43C9.90997 22.27 14.42 22.27 17.17 20.43C19.59 18.81 19.59 16.17 17.17 14.56C14.43 12.73 9.91997 12.73 7.15997 14.56Z" fill="#22BBC5"/>
<path d="M12.1601 10.87C12.0601 10.86 11.9401 10.86 11.8301 10.87C9.45006 10.79 7.56006 8.84 7.56006 6.44C7.56006 3.99 9.54006 2 12.0001 2C14.4501 2 16.4401 3.99 16.4401 6.44C16.4301 8.84 14.5401 10.79 12.1601 10.87Z" fill="#22BBC5"/>
<path d="M12.177 10.1188C12.0588 10.1102 11.9335 10.1106 11.8149 10.1189C9.85907 10.032 8.31 8.42302 8.31 6.44C8.31 4.40311 9.95531 2.75 12 2.75C14.0353 2.75 15.6892 4.40339 15.69 6.43847C15.6809 8.42308 14.1309 10.031 12.177 10.1188Z" stroke="black" stroke-opacity="0.2" stroke-width="1.5" stroke-linecap="round" stroke-linejoin="round"/>
<path d="M7.57707 19.8067L7.57543 19.8056C6.52201 19.1047 6.095 18.2544 6.095 17.4987C6.095 16.7429 6.52219 15.89 7.57584 15.1842C8.80727 14.3682 10.4716 13.9375 12.1725 13.9375C13.8743 13.9375 15.533 14.3686 16.7535 15.1837L16.7546 15.1844C17.808 15.8853 18.235 16.7356 18.235 17.4913C18.235 18.2474 17.8074 19.1007 16.7528 19.8068C15.527 20.6269 13.8659 21.06 12.165 21.06C10.4641 21.06 8.80286 20.6268 7.57707 19.8067Z" stroke="black" stroke-opacity="0.2" stroke-width="1.5" stroke-linecap="round" stroke-linejoin="round"/>
</svg>
